<ttFont>
    <TTGlyph name="A" xMin="-54" yMin="0" xMax="987" yMax="1456">
      <contour>
        <pt x="757" y="368" on="1"/>
        <pt x="323" y="368" on="1"/>
        <pt x="149" y="0" on="1"/>
        <pt x="-54" y="0" on="1"/>
        <pt x="663" y="1456" on="1"/>
        <pt x="856" y="1456" on="1"/>
        <pt x="987" y="0" on="1"/>
        <pt x="784" y="0" on="1"/>
      </contour>
      <contour>
        <pt x="400" y="529" on="1"/>
        <pt x="745" y="529" on="1"/>
        <pt x="701" y="1149" on="1"/>
        <pt x="695" y="1150" on="1"/>
      </contour>
    </TTGlyph>
    <TTGlyph name="A.smcp" xMin="-52" yMin="0" xMax="895" yMax="1165">
      <contour>
        <pt x="658" y="263" on="1"/>
        <pt x="290" y="263" on="1"/>
        <pt x="159" y="0" on="1"/>
        <pt x="-52" y="0" on="1"/>
        <pt x="552" y="1165" on="1"/>
        <pt x="759" y="1165" on="1"/>
        <pt x="895" y="0" on="1"/>
        <pt x="685" y="0" on="1"/>
      </contour>
      <contour>
        <pt x="367" y="417" on="1"/>
        <pt x="643" y="417" on="1"/>
        <pt x="598" y="866" on="1"/>
        <pt x="592" y="867" on="1"/>
      </contour>
    </TTGlyph>
    <TTGlyph name="AE" xMin="-79" yMin="0" xMax="1681" yMax="1456">
      <contour>
        <pt x="1439" y="0" on="1"/>
        <pt x="717" y="0" on="1"/>
        <pt x="777" y="361" on="1"/>
        <pt x="388" y="361" on="1"/>
        <pt x="160" y="0" on="1"/>
        <pt x="-79" y="0" on="1"/>
        <pt x="880" y="1456" on="1"/>
        <pt x="1681" y="1456" on="1"/>
        <pt x="1650" y="1299" on="1"/>
        <pt x="1134" y="1299" on="1"/>
        <pt x="1056" y="832" on="1"/>
        <pt x="1490" y="832" on="1"/>
        <pt x="1459" y="677" on="1"/>
        <pt x="1030" y="677" on="1"/>
        <pt x="943" y="155" on="1"/>
        <pt x="1470" y="155" on="1"/>
      </contour>
      <contour>
        <pt x="805" y="531" on="1"/>
        <pt x="914" y="1183" on="1"/>
        <pt x="909" y="1185" on="1"/>
        <pt x="495" y="531" on="1"/>
      </contour>
    </TTGlyph>
    <TTGlyph name="AEacute" xMin="-79" yMin="0" xMax="1681" yMax="1824">
      <component glyphName="AE" x="0" y="0" flags="0x204"/>
      <component glyphName="acute" x="658" y="346" flags="0x4"/>
    </TTGlyph>
    <TTGlyph name="Aacute" xMin="-54" yMin="0" xMax="1126" yMax="1824">
      <component glyphName="A" x="0" y="0" flags="0x204"/>
      <component glyphName="acute" x="461" y="346" flags="0x4"/>
    </TTGlyph>
    <TTGlyph name="Aacute.smcp" xMin="-52" yMin="0" xMax="995" yMax="1501">
      <component glyphName="A.smcp" x="0" y="0" flags="0x204"/>
      <component glyphName="acute" x="330" y="23" flags="0x4"/>
    </TTGlyph>
    <TTGlyph name="Abreve" xMin="-54" yMin="0" xMax="1116" yMax="1872">
      <component glyphName="A" x="0" y="0" flags="0x204"/>
      <component glyphName="breve" x="300" y="416" flags="0x4"/>
    </TTGlyph>
    <TTGlyph name="Abreve.smcp" xMin="-52" yMin="0" xMax="985" yMax="1549">
      <component glyphName="A.smcp" x="0" y="0" flags="0x204"/>
      <component glyphName="breve" x="169" y="93" flags="0x4"/>
    </TTGlyph>
    <TTGlyph name="Acircumflex" xMin="-54" yMin="0" xMax="1085" yMax="1854">
      <component glyphName="A" x="0" y="0" flags="0x204"/>
      <component glyphName="circumflex" x="229" y="347" flags="0x4"/>
    </TTGlyph>
    <TTGlyph name="Acircumflex.smcp" xMin="-52" yMin="0" xMax="954" yMax="1530">
      <component glyphName="A.smcp" x="0" y="0" flags="0x204"/>
      <component glyphName="circumflex" x="98" y="23" flags="0x4"/>
    </TTGlyph>
    <TTGlyph name="Adieresis" xMin="-54" yMin="0" xMax="1143" yMax="1802">
      <component glyphName="A" x="0" y="0" flags="0x204"/>
      <component glyphName="dieresis" x="218" y="346" flags="0x4"/>
    </TTGlyph>
    <TTGlyph name="Adieresis.smcp" xMin="-52" yMin="0" xMax="1012" yMax="1479">
      <component glyphName="A.smcp" x="0" y="0" flags="0x204"/>
      <component glyphName="dieresis" x="87" y="23" flags="0x4"/>
    </TTGlyph>
    <TTGlyph name="Agrave" xMin="-54" yMin="0" xMax="987" yMax="1827">
      <component glyphName="A" x="0" y="0" flags="0x204"/>
      <component glyphName="grave" x="306" y="350" flags="0x4"/>
    </TTGlyph>
    <TTGlyph name="Agrave.smcp" xMin="-52" yMin="0" xMax="895" yMax="1500">
      <component glyphName="A.smcp" x="0" y="0" flags="0x204"/>
      <component glyphName="grave" x="175" y="23" flags="0x4"/>
    </TTGlyph>
    <TTGlyph name="Alpha" xMin="-54" yMin="0" xMax="987" yMax="1456">
      <component glyphName="A" x="0" y="0" flags="0x204"/>
    </TTGlyph>
    <TTGlyph name="Alphatonos" xMin="-54" yMin="0" xMax="987" yMax="1633">
      <component glyphName="A" x="0" y="0" flags="0x204"/>
      <component glyphName="tonos" x="-35" y="0" flags="0x4"/>
    </TTGlyph>
    <TTGlyph name="Amacron" xMin="-54" yMin="0" xMax="1142" yMax="1784">
      <component glyphName="A" x="0" y="0" flags="0x204"/>
      <component glyphName="macron" x="243" y="328" flags="0x4"/>
    </TTGlyph>
    <TTGlyph name="Amacron.smcp" xMin="-52" yMin="0" xMax="1011" yMax="1461">
      <component glyphName="A.smcp" x="0" y="0" flags="0x204"/>
      <component glyphName="macron" x="112" y="5" flags="0x4"/>
    </TTGlyph>
    <TTGlyph name="Aogonek" xMin="-54" yMin="-413" xMax="987" yMax="1456">
      <component glyphName="A" x="0" y="0" flags="0x204"/>
      <component glyphName="ogonek" x="694" y="0" flags="0x4"/>
    </TTGlyph>
    <TTGlyph name="Aogonek.smcp" xMin="-52" yMin="-413" xMax="895" yMax="1165">
      <component glyphName="A.smcp" x="0" y="0" flags="0x204"/>
      <component glyphName="ogonek" x="600" y="0" flags="0x4"/>
    </TTGlyph>
    <TTGlyph name="Aring" xMin="-54" yMin="0" xMax="1019" yMax="1918">
      <component glyphName="A" x="0" y="0" flags="0x204"/>
      <component glyphName="ring" x="353" y="423" flags="0x4"/>
    </TTGlyph>
    <TTGlyph name="Aring.smcp" xMin="-52" yMin="0" xMax="895" yMax="1595">
      <component glyphName="A.smcp" x="0" y="0" flags="0x204"/>
      <component glyphName="ring" x="222" y="100" flags="0x4"/>
    </TTGlyph>
    <TTGlyph name="Aringacute" xMin="-54" yMin="0" xMax="1171" yMax="2100">
      <component glyphName="A" x="0" y="0" flags="0x204"/>
      <component glyphName="ringacute" x="366" y="408" flags="0x4"/>
    </TTGlyph>
    <TTGlyph name="Aringacute.smcp" xMin="-52" yMin="0" xMax="1040" yMax="1777">
      <component glyphName="A.smcp" x="0" y="0" flags="0x204"/>
      <component glyphName="ringacute" x="235" y="85" flags="0x4"/>
    </TTGlyph>
    <TTGlyph name="Atilde" xMin="-54" yMin="0" xMax="1134" yMax="1869">
      <component glyphName="A" x="0" y="0" flags="0x204"/>
      <component glyphName="tilde" x="269" y="354" flags="0x4"/>
    </TTGlyph>
    <TTGlyph name="Atilde.smcp" xMin="-52" yMin="0" xMax="1003" yMax="1545">
      <component glyphName="A.smcp" x="0" y="0" flags="0x204"/>
      <component glyphName="tilde" x="138" y="30" flags="0x4"/>
    </TTGlyph>
    <TTGlyph name="B" xMin="53" yMin="0" xMax="1113" yMax="1456">
      <contour>
        <pt x="53" y="0" on="1"/>
        <pt x="344" y="1456" on="1"/>
        <pt x="735" y="1456" on="1"/>
        <pt x="920" y="1456" on="0"/>
        <pt x="1113" y="1256" on="0"/>
        <pt x="1075" y="1064" on="1"/>
        <pt x="1052" y="953" on="0"/>
        <pt x="923" y="798" on="0"/>
        <pt x="826" y="764" on="1"/>
        <pt x="933" y="738" on="0"/>
        <pt x="1014" y="544" on="0"/>
        <pt x="988" y="412" on="1"/>
        <pt x="945" y="198" on="0"/>
        <pt x="693" y="0" on="0"/>
        <pt x="497" y="0" on="1"/>
      </contour>
      <contour>
        <pt x="390" y="679" on="1"/>
        <pt x="285" y="154" on="1"/>
        <pt x="528" y="154" on="1"/>
        <pt x="622" y="154" on="0"/>
        <pt x="763" y="289" on="0"/>
        <pt x="788" y="411" on="1"/>
        <pt x="814" y="542" on="0"/>
        <pt x="751" y="679" on="0"/>
        <pt x="654" y="679" on="1"/>
      </contour>
      <contour>
        <pt x="419" y="825" on="1"/>
        <pt x="636" y="825" on="1"/>
        <pt x="720" y="828" on="0"/>
        <pt x="851" y="951" on="0"/>
        <pt x="873" y="1060" on="1"/>
        <pt x="898" y="1188" on="0"/>
        <pt x="813" y="1300" on="0"/>
        <pt x="704" y="1300" on="1"/>
        <pt x="514" y="1300" on="1"/>
      </contour>
    </TTGlyph>
    <TTGlyph name="B.smcp" xMin="41" yMin="0" xMax="957" yMax="1165">
      <contour>
        <pt x="41" y="0" on="1"/>
        <pt x="274" y="1165" on="1"/>
        <pt x="624" y="1165" on="1"/>
        <pt x="786" y="1165" on="0"/>
        <pt x="957" y="1003" on="0"/>
        <pt x="927" y="849" on="1"/>
        <pt x="908" y="758" on="0"/>
        <pt x="798" y="628" on="0"/>
        <pt x="713" y="597" on="1"/>
        <pt x="805" y="573" on="0"/>
        <pt x="879" y="425" on="0"/>
        <pt x="859" y="326" on="1"/>
        <pt x="824" y="155" on="0"/>
        <pt x="617" y="0" on="0"/>
        <pt x="447" y="0" on="1"/>
      </contour>
      <contour>
        <pt x="345" y="522" on="1"/>
        <pt x="271" y="152" on="1"/>
        <pt x="477" y="152" on="1"/>
        <pt x="547" y="152" on="0"/>
        <pt x="643" y="247" on="0"/>
        <pt x="661" y="335" on="1"/>
        <pt x="679" y="429" on="0"/>
        <pt x="627" y="522" on="0"/>
        <pt x="551" y="522" on="1"/>
      </contour>
      <contour>
        <pt x="372" y="658" on="1"/>
        <pt x="523" y="658" on="1"/>
        <pt x="599" y="658" on="0"/>
        <pt x="706" y="749" on="0"/>
        <pt x="723" y="832" on="1"/>
        <pt x="742" y="927" on="0"/>
        <pt x="677" y="999" on="0"/>
        <pt x="591" y="999" on="1"/>
        <pt x="441" y="999" on="1"/>
      </contour>
    </TTGlyph>
    <TTGlyph name="Beta" xMin="53" yMin="0" xMax="1113" yMax="1456">
      <component glyphName="B" x="0" y="0" flags="0x204"/>
    </TTGlyph>
    <TTGlyph name="C" xMin="78" yMin="-21" xMax="1144" yMax="1477">
      <contour>
        <pt x="1004" y="459" on="1"/>
        <pt x="1006" y="453" on="1"/>
        <pt x="948" y="226" on="0"/>
        <pt x="700" y="-21" on="0"/>
        <pt x="501" y="-21" on="1"/>
        <pt x="305" y="-21" on="0"/>
        <pt x="78" y="339" on="0"/>
        <pt x="132" y="603" on="1"/>
        <pt x="184" y="863" on="1"/>
        <pt x="242" y="1156" on="0"/>
        <pt x="528" y="1477" on="0"/>
        <pt x="732" y="1477" on="1"/>
        <pt x="928" y="1477" on="0"/>
        <pt x="1144" y="1206" on="0"/>
        <pt x="1116" y="978" on="1"/>
        <pt x="917" y="978" on="1"/>
        <pt x="935" y="1142" on="0"/>
        <pt x="836" y="1321" on="0"/>
        <pt x="712" y="1321" on="1"/>
        <pt x="604" y="1321" on="0"/>
        <pt x="425" y="1065" on="0"/>
        <pt x="385" y="865" on="1"/>
        <pt x="333" y="603" on="1"/>
        <pt x="289" y="388" on="0"/>
        <pt x="392" y="133" on="0"/>
        <pt x="518" y="133" on="1"/>
        <pt x="627" y="133" on="0"/>
        <pt x="764" y="291" on="0"/>
        <pt x="812" y="459" on="1"/>
      </contour>
    </TTGlyph>
    <TTGlyph name="C.smcp" xMin="61" yMin="-17" xMax="989" yMax="1181">
      <contour>
        <pt x="860" y="381" on="1"/>
        <pt x="862" y="375" on="1"/>
        <pt x="825" y="170" on="0"/>
        <pt x="588" y="-17" on="0"/>
        <pt x="406" y="-17" on="1"/>
        <pt x="243" y="-17" on="0"/>
        <pt x="61" y="253" on="0"/>
        <pt x="102" y="461" on="1"/>
        <pt x="151" y="704" on="1"/>
        <pt x="195" y="928" on="0"/>
        <pt x="466" y="1181" on="0"/>
        <pt x="645" y="1181" on="1"/>
        <pt x="814" y="1181" on="0"/>
        <pt x="989" y="975" on="0"/>
        <pt x="951" y="784" on="1"/>
        <pt x="752" y="784" on="1"/>
        <pt x="778" y="915" on="0"/>
        <pt x="709" y="1027" on="0"/>
        <pt x="614" y="1027" on="1"/>
        <pt x="530" y="1027" on="0"/>
        <pt x="378" y="843" on="0"/>
        <pt x="351" y="705" on="1"/>
        <pt x="302" y="461" on="1"/>
        <pt x="271" y="309" on="0"/>
        <pt x="345" y="136" on="0"/>
        <pt x="436" y="136" on="1"/>
        <pt x="523" y="136" on="0"/>
        <pt x="644" y="257" on="0"/>
        <pt x="669" y="381" on="1"/>
      </contour>
    </TTGlyph>
    <TTGlyph name="Cacute" xMin="78" yMin="-21" xMax="1144" yMax="1845">
      <component glyphName="C" x="0" y="0" flags="0x4"/>
      <component glyphName="acute" x="436" y="367" flags="0x4"/>
    </TTGlyph>
    <TTGlyph name="Cacute.smcp" xMin="61" yMin="-17" xMax="989" yMax="1501">
      <component glyphName="C.smcp" x="0" y="0" flags="0x204"/>
      <component glyphName="acute" x="314" y="23" flags="0x4"/>
    </TTGlyph>
    <TTGlyph name="Ccaron" xMin="78" yMin="-21" xMax="1144" yMax="1880">
      <component glyphName="C" x="0" y="0" flags="0x4"/>
      <component glyphName="caron" x="224" y="371" flags="0x4"/>
    </TTGlyph>
    <TTGlyph name="Ccaron.smcp" xMin="61" yMin="-17" xMax="992" yMax="1532">
      <component glyphName="C.smcp" x="0" y="0" flags="0x204"/>
      <component glyphName="caron" x="102" y="23" flags="0x4"/>
    </TTGlyph>
    <TTGlyph name="Ccedilla" xMin="78" yMin="-445" xMax="1144" yMax="1477">
      <component glyphName="C" x="0" y="0" flags="0x4"/>
      <component glyphName="cedilla" x="338" y="-5" flags="0x4"/>
    </TTGlyph>
    <TTGlyph name="Ccedilla.smcp" xMin="61" yMin="-443" xMax="989" yMax="1181">
      <component glyphName="C.smcp" x="0" y="0" flags="0x204"/>
      <component glyphName="cedilla" x="284" y="-3" flags="0x4"/>
    </TTGlyph>
    <TTGlyph name="Ccircumflex" xMin="78" yMin="-21" xMax="1144" yMax="1875">
      <component glyphName="C" x="0" y="0" flags="0x4"/>
      <component glyphName="circumflex" x="204" y="368" flags="0x4"/>
    </TTGlyph>
    <TTGlyph name="Ccircumflex.smcp" xMin="61" yMin="-17" xMax="989" yMax="1530">
      <component glyphName="C.smcp" x="0" y="0" flags="0x204"/>
      <component glyphName="circumflex" x="82" y="23" flags="0x4"/>
    </TTGlyph>
    <TTGlyph name="Chi" xMin="-19" yMin="0" xMax="1180" yMax="1456">
      <component glyphName="X" x="0" y="0" flags="0x204"/>
    </TTGlyph>
    <TTGlyph name="D" xMin="53" yMin="0" xMax="1156" yMax="1456">
      <contour>
        <pt x="53" y="0" on="1"/>
        <pt x="344" y="1456" on="1"/>
        <pt x="695" y="1456" on="1"/>
        <pt x="906" y="1456" on="0"/>
        <pt x="1156" y="1090" on="0"/>
        <pt x="1103" y="823" on="1"/>
        <pt x="1061" y="616" on="1"/>
        <pt x="1002" y="319" on="0"/>
        <pt x="692" y="0" on="0"/>
        <pt x="469" y="0" on="1"/>
      </contour>
      <contour>
        <pt x="514" y="1300" on="1"/>
        <pt x="285" y="154" on="1"/>
        <pt x="494" y="154" on="1"/>
        <pt x="624" y="154" on="0"/>
        <pt x="819" y="407" on="0"/>
        <pt x="861" y="616" on="1"/>
        <pt x="903" y="826" on="1"/>
        <pt x="945" y="1040" on="0"/>
        <pt x="807" y="1300" on="0"/>
        <pt x="658" y="1300" on="1"/>
      </contour>
    </TTGlyph>
    <TTGlyph name="D.smcp" xMin="41" yMin="0" xMax="985" yMax="1165">
      <contour>
        <pt x="41" y="0" on="1"/>
        <pt x="274" y="1165" on="1"/>
        <pt x="629" y="1165" on="1"/>
        <pt x="794" y="1165" on="0"/>
        <pt x="985" y="893" on="0"/>
        <pt x="944" y="687" on="1"/>
        <pt x="902" y="477" on="1"/>
        <pt x="857" y="253" on="0"/>
        <pt x="576" y="0" on="0"/>
        <pt x="396" y="0" on="1"/>
      </contour>
      <contour>
        <pt x="443" y="1011" on="1"/>
        <pt x="271" y="152" on="1"/>
        <pt x="426" y="152" on="1"/>
        <pt x="511" y="152" on="0"/>
        <pt x="674" y="339" on="0"/>
        <pt x="702" y="477" on="1"/>
        <pt x="745" y="688" on="1"/>
        <pt x="774" y="836" on="0"/>
        <pt x="691" y="1011" on="0"/>
        <pt x="598" y="1011" on="1"/>
      </contour>
    </TTGlyph>
    <TTGlyph name="Dcaron" xMin="53" yMin="0" xMax="1156" yMax="1859">
      <component glyphName="D" x="0" y="0" flags="0x204"/>
      <component glyphName="caron" x="180" y="350" flags="0x4"/>
    </TTGlyph>
    <TTGlyph name="Dcaron.smcp" xMin="41" yMin="0" xMax="985" yMax="1532">
      <component glyphName="D.smcp" x="0" y="0" flags="0x204"/>
      <component glyphName="caron" x="35" y="23" flags="0x4"/>
    </TTGlyph>
    <TTGlyph name="Dcroat" xMin="83" yMin="0" xMax="1186" yMax="1456">
      <contour>
        <pt x="725" y="1456" on="1"/>
        <pt x="936" y="1456" on="0"/>
        <pt x="1186" y="1090" on="0"/>
        <pt x="1133" y="823" on="1"/>
        <pt x="1091" y="616" on="1"/>
        <pt x="1032" y="319" on="0"/>
        <pt x="722" y="0" on="0"/>
        <pt x="499" y="0" on="1"/>
        <pt x="83" y="0" on="1"/>
        <pt x="217" y="670" on="1"/>
        <pt x="97" y="670" on="1"/>
        <pt x="125" y="811" on="1"/>
        <pt x="245" y="811" on="1"/>
        <pt x="374" y="1456" on="1"/>
      </contour>
      <contour>
        <pt x="628" y="670" on="1"/>
        <pt x="418" y="670" on="1"/>
        <pt x="315" y="154" on="1"/>
        <pt x="524" y="154" on="1"/>
        <pt x="654" y="154" on="0"/>
        <pt x="849" y="407" on="0"/>
        <pt x="891" y="616" on="1"/>
        <pt x="933" y="826" on="1"/>
        <pt x="975" y="1040" on="0"/>
        <pt x="837" y="1300" on="0"/>
        <pt x="688" y="1300" on="1"/>
        <pt x="544" y="1300" on="1"/>
        <pt x="446" y="811" on="1"/>
        <pt x="656" y="811" on="1"/>
      </contour>
    </TTGlyph>
    <TTGlyph name="Dcroat.smcp" xMin="13" yMin="0" xMax="985" yMax="1165">
      <component glyphName="D.smcp" x="0" y="0" flags="0x204"/>
      <component glyphName="crossbar" x="-169" y="-139" flags="0x4"/>
    </TTGlyph>
    <TTGlyph name="Delta" xMin="-51" yMin="0" xMax="1087" yMax="1456">
      <contour>
        <pt x="722" y="1456" on="1"/>
        <pt x="915" y="1456" on="1"/>
        <pt x="1087" y="0" on="1"/>
        <pt x="-51" y="0" on="1"/>
      </contour>
      <contour>
        <pt x="236" y="154" on="1"/>
        <pt x="863" y="154" on="1"/>
        <pt x="759" y="1150" on="1"/>
        <pt x="753" y="1151" on="1"/>
      </contour>
    </TTGlyph>
    <TTGlyph name="E" xMin="53" yMin="0" xMax="1132" yMax="1456">
      <contour>
        <pt x="900" y="676" on="1"/>
        <pt x="389" y="676" on="1"/>
        <pt x="285" y="154" on="1"/>
        <pt x="878" y="154" on="1"/>
        <pt x="847" y="0" on="1"/>
        <pt x="53" y="0" on="1"/>
        <pt x="344" y="1456" on="1"/>
        <pt x="1132" y="1456" on="1"/>
        <pt x="1101" y="1300" on="1"/>
        <pt x="514" y="1300" on="1"/>
        <pt x="420" y="831" on="1"/>
        <pt x="931" y="831" on="1"/>
      </contour>
    </TTGlyph>
    <TTGlyph name="E.smcp" xMin="41" yMin="0" xMax="947" yMax="1165">
      <contour>
        <pt x="750" y="528" on="1"/>
        <pt x="346" y="528" on="1"/>
        <pt x="271" y="152" on="1"/>
        <pt x="744" y="152" on="1"/>
        <pt x="714" y="0" on="1"/>
        <pt x="41" y="0" on="1"/>
        <pt x="274" y="1165" on="1"/>
        <pt x="947" y="1165" on="1"/>
        <pt x="916" y="1011" on="1"/>
        <pt x="443" y="1011" on="1"/>
        <pt x="377" y="682" on="1"/>
        <pt x="780" y="682" on="1"/>
      </contour>
    </TTGlyph>
    <TTGlyph name="Eacute" xMin="53" yMin="0" xMax="1132" yMax="1824">
      <component glyphName="E" x="0" y="0" flags="0x204"/>
      <component glyphName="acute" x="400" y="346" flags="0x4"/>
    </TTGlyph>
    <TTGlyph name="Eacute.smcp" xMin="41" yMin="0" xMax="947" yMax="1501">
      <component glyphName="E.smcp" x="0" y="0" flags="0x204"/>
      <component glyphName="acute" x="279" y="23" flags="0x4"/>
    </TTGlyph>
    <TTGlyph name="Ebreve" xMin="53" yMin="0" xMax="1132" yMax="1872">
      <component glyphName="E" x="0" y="0" flags="0x204"/>
      <component glyphName="breve" x="239" y="416" flags="0x4"/>
    </TTGlyph>
    <TTGlyph name="Ebreve.smcp" xMin="41" yMin="0" xMax="947" yMax="1549">
      <component glyphName="E.smcp" x="0" y="0" flags="0x204"/>
      <component glyphName="breve" x="118" y="93" flags="0x4"/>
    </TTGlyph>
    <TTGlyph name="Ecaron" xMin="53" yMin="0" xMax="1132" yMax="1859">
      <component glyphName="E" x="0" y="0" flags="0x204"/>
      <component glyphName="caron" x="188" y="350" flags="0x4"/>
    </TTGlyph>
    <TTGlyph name="Ecaron.smcp" xMin="41" yMin="0" xMax="957" yMax="1532">
      <component glyphName="E.smcp" x="0" y="0" flags="0x204"/>
      <component glyphName="caron" x="67" y="23" flags="0x4"/>
    </TTGlyph>
    <TTGlyph name="Ecircumflex" xMin="53" yMin="0" xMax="1132" yMax="1854">
      <component glyphName="E" x="0" y="0" flags="0x204"/>
      <component glyphName="circumflex" x="168" y="347" flags="0x4"/>
    </TTGlyph>
    <TTGlyph name="Ecircumflex.smcp" xMin="41" yMin="0" xMax="947" yMax="1530">
      <component glyphName="E.smcp" x="0" y="0" flags="0x204"/>
      <component glyphName="circumflex" x="47" y="23" flags="0x4"/>
    </TTGlyph>
    <TTGlyph name="Edieresis" xMin="53" yMin="0" xMax="1132" yMax="1802">
      <component glyphName="E" x="0" y="0" flags="0x204"/>
      <component glyphName="dieresis" x="157" y="346" flags="0x4"/>
    </TTGlyph>
    <TTGlyph name="Edieresis.smcp" xMin="41" yMin="0" xMax="961" yMax="1479">
      <component glyphName="E.smcp" x="0" y="0" flags="0x204"/>
      <component glyphName="dieresis" x="36" y="23" flags="0x4"/>
    </TTGlyph>
    <TTGlyph name="Edotaccent" xMin="53" yMin="0" xMax="1132" yMax="1816">
      <component glyphName="E" x="0" y="0" flags="0x204"/>
      <component glyphName="dotaccent" x="335" y="357" flags="0x4"/>
    </TTGlyph>
    <TTGlyph name="Edotaccent.smcp" xMin="41" yMin="0" xMax="947" yMax="1493">
      <component glyphName="E.smcp" x="0" y="0" flags="0x204"/>
      <component glyphName="dotaccent" x="214" y="34" flags="0x4"/>
    </TTGlyph>
    <TTGlyph name="Egrave" xMin="53" yMin="0" xMax="1132" yMax="1827">
      <component glyphName="E" x="0" y="0" flags="0x204"/>
      <component glyphName="grave" x="245" y="350" flags="0x4"/>
    </TTGlyph>
    <TTGlyph name="Egrave.smcp" xMin="41" yMin="0" xMax="947" yMax="1500">
      <component glyphName="E.smcp" x="0" y="0" flags="0x204"/>
      <component glyphName="grave" x="124" y="23" flags="0x4"/>
    </TTGlyph>
    <TTGlyph name="Emacron" xMin="53" yMin="0" xMax="1132" yMax="1784">
      <component glyphName="E" x="0" y="0" flags="0x204"/>
      <component glyphName="macron" x="182" y="328" flags="0x4"/>
    </TTGlyph>
    <TTGlyph name="Emacron.smcp" xMin="41" yMin="0" xMax="960" yMax="1461">
      <component glyphName="E.smcp" x="0" y="0" flags="0x204"/>
      <component glyphName="macron" x="61" y="5" flags="0x4"/>
    </TTGlyph>
    <TTGlyph name="Eng" xMin="45" yMin="-437" xMax="1257" yMax="1456">
      <contour>
        <pt x="1257" y="1456" on="1"/>
        <pt x="951" y="-74" on="1"/>
        <pt x="913" y="-259" on="0"/>
        <pt x="729" y="-437" on="0"/>
        <pt x="591" y="-437" on="1"/>
        <pt x="564" y="-437" on="0"/>
        <pt x="514" y="-428" on="0"/>
        <pt x="489" y="-419" on="1"/>
        <pt x="530" y="-268" on="1"/>
        <pt x="545" y="-273" on="0"/>
        <pt x="590" y="-281" on="0"/>
        <pt x="608" y="-281" on="1"/>
        <pt x="653" y="-281" on="0"/>
        <pt x="730" y="-170" on="0"/>
        <pt x="750" y="-74" on="1"/>
        <pt x="765" y="0" on="1"/>
        <pt x="463" y="1054" on="1"/>
        <pt x="457" y="1054" on="1"/>
        <pt x="246" y="0" on="1"/>
        <pt x="45" y="0" on="1"/>
        <pt x="336" y="1456" on="1"/>
        <pt x="537" y="1456" on="1"/>
        <pt x="839" y="403" on="1"/>
        <pt x="845" y="403" on="1"/>
        <pt x="1056" y="1456" on="1"/>
      </contour>
    </TTGlyph>
    <TTGlyph name="Eogonek" xMin="53" yMin="-413" xMax="1132" yMax="1456">
      <component glyphName="E" x="0" y="0" flags="0x204"/>
      <component glyphName="ogonek" x="404" y="0" flags="0x4"/>
    </TTGlyph>
    <TTGlyph name="Eogonek.smcp" xMin="41" yMin="-413" xMax="947" yMax="1165">
      <component glyphName="E.smcp" x="0" y="0" flags="0x204"/>
      <component glyphName="ogonek" x="367" y="0" flags="0x4"/>
    </TTGlyph>
    <TTGlyph name="Epsilon" xMin="53" yMin="0" xMax="1132" yMax="1456">
      <component glyphName="E" x="0" y="0" flags="0x204"/>
    </TTGlyph>
    <TTGlyph name="Epsilontonos" xMin="131" yMin="0" xMax="1232" yMax="1635">
      <component glyphName="E" x="100" y="0" flags="0x4"/>
      <component glyphName="tonos" x="-227" y="2" flags="0x4"/>
    </TTGlyph>
    <TTGlyph name="Eta" xMin="53" yMin="0" xMax="1265" yMax="1456">
      <component glyphName="H" x="0" y="0" flags="0x204"/>
    </TTGlyph>
    <TTGlyph name="Etatonos" xMin="153" yMin="0" xMax="1365" yMax="1633">
      <component glyphName="H" x="100" y="0" flags="0x4"/>
      <component glyphName="tonos" x="-191" y="0" flags="0x4"/>
    </TTGlyph>
    <TTGlyph name="Eth" xMin="83" yMin="0" xMax="1186" yMax="1456">
      <contour>
        <pt x="725" y="1456" on="1"/>
        <pt x="936" y="1456" on="0"/>
        <pt x="1186" y="1090" on="0"/>
        <pt x="1133" y="823" on="1"/>
        <pt x="1091" y="616" on="1"/>
        <pt x="1032" y="319" on="0"/>
        <pt x="722" y="0" on="0"/>
        <pt x="499" y="0" on="1"/>
        <pt x="83" y="0" on="1"/>
        <pt x="217" y="670" on="1"/>
        <pt x="97" y="670" on="1"/>
        <pt x="125" y="811" on="1"/>
        <pt x="245" y="811" on="1"/>
        <pt x="374" y="1456" on="1"/>
      </contour>
      <contour>
        <pt x="628" y="670" on="1"/>
        <pt x="418" y="670" on="1"/>
        <pt x="315" y="154" on="1"/>
        <pt x="524" y="154" on="1"/>
        <pt x="654" y="154" on="0"/>
        <pt x="849" y="407" on="0"/>
        <pt x="891" y="616" on="1"/>
        <pt x="933" y="826" on="1"/>
        <pt x="975" y="1040" on="0"/>
        <pt x="837" y="1300" on="0"/>
        <pt x="688" y="1300" on="1"/>
        <pt x="544" y="1300" on="1"/>
        <pt x="446" y="811" on="1"/>
        <pt x="656" y="811" on="1"/>
      </contour>
    </TTGlyph>
    <TTGlyph name="Eth.smcp" xMin="13" yMin="0" xMax="985" yMax="1165">
      <component glyphName="D.smcp" x="0" y="0" flags="0x204"/>
      <component glyphName="crossbar" x="-169" y="-139" flags="0x4"/>
    </TTGlyph>
    <TTGlyph name="Euro" xMin="86" yMin="-21" xMax="1018" yMax="1477">
      <contour>
        <pt x="772" y="491" on="1"/>
        <pt x="405" y="491" on="1"/>
        <pt x="403" y="482" on="1"/>
        <pt x="370" y="321" on="0"/>
        <pt x="454" y="133" on="0"/>
        <pt x="561" y="133" on="1"/>
        <pt x="605" y="133" on="0"/>
        <pt x="702" y="150" on="0"/>
        <pt x="745" y="167" on="1"/>
        <pt x="731" y="10" on="1"/>
        <pt x="682" y="-5" on="0"/>
        <pt x="580" y="-21" on="0"/>
        <pt x="530" y="-21" on="1"/>
        <pt x="350" y="-21" on="0"/>
        <pt x="159" y="267" on="0"/>
        <pt x="202" y="482" on="1"/>
        <pt x="204" y="491" on="1"/>
        <pt x="86" y="491" on="1"/>
        <pt x="116" y="646" on="1"/>
        <pt x="234" y="646" on="1"/>
        <pt x="263" y="787" on="1"/>
        <pt x="146" y="787" on="1"/>
        <pt x="176" y="942" on="1"/>
        <pt x="294" y="942" on="1"/>
        <pt x="299" y="965" on="1"/>
        <pt x="346" y="1204" on="0"/>
        <pt x="632" y="1477" on="0"/>
        <pt x="828" y="1477" on="1"/>
        <pt x="872" y="1477" on="0"/>
        <pt x="968" y="1460" on="0"/>
        <pt x="1018" y="1446" on="1"/>
        <pt x="969" y="1286" on="1"/>
        <pt x="929" y="1302" on="0"/>
        <pt x="843" y="1321" on="0"/>
        <pt x="797" y="1321" on="1"/>
        <pt x="699" y="1321" on="0"/>
        <pt x="530" y="1116" on="0"/>
        <pt x="500" y="967" on="1"/>
        <pt x="495" y="942" on="1"/>
        <pt x="862" y="942" on="1"/>
        <pt x="832" y="787" on="1"/>
        <pt x="464" y="787" on="1"/>
        <pt x="434" y="646" on="1"/>
        <pt x="802" y="646" on="1"/>
      </contour>
    </TTGlyph>
    <TTGlyph name="F" xMin="53" yMin="0" xMax="1139" yMax="1456">
      <contour>
        <pt x="894" y="647" on="1"/>
        <pt x="383" y="647" on="1"/>
        <pt x="254" y="0" on="1"/>
        <pt x="53" y="0" on="1"/>
        <pt x="344" y="1456" on="1"/>
        <pt x="1139" y="1456" on="1"/>
        <pt x="1108" y="1300" on="1"/>
        <pt x="514" y="1300" on="1"/>
        <pt x="414" y="802" on="1"/>
        <pt x="925" y="802" on="1"/>
      </contour>
    </TTGlyph>
    <TTGlyph name="F.smcp" xMin="41" yMin="0" xMax="957" yMax="1165">
      <contour>
        <pt x="755" y="502" on="1"/>
        <pt x="341" y="502" on="1"/>
        <pt x="241" y="0" on="1"/>
        <pt x="41" y="0" on="1"/>
        <pt x="274" y="1165" on="1"/>
        <pt x="957" y="1165" on="1"/>
        <pt x="926" y="1011" on="1"/>
        <pt x="443" y="1011" on="1"/>
        <pt x="372" y="657" on="1"/>
        <pt x="786" y="657" on="1"/>
      </contour>
    </TTGlyph>
    <TTGlyph name="G" xMin="67" yMin="-21" xMax="1168" yMax="1477">
      <contour>
        <pt x="973" y="207" on="1"/>
        <pt x="908" y="120" on="0"/>
        <pt x="665" y="-21" on="0"/>
        <pt x="498" y="-21" on="1"/>
        <pt x="293" y="-21" on="0"/>
        <pt x="67" y="262" on="0"/>
        <pt x="118" y="514" on="1"/>
        <pt x="204" y="946" on="1"/>
        <pt x="257" y="1216" on="0"/>
        <pt x="559" y="1477" on="0"/>
        <pt x="775" y="1477" on="1"/>
        <pt x="974" y="1477" on="0"/>
        <pt x="1168" y="1247" on="0"/>
        <pt x="1136" y="1048" on="1"/>
        <pt x="1134" y="1043" on="1"/>
        <pt x="943" y="1043" on="1"/>
        <pt x="965" y="1179" on="0"/>
        <pt x="870" y="1321" on="0"/>
        <pt x="747" y="1321" on="1"/>
        <pt x="630" y="1321" on="0"/>
        <pt x="440" y="1127" on="0"/>
        <pt x="405" y="948" on="1"/>
        <pt x="318" y="514" on="1"/>
        <pt x="278" y="315" on="0"/>
        <pt x="392" y="133" on="0"/>
        <pt x="529" y="133" on="1"/>
        <pt x="619" y="133" on="0"/>
        <pt x="747" y="206" on="0"/>
        <pt x="783" y="259" on="1"/>
        <pt x="849" y="590" on="1"/>
        <pt x="618" y="590" on="1"/>
        <pt x="647" y="737" on="1"/>
        <pt x="1079" y="737" on="1"/>
      </contour>
    </TTGlyph>
    <TTGlyph name="G.smcp" xMin="60" yMin="-17" xMax="1015" yMax="1181">
      <contour>
        <pt x="864" y="158" on="1"/>
        <pt x="801" y="89" on="0"/>
        <pt x="584" y="-17" on="0"/>
        <pt x="434" y="-17" on="1"/>
        <pt x="256" y="-17" on="0"/>
        <pt x="60" y="252" on="0"/>
        <pt x="102" y="461" on="1"/>
        <pt x="151" y="704" on="1"/>
        <pt x="195" y="928" on="0"/>
        <pt x="478" y="1181" on="0"/>
        <pt x="666" y="1181" on="1"/>
        <pt x="837" y="1181" on="0"/>
        <pt x="1015" y="983" on="0"/>
        <pt x="980" y="823" on="1"/>
        <pt x="978" y="818" on="1"/>
        <pt x="784" y="816" on="1"/>
        <pt x="806" y="927" on="0"/>
        <pt x="731" y="1027" on="0"/>
        <pt x="635" y="1027" on="1"/>
        <pt x="543" y="1027" on="0"/>
        <pt x="378" y="842" on="0"/>
        <pt x="351" y="705" on="1"/>
        <pt x="302" y="461" on="1"/>
        <pt x="271" y="308" on="0"/>
        <pt x="357" y="136" on="0"/>
        <pt x="464" y="136" on="1"/>
        <pt x="536" y="136" on="0"/>
        <pt x="645" y="182" on="0"/>
        <pt x="674" y="212" on="1"/>
        <pt x="722" y="452" on="1"/>
        <pt x="532" y="452" on="1"/>
        <pt x="561" y="597" on="1"/>
        <pt x="951" y="597" on="1"/>
      </contour>
    </TTGlyph>
    <TTGlyph name="Gamma" xMin="53" yMin="0" xMax="1089" yMax="1456">
      <contour>
        <pt x="1058" y="1300" on="1"/>
        <pt x="514" y="1300" on="1"/>
        <pt x="254" y="0" on="1"/>
        <pt x="53" y="0" on="1"/>
        <pt x="344" y="1456" on="1"/>
        <pt x="1089" y="1456" on="1"/>
      </contour>
    </TTGlyph>
    <TTGlyph name="Gbreve" xMin="67" yMin="-21" xMax="1168" yMax="1893">
      <component glyphName="G" x="0" y="0" flags="0x204"/>
      <component glyphName="breve" x="290" y="437" flags="0x4"/>
    </TTGlyph>
    <TTGlyph name="Gbreve.smcp" xMin="60" yMin="-17" xMax="1015" yMax="1549">
      <component glyphName="G.smcp" x="0" y="0" flags="0x204"/>
      <component glyphName="breve" x="167" y="93" flags="0x4"/>
    </TTGlyph>
    <TTGlyph name="Gcircumflex" xMin="67" yMin="-21" xMax="1168" yMax="1875">
      <component glyphName="G" x="0" y="0" flags="0x204"/>
      <component glyphName="circumflex" x="219" y="368" flags="0x4"/>
    </TTGlyph>
    <TTGlyph name="Gcircumflex.smcp" xMin="60" yMin="-17" xMax="1015" yMax="1530">
      <component glyphName="G.smcp" x="0" y="0" flags="0x204"/>
      <component glyphName="circumflex" x="96" y="23" flags="0x4"/>
    </TTGlyph>
    <TTGlyph name="Gcommaaccent" xMin="67" yMin="-472" xMax="1168" yMax="1477">
      <component glyphName="G" x="0" y="0" flags="0x204"/>
      <component glyphName="commaaccent" x="289" y="-333" flags="0x4"/>
    </TTGlyph>
    <TTGlyph name="Gcommaaccent.smcp" xMin="60" yMin="-472" xMax="1015" yMax="1181">
      <component glyphName="G.smcp" x="0" y="0" flags="0x204"/>
      <component glyphName="commaaccent" x="231" y="-333" flags="0x4"/>
    </TTGlyph>
    <TTGlyph name="H" xMin="53" yMin="0" xMax="1265" yMax="1456">
      <contour>
        <pt x="974" y="0" on="1"/>
        <pt x="775" y="0" on="1"/>
        <pt x="903" y="642" on="1"/>
        <pt x="382" y="642" on="1"/>
        <pt x="254" y="0" on="1"/>
        <pt x="53" y="0" on="1"/>
        <pt x="344" y="1456" on="1"/>
        <pt x="545" y="1456" on="1"/>
        <pt x="413" y="797" on="1"/>
        <pt x="934" y="797" on="1"/>
        <pt x="1066" y="1456" on="1"/>
        <pt x="1265" y="1456" on="1"/>
      </contour>
    </TTGlyph>
    <TTGlyph name="H.smcp" xMin="41" yMin="0" xMax="1088" yMax="1165">
      <contour>
        <pt x="855" y="0" on="1"/>
        <pt x="653" y="0" on="1"/>
        <pt x="751" y="493" on="1"/>
        <pt x="339" y="493" on="1"/>
        <pt x="241" y="0" on="1"/>
        <pt x="41" y="0" on="1"/>
        <pt x="274" y="1165" on="1"/>
        <pt x="474" y="1165" on="1"/>
        <pt x="370" y="646" on="1"/>
        <pt x="782" y="646" on="1"/>
        <pt x="886" y="1165" on="1"/>
        <pt x="1088" y="1165" on="1"/>
      </contour>
    </TTGlyph>
    <TTGlyph name="Hbar" xMin="52" yMin="0" xMax="1314" yMax="1456">
      <contour>
        <pt x="1204" y="1159" on="1"/>
        <pt x="1314" y="1159" on="1"/>
        <pt x="1287" y="1026" on="1"/>
        <pt x="1178" y="1026" on="1"/>
        <pt x="973" y="0" on="1"/>
        <pt x="774" y="0" on="1"/>
        <pt x="902" y="642" on="1"/>
        <pt x="381" y="642" on="1"/>
        <pt x="253" y="0" on="1"/>
        <pt x="52" y="0" on="1"/>
        <pt x="257" y="1026" on="1"/>
        <pt x="152" y="1026" on="1"/>
        <pt x="179" y="1159" on="1"/>
        <pt x="283" y="1159" on="1"/>
        <pt x="343" y="1456" on="1"/>
        <pt x="544" y="1456" on="1"/>
        <pt x="484" y="1159" on="1"/>
        <pt x="1005" y="1159" on="1"/>
        <pt x="1065" y="1456" on="1"/>
        <pt x="1264" y="1456" on="1"/>
      </contour>
      <contour>
        <pt x="412" y="797" on="1"/>
        <pt x="933" y="797" on="1"/>
        <pt x="979" y="1026" on="1"/>
        <pt x="458" y="1026" on="1"/>
      </contour>
    </TTGlyph>
    <TTGlyph name="Hcircumflex" xMin="53" yMin="0" xMax="1265" yMax="1854">
      <component glyphName="H" x="0" y="0" flags="0x204"/>
      <component glyphName="circumflex" x="254" y="347" flags="0x4"/>
    </TTGlyph>
    <TTGlyph name="Hcircumflex.smcp" xMin="41" yMin="0" xMax="1088" yMax="1530">
      <component glyphName="H.smcp" x="0" y="0" flags="0x204"/>
      <component glyphName="circumflex" x="110" y="23" flags="0x4"/>
    </TTGlyph>
    <TTGlyph name="I" xMin="65" yMin="0" xMax="556" yMax="1456">
      <contour>
        <pt x="265" y="0" on="1"/>
        <pt x="65" y="0" on="1"/>
        <pt x="356" y="1456" on="1"/>
        <pt x="556" y="1456" on="1"/>
      </contour>
    </TTGlyph>
    <TTGlyph name="I.smcp" xMin="41" yMin="0" xMax="474" yMax="1165">
      <contour>
        <pt x="241" y="0" on="1"/>
        <pt x="41" y="0" on="1"/>
        <pt x="274" y="1165" on="1"/>
        <pt x="474" y="1165" on="1"/>
      </contour>
    </TTGlyph>
    <TTGlyph name="IJ" xMin="65" yMin="-21" xMax="1529" yMax="1456">
      <component glyphName="I" x="0" y="0" flags="0x4"/>
      <component glyphName="J" x="502" y="0" flags="0x4"/>
    </TTGlyph>
    <TTGlyph name="Iacute" xMin="65" yMin="0" xMax="807" yMax="1824">
      <component glyphName="I" x="0" y="0" flags="0x204"/>
      <component glyphName="acute" x="142" y="346" flags="0x4"/>
    </TTGlyph>
    <TTGlyph name="Iacute.smcp" xMin="41" yMin="0" xMax="718" yMax="1501">
      <component glyphName="I.smcp" x="0" y="0" flags="0x204"/>
      <component glyphName="acute" x="53" y="23" flags="0x4"/>
    </TTGlyph>
    <TTGlyph name="Ibreve" xMin="65" yMin="0" xMax="799" yMax="1872">
      <component glyphName="I" x="0" y="0" flags="0x204"/>
      <component glyphName="breve" x="-17" y="416" flags="0x4"/>
    </TTGlyph>
    <TTGlyph name="Ibreve.smcp" xMin="41" yMin="0" xMax="710" yMax="1549">
      <component glyphName="I.smcp" x="0" y="0" flags="0x204"/>
      <component glyphName="breve" x="-106" y="93" flags="0x4"/>
    </TTGlyph>
    <TTGlyph name="Icircumflex" xMin="65" yMin="0" xMax="768" yMax="1854">
      <component glyphName="I" x="0" y="0" flags="0x204"/>
      <component glyphName="circumflex" x="-88" y="347" flags="0x4"/>
    </TTGlyph>
    <TTGlyph name="Icircumflex.smcp" xMin="41" yMin="0" xMax="679" yMax="1530">
      <component glyphName="I.smcp" x="0" y="0" flags="0x204"/>
      <component glyphName="circumflex" x="-177" y="23" flags="0x4"/>
    </TTGlyph>
    <TTGlyph name="Idieresis" xMin="65" yMin="0" xMax="826" yMax="1802">
      <component glyphName="I" x="0" y="0" flags="0x204"/>
      <component glyphName="dieresis" x="-99" y="346" flags="0x4"/>
    </TTGlyph>
    <TTGlyph name="Idieresis.smcp" xMin="41" yMin="0" xMax="737" yMax="1479">
      <component glyphName="I.smcp" x="0" y="0" flags="0x204"/>
      <component glyphName="dieresis" x="-188" y="23" flags="0x4"/>
    </TTGlyph>
    <TTGlyph name="Idotaccent" xMin="65" yMin="0" xMax="633" yMax="1816">
      <component glyphName="I" x="0" y="0" flags="0x204"/>
      <component glyphName="dotaccent" x="77" y="357" flags="0x4"/>
    </TTGlyph>
    <TTGlyph name="Idotaccent.smcp" xMin="41" yMin="0" xMax="546" yMax="1493">
      <component glyphName="I.smcp" x="0" y="0" flags="0x204"/>
      <component glyphName="dotaccent" x="-10" y="34" flags="0x4"/>
    </TTGlyph>
    <TTGlyph name="Igrave" xMin="65" yMin="0" xMax="579" yMax="1827">
      <component glyphName="I" x="0" y="0" flags="0x204"/>
      <component glyphName="grave" x="-11" y="350" flags="0x4"/>
    </TTGlyph>
    <TTGlyph name="Igrave.smcp" xMin="41" yMin="0" xMax="490" yMax="1500">
      <component glyphName="I.smcp" x="0" y="0" flags="0x204"/>
      <component glyphName="grave" x="-100" y="23" flags="0x4"/>
    </TTGlyph>
    <TTGlyph name="Imacron" xMin="65" yMin="0" xMax="825" yMax="1784">
      <component glyphName="I" x="0" y="0" flags="0x204"/>
      <component glyphName="macron" x="-74" y="328" flags="0x4"/>
    </TTGlyph>
    <TTGlyph name="Imacron.smcp" xMin="41" yMin="0" xMax="736" yMax="1461">
      <component glyphName="I.smcp" x="0" y="0" flags="0x204"/>
      <component glyphName="macron" x="-163" y="5" flags="0x4"/>
    </TTGlyph>
    <TTGlyph name="Iogonek" xMin="-97" yMin="-413" xMax="556" yMax="1456">
      <component glyphName="I" x="0" y="0" flags="0x204"/>
      <component glyphName="ogonek" x="-26" y="0" flags="0x4"/>
    </TTGlyph>
    <TTGlyph name="Iogonek.smcp" xMin="-121" yMin="-413" xMax="474" yMax="1165">
      <component glyphName="I.smcp" x="0" y="0" flags="0x204"/>
      <component glyphName="ogonek" x="-50" y="0" flags="0x4"/>
    </TTGlyph>
    <TTGlyph name="Iota" xMin="65" yMin="0" xMax="556" yMax="1456">
      <component glyphName="I" x="0" y="0" flags="0x204"/>
    </TTGlyph>
    <TTGlyph name="Iotadieresis" xMin="65" yMin="0" xMax="826" yMax="1802">
      <component glyphName="I" x="0" y="0" flags="0x204"/>
      <component glyphName="dieresis" x="-99" y="346" flags="0x4"/>
    </TTGlyph>
    <TTGlyph name="Iotatonos" xMin="165" yMin="0" xMax="656" yMax="1633">
      <component glyphName="I" x="100" y="0" flags="0x4"/>
      <component glyphName="tonos" x="-186" y="0" flags="0x4"/>
    </TTGlyph>
    <TTGlyph name="Itilde" xMin="65" yMin="0" xMax="817" yMax="1869">
      <component glyphName="I" x="0" y="0" flags="0x204"/>
      <component glyphName="tilde" x="-48" y="354" flags="0x4"/>
    </TTGlyph>
    <TTGlyph name="Itilde.smcp" xMin="41" yMin="0" xMax="728" yMax="1545">
      <component glyphName="I.smcp" x="0" y="0" flags="0x204"/>
      <component glyphName="tilde" x="-137" y="30" flags="0x4"/>
    </TTGlyph>
    <TTGlyph name="J" xMin="13" yMin="-21" xMax="1027" yMax="1456">
      <contour>
        <pt x="827" y="1456" on="1"/>
        <pt x="1027" y="1456" on="1"/>
        <pt x="819" y="417" on="1"/>
        <pt x="776" y="202" on="0"/>
        <pt x="525" y="-21" on="0"/>
        <pt x="356" y="-21" on="1"/>
        <pt x="189" y="-21" on="0"/>
        <pt x="13" y="200" on="0"/>
        <pt x="56" y="408" on="1"/>
        <pt x="257" y="408" on="1"/>
        <pt x="227" y="261" on="0"/>
        <pt x="299" y="133" on="0"/>
        <pt x="387" y="133" on="1"/>
        <pt x="458" y="133" on="0"/>
        <pt x="593" y="289" on="0"/>
        <pt x="619" y="417" on="1"/>
      </contour>
    </TTGlyph>
    <TTGlyph name="J.smcp" xMin="-3" yMin="-17" xMax="894" yMax="1165">
      <contour>
        <pt x="695" y="1165" on="1"/>
        <pt x="894" y="1165" on="1"/>
        <pt x="733" y="359" on="1"/>
        <pt x="695" y="175" on="0"/>
        <pt x="470" y="-17" on="0"/>
        <pt x="316" y="-17" on="1"/>
        <pt x="161" y="-17" on="0"/>
        <pt x="-3" y="167" on="0"/>
        <pt x="34" y="337" on="1"/>
        <pt x="37" y="342" on="1"/>
        <pt x="231" y="342" on="1"/>
        <pt x="209" y="232" on="0"/>
        <pt x="273" y="135" on="0"/>
        <pt x="346" y="135" on="1"/>
        <pt x="404" y="135" on="0"/>
        <pt x="513" y="259" on="0"/>
        <pt x="534" y="359" on="1"/>
      </contour>
    </TTGlyph>
    <TTGlyph name="Jcircumflex" xMin="13" yMin="-21" xMax="1224" yMax="1840">
      <component glyphName="J" x="0" y="0" flags="0x204"/>
      <component glyphName="circumflex" x="368" y="333" flags="0x4"/>
    </TTGlyph>
    <TTGlyph name="Jcircumflex.smcp" xMin="-3" yMin="-17" xMax="1091" yMax="1530">
      <component glyphName="J.smcp" x="0" y="0" flags="0x204"/>
      <component glyphName="circumflex" x="235" y="23" flags="0x4"/>
    </TTGlyph>
    <TTGlyph name="K" xMin="41" yMin="0" xMax="1215" yMax="1456">
      <contour>
        <pt x="479" y="654" on="1"/>
        <pt x="372" y="654" on="1"/>
        <pt x="242" y="0" on="1"/>
        <pt x="41" y="0" on="1"/>
        <pt x="332" y="1456" on="1"/>
        <pt x="533" y="1456" on="1"/>
        <pt x="406" y="824" on="1"/>
        <pt x="522" y="824" on="1"/>
        <pt x="955" y="1456" on="1"/>
        <pt x="1215" y="1456" on="1"/>
        <pt x="655" y="732" on="1"/>
        <pt x="939" y="0" on="1"/>
        <pt x="709" y="0" on="1"/>
      </contour>
    </TTGlyph>
    <TTGlyph name="K.smcp" xMin="41" yMin="0" xMax="1039" yMax="1165">
      <contour>
        <pt x="420" y="498" on="1"/>
        <pt x="340" y="498" on="1"/>
        <pt x="241" y="0" on="1"/>
        <pt x="41" y="0" on="1"/>
        <pt x="274" y="1165" on="1"/>
        <pt x="474" y="1165" on="1"/>
        <pt x="374" y="665" on="1"/>
        <pt x="443" y="665" on="1"/>
        <pt x="794" y="1165" on="1"/>
        <pt x="1036" y="1165" on="1"/>
        <pt x="1039" y="1160" on="1"/>
        <pt x="601" y="624" on="1"/>
        <pt x="831" y="0" on="1"/>
        <pt x="575" y="0" on="1"/>
      </contour>
    </TTGlyph>
    <TTGlyph name="Kappa" xMin="41" yMin="0" xMax="1215" yMax="1456">
      <component glyphName="K" x="0" y="0" flags="0x4"/>
    </TTGlyph>
    <TTGlyph name="Kcommaaccent" xMin="41" yMin="-472" xMax="1215" yMax="1456">
      <component glyphName="K" x="0" y="0" flags="0x4"/>
      <component glyphName="commaaccent" x="259" y="-333" flags="0x4"/>
    </TTGlyph>
    <TTGlyph name="Kcommaaccent.smcp" xMin="41" yMin="-472" xMax="1039" yMax="1165">
      <component glyphName="K.smcp" x="0" y="0" flags="0x204"/>
      <component glyphName="commaaccent" x="171" y="-333" flags="0x4"/>
    </TTGlyph>
    <TTGlyph name="L" xMin="53" yMin="0" xMax="823" yMax="1456">
      <contour>
        <pt x="285" y="154" on="1"/>
        <pt x="823" y="154" on="1"/>
        <pt x="792" y="0" on="1"/>
        <pt x="53" y="0" on="1"/>
        <pt x="344" y="1456" on="1"/>
        <pt x="545" y="1456" on="1"/>
      </contour>
    </TTGlyph>
    <TTGlyph name="L.smcp" xMin="41" yMin="0" xMax="676" yMax="1165">
      <contour>
        <pt x="271" y="152" on="1"/>
        <pt x="676" y="152" on="1"/>
        <pt x="646" y="0" on="1"/>
        <pt x="41" y="0" on="1"/>
        <pt x="274" y="1165" on="1"/>
        <pt x="474" y="1165" on="1"/>
      </contour>
    </TTGlyph>
    <TTGlyph name="Lacute" xMin="53" yMin="0" xMax="823" yMax="1824">
      <component glyphName="L" x="0" y="0" flags="0x204"/>
      <component glyphName="acute" x="120" y="346" flags="0x4"/>
    </TTGlyph>
    <TTGlyph name="Lacute.smcp" xMin="41" yMin="0" xMax="712" yMax="1501">
      <component glyphName="L.smcp" x="0" y="0" flags="0x204"/>
      <component glyphName="acute" x="47" y="23" flags="0x4"/>
    </TTGlyph>
    <TTGlyph name="Lambda" xMin="-45" yMin="0" xMax="973" yMax="1456">
      <contour>
        <pt x="703" y="1180" on="1"/>
        <pt x="697" y="1181" on="1"/>
        <pt x="162" y="0" on="1"/>
        <pt x="-45" y="0" on="1"/>
        <pt x="657" y="1456" on="1"/>
        <pt x="853" y="1456" on="1"/>
        <pt x="973" y="0" on="1"/>
        <pt x="766" y="0" on="1"/>
      </contour>
    </TTGlyph>
    <TTGlyph name="Lcaron" xMin="53" yMin="0" xMax="893" yMax="1456">
      <component glyphName="L" x="0" y="0" flags="0x204"/>
      <component glyphName="commaaccent" x="666" y="1232" flags="0x4"/>
    </TTGlyph>
    <TTGlyph name="Lcaron.smcp" xMin="41" yMin="0" xMax="746" yMax="1165">
      <component glyphName="L.smcp" x="0" y="0" flags="0x204"/>
      <component glyphName="commaaccent" x="519" y="941" flags="0x4"/>
    </TTGlyph>
    <TTGlyph name="Lcommaaccent" xMin="53" yMin="-472" xMax="823" yMax="1456">
      <component glyphName="L" x="0" y="0" flags="0x204"/>
      <component glyphName="commaaccent" x="241" y="-333" flags="0x4"/>
    </TTGlyph>
    <TTGlyph name="Lcommaaccent.smcp" xMin="41" yMin="-472" xMax="676" yMax="1165">
      <component glyphName="L.smcp" x="0" y="0" flags="0x204"/>
      <component glyphName="commaaccent" x="134" y="-333" flags="0x4"/>
    </TTGlyph>
    <TTGlyph name="Ldot" xMin="53" yMin="0" xMax="823" yMax="1456">
      <component glyphName="L" x="0" y="0" flags="0x204"/>
      <component glyphName="dotaccent" x="241" y="-574" flags="0x4"/>
    </TTGlyph>
    <TTGlyph name="Ldot.smcp" xMin="41" yMin="0" xMax="679" yMax="1165">
      <component glyphName="L.smcp" x="0" y="0" flags="0x204"/>
      <component glyphName="dotaccent" x="123" y="-734" flags="0x4"/>
    </TTGlyph>
    <TTGlyph name="Lslash" xMin="42" yMin="0" xMax="812" yMax="1456">
      <contour>
        <pt x="413" y="854" on="1"/>
        <pt x="636" y="931" on="1"/>
        <pt x="606" y="780" on="1"/>
        <pt x="383" y="703" on="1"/>
        <pt x="274" y="154" on="1"/>
        <pt x="812" y="154" on="1"/>
        <pt x="781" y="0" on="1"/>
        <pt x="42" y="0" on="1"/>
        <pt x="167" y="628" on="1"/>
        <pt x="67" y="593" on="1"/>
        <pt x="97" y="744" on="1"/>
        <pt x="197" y="779" on="1"/>
        <pt x="333" y="1456" on="1"/>
        <pt x="534" y="1456" on="1"/>
      </contour>
    </TTGlyph>
    <TTGlyph name="M" xMin="48" yMin="0" xMax="1495" yMax="1456">
      <contour>
        <pt x="597" y="1456" on="1"/>
        <pt x="676" y="270" on="1"/>
        <pt x="682" y="269" on="1"/>
        <pt x="1236" y="1456" on="1"/>
        <pt x="1495" y="1456" on="1"/>
        <pt x="1204" y="0" on="1"/>
        <pt x="1005" y="0" on="1"/>
        <pt x="1117" y="559" on="1"/>
        <pt x="1243" y="1100" on="1"/>
        <pt x="1237" y="1102" on="1"/>
        <pt x="691" y="0" on="1"/>
        <pt x="559" y="0" on="1"/>
        <pt x="454" y="1099" on="1"/>
        <pt x="448" y="1099" on="1"/>
        <pt x="359" y="559" on="1"/>
        <pt x="247" y="0" on="1"/>
        <pt x="48" y="0" on="1"/>
        <pt x="339" y="1456" on="1"/>
      </contour>
    </TTGlyph>
    <TTGlyph name="M.smcp" xMin="41" yMin="0" xMax="1284" yMax="1165">
      <contour>
        <pt x="592" y="251" on="1"/>
        <pt x="598" y="250" on="1"/>
        <pt x="1032" y="1165" on="1"/>
        <pt x="1284" y="1165" on="1"/>
        <pt x="1051" y="0" on="1"/>
        <pt x="850" y="0" on="1"/>
        <pt x="999" y="745" on="1"/>
        <pt x="993" y="747" on="1"/>
        <pt x="613" y="0" on="1"/>
        <pt x="478" y="0" on="1"/>
        <pt x="397" y="749" on="1"/>
        <pt x="391" y="750" on="1"/>
        <pt x="241" y="0" on="1"/>
        <pt x="41" y="0" on="1"/>
        <pt x="274" y="1165" on="1"/>
        <pt x="526" y="1165" on="1"/>
      </contour>
    </TTGlyph>
    <TTGlyph name="Mu" xMin="48" yMin="0" xMax="1495" yMax="1456">
      <component glyphName="M" x="0" y="0" flags="0x204"/>
    </TTGlyph>
    <TTGlyph name="N" xMin="53" yMin="0" xMax="1265" yMax="1456">
      <contour>
        <pt x="974" y="0" on="1"/>
        <pt x="774" y="0" on="1"/>
        <pt x="473" y="1069" on="1"/>
        <pt x="467" y="1068" on="1"/>
        <pt x="254" y="0" on="1"/>
        <pt x="53" y="0" on="1"/>
        <pt x="344" y="1456" on="1"/>
        <pt x="545" y="1456" on="1"/>
        <pt x="847" y="391" on="1"/>
        <pt x="853" y="392" on="1"/>
        <pt x="1065" y="1456" on="1"/>
        <pt x="1265" y="1456" on="1"/>
      </contour>
    </TTGlyph>
    <TTGlyph name="N.smcp" xMin="41" yMin="0" xMax="1095" yMax="1165">
      <contour>
        <pt x="862" y="0" on="1"/>
        <pt x="661" y="0" on="1"/>
        <pt x="405" y="791" on="1"/>
        <pt x="399" y="790" on="1"/>
        <pt x="241" y="0" on="1"/>
        <pt x="41" y="0" on="1"/>
        <pt x="274" y="1165" on="1"/>
        <pt x="474" y="1165" on="1"/>
        <pt x="729" y="374" on="1"/>
        <pt x="735" y="375" on="1"/>
        <pt x="894" y="1165" on="1"/>
        <pt x="1095" y="1165" on="1"/>
      </contour>
    </TTGlyph>
    <TTGlyph name="Nacute" xMin="53" yMin="0" xMax="1265" yMax="1824">
      <component glyphName="N" x="0" y="0" flags="0x204"/>
      <component glyphName="acute" x="490" y="346" flags="0x4"/>
    </TTGlyph>
    <TTGlyph name="Nacute.smcp" xMin="41" yMin="0" xMax="1095" yMax="1501">
      <component glyphName="N.smcp" x="0" y="0" flags="0x204"/>
      <component glyphName="acute" x="350" y="23" flags="0x4"/>
    </TTGlyph>
    <TTGlyph name="Ncaron" xMin="53" yMin="0" xMax="1265" yMax="1859">
      <component glyphName="N" x="0" y="0" flags="0x204"/>
      <component glyphName="caron" x="278" y="350" flags="0x4"/>
    </TTGlyph>
    <TTGlyph name="Ncaron.smcp" xMin="41" yMin="0" xMax="1095" yMax="1532">
      <component glyphName="N.smcp" x="0" y="0" flags="0x204"/>
      <component glyphName="caron" x="138" y="23" flags="0x4"/>
    </TTGlyph>
    <TTGlyph name="Ncommaaccent" xMin="53" yMin="-472" xMax="1265" yMax="1456">
      <component glyphName="N" x="0" y="0" flags="0x204"/>
      <component glyphName="commaaccent" x="329" y="-333" flags="0x4"/>
    </TTGlyph>
    <TTGlyph name="Ncommaaccent.smcp" xMin="41" yMin="-472" xMax="1095" yMax="1165">
      <component glyphName="N.smcp" x="0" y="0" flags="0x204"/>
      <component glyphName="commaaccent" x="253" y="-333" flags="0x4"/>
    </TTGlyph>
    <TTGlyph name="Ntilde" xMin="53" yMin="0" xMax="1265" yMax="1869">
      <component glyphName="N" x="0" y="0" flags="0x204"/>
      <component glyphName="tilde" x="298" y="354" flags="0x4"/>
    </TTGlyph>
    <TTGlyph name="Ntilde.smcp" xMin="41" yMin="0" xMax="1095" yMax="1545">
      <component glyphName="N.smcp" x="0" y="0" flags="0x204"/>
      <component glyphName="tilde" x="158" y="30" flags="0x4"/>
    </TTGlyph>
    <TTGlyph name="Nu" xMin="53" yMin="0" xMax="1265" yMax="1456">
      <component glyphName="N" x="0" y="0" flags="0x204"/>
    </TTGlyph>
    <TTGlyph name="O" xMin="78" yMin="-21" xMax="1193" yMax="1477">
      <contour>
        <pt x="1091" y="596" on="1"/>
        <pt x="1032" y="303" on="0"/>
        <pt x="724" y="-21" on="0"/>
        <pt x="506" y="-21" on="1"/>
        <pt x="305" y="-21" on="0"/>
        <pt x="78" y="342" on="0"/>
        <pt x="131" y="607" on="1"/>
        <pt x="182" y="859" on="1"/>
        <pt x="240" y="1152" on="0"/>
        <pt x="538" y="1477" on="0"/>
        <pt x="752" y="1477" on="1"/>
        <pt x="957" y="1477" on="0"/>
        <pt x="1193" y="1111" on="0"/>
        <pt x="1141" y="847" on="1"/>
      </contour>
      <contour>
        <pt x="942" y="849" on="1"/>
        <pt x="984" y="1063" on="0"/>
        <pt x="859" y="1317" on="0"/>
        <pt x="720" y="1317" on="1"/>
        <pt x="603" y="1317" on="0"/>
        <pt x="423" y="1066" on="0"/>
        <pt x="382" y="861" on="1"/>
        <pt x="331" y="607" on="1"/>
        <pt x="288" y="390" on="0"/>
        <pt x="404" y="137" on="0"/>
        <pt x="537" y="137" on="1"/>
        <pt x="659" y="137" on="0"/>
        <pt x="849" y="389" on="0"/>
        <pt x="891" y="596" on="1"/>
      </contour>
    </TTGlyph>
    <TTGlyph name="O.smcp" xMin="59" yMin="-17" xMax="1015" yMax="1181">
      <contour>
        <pt x="925" y="461" on="1"/>
        <pt x="879" y="232" on="0"/>
        <pt x="607" y="-17" on="0"/>
        <pt x="420" y="-17" on="1"/>
        <pt x="248" y="-17" on="0"/>
        <pt x="59" y="250" on="0"/>
        <pt x="101" y="461" on="1"/>
        <pt x="150" y="704" on="1"/>
        <pt x="195" y="931" on="0"/>
        <pt x="470" y="1181" on="0"/>
        <pt x="657" y="1181" on="1"/>
        <pt x="828" y="1181" on="0"/>
        <pt x="1015" y="913" on="0"/>
        <pt x="974" y="704" on="1"/>
      </contour>
      <contour>
        <pt x="775" y="705" on="1"/>
        <pt x="806" y="864" on="0"/>
        <pt x="727" y="1027" on="0"/>
        <pt x="626" y="1027" on="1"/>
        <pt x="532" y="1027" on="0"/>
        <pt x="379" y="852" on="0"/>
        <pt x="350" y="705" on="1"/>
        <pt x="301" y="461" on="1"/>
        <pt x="268" y="298" on="0"/>
        <pt x="346" y="135" on="0"/>
        <pt x="450" y="135" on="1"/>
        <pt x="543" y="135" on="0"/>
        <pt x="696" y="311" on="0"/>
        <pt x="726" y="461" on="1"/>
      </contour>
    </TTGlyph>
    <TTGlyph name="OE" xMin="72" yMin="-21" xMax="1730" yMax="1477">
      <contour>
        <pt x="1445" y="0" on="1"/>
        <pt x="714" y="0" on="1"/>
        <pt x="638" y="-10" on="0"/>
        <pt x="530" y="-21" on="0"/>
        <pt x="477" y="-21" on="1"/>
        <pt x="280" y="-21" on="0"/>
        <pt x="72" y="316" on="0"/>
        <pt x="124" y="576" on="1"/>
        <pt x="185" y="880" on="1"/>
        <pt x="241" y="1162" on="0"/>
        <pt x="560" y="1477" on="0"/>
        <pt x="775" y="1477" on="1"/>
        <pt x="826" y="1477" on="0"/>
        <pt x="945" y="1465" on="0"/>
        <pt x="1005" y="1456" on="1"/>
        <pt x="1730" y="1456" on="1"/>
        <pt x="1699" y="1300" on="1"/>
        <pt x="1112" y="1300" on="1"/>
        <pt x="1018" y="831" on="1"/>
        <pt x="1529" y="831" on="1"/>
        <pt x="1498" y="676" on="1"/>
        <pt x="987" y="676" on="1"/>
        <pt x="883" y="154" on="1"/>
        <pt x="1476" y="154" on="1"/>
      </contour>
      <contour>
        <pt x="508" y="134" on="1"/>
        <pt x="550" y="134" on="0"/>
        <pt x="638" y="140" on="0"/>
        <pt x="680" y="147" on="1"/>
        <pt x="912" y="1308" on="1"/>
        <pt x="872" y="1314" on="0"/>
        <pt x="787" y="1322" on="0"/>
        <pt x="744" y="1322" on="1"/>
        <pt x="625" y="1322" on="0"/>
        <pt x="426" y="1088" on="0"/>
        <pt x="385" y="882" on="1"/>
        <pt x="324" y="576" on="1"/>
        <pt x="279" y="353" on="0"/>
        <pt x="379" y="134" on="0"/>
      </contour>
    </TTGlyph>
    <TTGlyph name="Oacute" xMin="78" yMin="-21" xMax="1193" yMax="1845">
      <component glyphName="O" x="0" y="0" flags="0x4"/>
      <component glyphName="acute" x="454" y="367" flags="0x4"/>
    </TTGlyph>
    <TTGlyph name="Oacute.smcp" xMin="59" yMin="-17" xMax="1015" yMax="1501">
      <component glyphName="O.smcp" x="0" y="0" flags="0x204"/>
      <component glyphName="acute" x="325" y="23" flags="0x4"/>
    </TTGlyph>
    <TTGlyph name="Obreve" xMin="78" yMin="-21" xMax="1193" yMax="1893">
      <component glyphName="O" x="0" y="0" flags="0x4"/>
      <component glyphName="breve" x="293" y="437" flags="0x4"/>
    </TTGlyph>
    <TTGlyph name="Obreve.smcp" xMin="59" yMin="-17" xMax="1015" yMax="1549">
      <component glyphName="O.smcp" x="0" y="0" flags="0x204"/>
      <component glyphName="breve" x="164" y="93" flags="0x4"/>
    </TTGlyph>
    <TTGlyph name="Ocircumflex" xMin="78" yMin="-21" xMax="1193" yMax="1875">
      <component glyphName="O" x="0" y="0" flags="0x4"/>
      <component glyphName="circumflex" x="222" y="368" flags="0x4"/>
    </TTGlyph>
    <TTGlyph name="Ocircumflex.smcp" xMin="59" yMin="-17" xMax="1015" yMax="1530">
      <component glyphName="O.smcp" x="0" y="0" flags="0x204"/>
      <component glyphName="circumflex" x="93" y="23" flags="0x4"/>
    </TTGlyph>
    <TTGlyph name="Odieresis" xMin="78" yMin="-21" xMax="1193" yMax="1823">
      <component glyphName="O" x="0" y="0" flags="0x4"/>
      <component glyphName="dieresis" x="211" y="367" flags="0x4"/>
    </TTGlyph>
    <TTGlyph name="Odieresis.smcp" xMin="59" yMin="-17" xMax="1015" yMax="1479">
      <component glyphName="O.smcp" x="0" y="0" flags="0x204"/>
      <component glyphName="dieresis" x="82" y="23" flags="0x4"/>
    </TTGlyph>
    <TTGlyph name="Ograve" xMin="78" yMin="-21" xMax="1193" yMax="1848">
      <component glyphName="O" x="0" y="0" flags="0x4"/>
      <component glyphName="grave" x="299" y="371" flags="0x4"/>
    </TTGlyph>
    <TTGlyph name="Ograve.smcp" xMin="59" yMin="-17" xMax="1015" yMax="1500">
      <component glyphName="O.smcp" x="0" y="0" flags="0x204"/>
      <component glyphName="grave" x="170" y="23" flags="0x4"/>
    </TTGlyph>
    <TTGlyph name="Ohorn" xMin="60" yMin="-21" xMax="1504" yMax="1631">
      <contour>
        <pt x="1044" y="527" on="1"/>
        <pt x="988" y="251" on="0"/>
        <pt x="683" y="-21" on="0"/>
        <pt x="464" y="-21" on="1"/>
        <pt x="266" y="-21" on="0"/>
        <pt x="60" y="273" on="0"/>
        <pt x="111" y="527" on="1"/>
        <pt x="191" y="927" on="1"/>
        <pt x="246" y="1202" on="0"/>
        <pt x="547" y="1477" on="0"/>
        <pt x="763" y="1477" on="1"/>
        <pt x="870" y="1477" on="0"/>
        <pt x="1038" y="1386" on="0"/>
        <pt x="1086" y="1301" on="1"/>
        <pt x="1176" y="1323" on="0"/>
        <pt x="1308" y="1495" on="0"/>
        <pt x="1336" y="1631" on="1"/>
        <pt x="1504" y="1631" on="1"/>
        <pt x="1463" y="1429" on="0"/>
        <pt x="1275" y="1196" on="0"/>
        <pt x="1133" y="1161" on="1"/>
        <pt x="1141" y="1109" on="0"/>
        <pt x="1136" y="992" on="0"/>
        <pt x="1124" y="927" on="1"/>
      </contour>
      <contour>
        <pt x="925" y="930" on="1"/>
        <pt x="965" y="1132" on="0"/>
        <pt x="864" y="1317" on="0"/>
        <pt x="731" y="1317" on="1"/>
        <pt x="612" y="1317" on="0"/>
        <pt x="427" y="1116" on="0"/>
        <pt x="390" y="930" on="1"/>
        <pt x="309" y="527" on="1"/>
        <pt x="268" y="322" on="0"/>
        <pt x="365" y="137" on="0"/>
        <pt x="495" y="137" on="1"/>
        <pt x="617" y="137" on="0"/>
        <pt x="806" y="338" on="0"/>
        <pt x="844" y="527" on="1"/>
      </contour>
    </TTGlyph>
    <TTGlyph name="Ohungarumlaut" xMin="78" yMin="-21" xMax="1279" yMax="1888">
      <component glyphName="O" x="0" y="0" flags="0x4"/>
      <component glyphName="hungarumlaut" x="297" y="370" flags="0x4"/>
    </TTGlyph>
    <TTGlyph name="Ohungarumlaut.smcp" xMin="59" yMin="-17" xMax="1150" yMax="1541">
      <component glyphName="O.smcp" x="0" y="0" flags="0x204"/>
      <component glyphName="hungarumlaut" x="168" y="23" flags="0x4"/>
    </TTGlyph>
    <TTGlyph name="Omacron" xMin="78" yMin="-21" xMax="1193" yMax="1805">
      <component glyphName="O" x="0" y="0" flags="0x4"/>
      <component glyphName="macron" x="236" y="349" flags="0x4"/>
    </TTGlyph>
    <TTGlyph name="Omacron.smcp" xMin="59" yMin="-17" xMax="1015" yMax="1461">
      <component glyphName="O.smcp" x="0" y="0" flags="0x204"/>
      <component glyphName="macron" x="107" y="5" flags="0x4"/>
    </TTGlyph>
    <TTGlyph name="Omega" xMin="26" yMin="0" xMax="1154" yMax="1477">
      <contour>
        <pt x="532" y="56" on="1"/>
        <pt x="552" y="155" on="1"/>
        <pt x="554" y="164" on="1"/>
        <pt x="653" y="199" on="0"/>
        <pt x="812" y="483" on="0"/>
        <pt x="863" y="737" on="1"/>
        <pt x="886" y="848" on="1"/>
        <pt x="932" y="1085" on="0"/>
        <pt x="851" y="1320" on="0"/>
        <pt x="735" y="1320" on="1"/>
        <pt x="629" y="1320" on="0"/>
        <pt x="441" y="1066" on="0"/>
        <pt x="398" y="848" on="1"/>
        <pt x="375" y="737" on="1"/>
        <pt x="320" y="465" on="0"/>
        <pt x="371" y="200" on="0"/>
        <pt x="462" y="164" on="1"/>
        <pt x="460" y="155" on="1"/>
        <pt x="440" y="56" on="1"/>
        <pt x="429" y="0" on="1"/>
        <pt x="26" y="0" on="1"/>
        <pt x="57" y="155" on="1"/>
        <pt x="271" y="155" on="1"/>
        <pt x="187" y="248" on="0"/>
        <pt x="126" y="556" on="0"/>
        <pt x="162" y="737" on="1"/>
        <pt x="184" y="846" on="1"/>
        <pt x="243" y="1144" on="0"/>
        <pt x="558" y="1477" on="0"/>
        <pt x="766" y="1477" on="1"/>
        <pt x="957" y="1477" on="0"/>
        <pt x="1154" y="1121" on="0"/>
        <pt x="1099" y="846" on="1"/>
        <pt x="1077" y="737" on="1"/>
        <pt x="1039" y="545" on="0"/>
        <pt x="860" y="244" on="0"/>
        <pt x="742" y="155" on="1"/>
        <pt x="955" y="155" on="1"/>
        <pt x="924" y="0" on="1"/>
        <pt x="521" y="0" on="1"/>
      </contour>
    </TTGlyph>
    <TTGlyph name="Omegatonos" xMin="46" yMin="0" xMax="1174" yMax="1633">
      <component glyphName="Omega" x="20" y="0" flags="0x4"/>
      <component glyphName="tonos" x="-160" y="0" flags="0x4"/>
    </TTGlyph>
    <TTGlyph name="Omicron" xMin="78" yMin="-21" xMax="1193" yMax="1477">
      <component glyphName="O" x="0" y="0" flags="0x4"/>
    </TTGlyph>
    <TTGlyph name="Omicrontonos" xMin="98" yMin="-21" xMax="1213" yMax="1633">
      <component glyphName="O" x="20" y="0" flags="0x4"/>
      <component glyphName="tonos" x="-157" y="0" flags="0x4"/>
    </TTGlyph>
    <TTGlyph name="Oslash" xMin="47" yMin="-90" xMax="1249" yMax="1512">
      <contour>
        <pt x="1046" y="527" on="1"/>
        <pt x="990" y="251" on="0"/>
        <pt x="685" y="-21" on="0"/>
        <pt x="466" y="-21" on="1"/>
        <pt x="404" y="-21" on="0"/>
        <pt x="296" y="9" on="0"/>
        <pt x="252" y="39" on="1"/>
        <pt x="165" y="-90" on="1"/>
        <pt x="47" y="-90" on="1"/>
        <pt x="180" y="106" on="1"/>
        <pt x="122" y="178" on="0"/>
        <pt x="85" y="391" on="0"/>
        <pt x="113" y="527" on="1"/>
        <pt x="193" y="927" on="1"/>
        <pt x="248" y="1202" on="0"/>
        <pt x="549" y="1477" on="0"/>
        <pt x="765" y="1477" on="1"/>
        <pt x="846" y="1477" on="0"/>
        <pt x="985" y="1423" on="0"/>
        <pt x="1036" y="1372" on="1"/>
        <pt x="1131" y="1512" on="1"/>
        <pt x="1249" y="1512" on="1"/>
        <pt x="1096" y="1286" on="1"/>
        <pt x="1130" y="1215" on="0"/>
        <pt x="1147" y="1034" on="0"/>
        <pt x="1126" y="927" on="1"/>
      </contour>
      <contour>
        <pt x="311" y="527" on="1"/>
        <pt x="295" y="450" on="0"/>
        <pt x="290" y="332" on="0"/>
        <pt x="300" y="295" on="1"/>
        <pt x="306" y="293" on="1"/>
        <pt x="925" y="1207" on="1"/>
        <pt x="902" y="1263" on="0"/>
        <pt x="805" y="1317" on="0"/>
        <pt x="733" y="1317" on="1"/>
        <pt x="614" y="1317" on="0"/>
        <pt x="429" y="1116" on="0"/>
        <pt x="392" y="930" on="1"/>
      </contour>
      <contour>
        <pt x="927" y="930" on="1"/>
        <pt x="934" y="965" on="0"/>
        <pt x="942" y="1027" on="0"/>
        <pt x="942" y="1048" on="1"/>
        <pt x="937" y="1050" on="1"/>
        <pt x="351" y="185" on="1"/>
        <pt x="376" y="160" on="0"/>
        <pt x="449" y="137" on="0"/>
        <pt x="497" y="137" on="1"/>
        <pt x="619" y="137" on="0"/>
        <pt x="808" y="338" on="0"/>
        <pt x="846" y="527" on="1"/>
      </contour>
    </TTGlyph>
    <TTGlyph name="Oslashacute" xMin="47" yMin="-90" xMax="1249" yMax="1886">
      <component glyphName="Oslash" x="0" y="0" flags="0x204"/>
      <component glyphName="acute" x="488" y="408" flags="0x4"/>
    </TTGlyph>
    <TTGlyph name="Otilde" xMin="78" yMin="-21" xMax="1193" yMax="1890">
      <component glyphName="O" x="0" y="0" flags="0x4"/>
      <component glyphName="tilde" x="262" y="375" flags="0x4"/>
    </TTGlyph>
    <TTGlyph name="Otilde.smcp" xMin="59" yMin="-17" xMax="1015" yMax="1545">
      <component glyphName="O.smcp" x="0" y="0" flags="0x204"/>
      <component glyphName="tilde" x="133" y="30" flags="0x4"/>
    </TTGlyph>
    <TTGlyph name="P" xMin="53" yMin="0" xMax="1171" yMax="1456">
      <contour>
        <pt x="369" y="574" on="1"/>
        <pt x="254" y="0" on="1"/>
        <pt x="53" y="0" on="1"/>
        <pt x="344" y="1456" on="1"/>
        <pt x="804" y="1456" on="1"/>
        <pt x="986" y="1456" on="0"/>
        <pt x="1171" y="1208" on="0"/>
        <pt x="1133" y="1015" on="1"/>
        <pt x="1091" y="803" on="0"/>
        <pt x="827" y="574" on="0"/>
        <pt x="628" y="574" on="1"/>
      </contour>
      <contour>
        <pt x="400" y="730" on="1"/>
        <pt x="659" y="730" on="1"/>
        <pt x="758" y="730" on="0"/>
        <pt x="908" y="895" on="0"/>
        <pt x="932" y="1013" on="1"/>
        <pt x="958" y="1144" on="0"/>
        <pt x="882" y="1300" on="0"/>
        <pt x="773" y="1300" on="1"/>
        <pt x="514" y="1300" on="1"/>
      </contour>
    </TTGlyph>
    <TTGlyph name="P.smcp" xMin="41" yMin="0" xMax="998" yMax="1165">
      <contour>
        <pt x="322" y="409" on="1"/>
        <pt x="241" y="0" on="1"/>
        <pt x="41" y="0" on="1"/>
        <pt x="274" y="1165" on="1"/>
        <pt x="666" y="1165" on="1"/>
        <pt x="826" y="1165" on="0"/>
        <pt x="998" y="948" on="0"/>
        <pt x="966" y="786" on="1"/>
        <pt x="930" y="608" on="0"/>
        <pt x="690" y="409" on="0"/>
        <pt x="515" y="409" on="1"/>
      </contour>
      <contour>
        <pt x="353" y="564" on="1"/>
        <pt x="546" y="564" on="1"/>
        <pt x="624" y="564" on="0"/>
        <pt x="746" y="695" on="0"/>
        <pt x="765" y="784" on="1"/>
        <pt x="784" y="884" on="0"/>
        <pt x="720" y="1011" on="0"/>
        <pt x="635" y="1011" on="1"/>
        <pt x="443" y="1011" on="1"/>
      </contour>
    </TTGlyph>
    <TTGlyph name="Phi" xMin="87" yMin="0" xMax="1289" yMax="1456">
      <contour>
        <pt x="898" y="1273" on="1"/>
        <pt x="1082" y="1269" on="0"/>
        <pt x="1289" y="958" on="0"/>
        <pt x="1243" y="726" on="1"/>
        <pt x="1192" y="473" on="0"/>
        <pt x="881" y="182" on="0"/>
        <pt x="680" y="179" on="1"/>
        <pt x="644" y="0" on="1"/>
        <pt x="445" y="0" on="1"/>
        <pt x="481" y="179" on="1"/>
        <pt x="295" y="181" on="0"/>
        <pt x="87" y="490" on="0"/>
        <pt x="134" y="724" on="1"/>
        <pt x="184" y="977" on="0"/>
        <pt x="496" y="1270" on="0"/>
        <pt x="699" y="1273" on="1"/>
        <pt x="736" y="1456" on="1"/>
        <pt x="935" y="1456" on="1"/>
      </contour>
      <contour>
        <pt x="331" y="724" on="1"/>
        <pt x="293" y="536" on="0"/>
        <pt x="387" y="341" on="0"/>
        <pt x="509" y="347" on="1"/>
        <pt x="515" y="347" on="1"/>
        <pt x="665" y="1102" on="1"/>
        <pt x="659" y="1105" on="1"/>
        <pt x="550" y="1108" on="0"/>
        <pt x="365" y="896" on="0"/>
      </contour>
      <contour>
        <pt x="1045" y="726" on="1"/>
        <pt x="1082" y="912" on="0"/>
        <pt x="989" y="1108" on="0"/>
        <pt x="871" y="1105" on="1"/>
        <pt x="865" y="1104" on="1"/>
        <pt x="714" y="350" on="1"/>
        <pt x="720" y="347" on="1"/>
        <pt x="826" y="343" on="0"/>
        <pt x="1010" y="554" on="0"/>
      </contour>
    </TTGlyph>
    <TTGlyph name="Pi" xMin="53" yMin="0" xMax="1266" yMax="1456">
      <contour>
        <pt x="975" y="0" on="1"/>
        <pt x="776" y="0" on="1"/>
        <pt x="1036" y="1300" on="1"/>
        <pt x="514" y="1300" on="1"/>
        <pt x="254" y="0" on="1"/>
        <pt x="53" y="0" on="1"/>
        <pt x="344" y="1456" on="1"/>
        <pt x="1266" y="1456" on="1"/>
      </contour>
    </TTGlyph>
    <TTGlyph name="Psi" xMin="116" yMin="0" xMax="1323" yMax="1456">
      <contour>
        <pt x="709" y="512" on="1"/>
        <pt x="714" y="510" on="1"/>
        <pt x="815" y="528" on="0"/>
        <pt x="978" y="737" on="0"/>
        <pt x="1012" y="905" on="1"/>
        <pt x="1122" y="1456" on="1"/>
        <pt x="1323" y="1456" on="1"/>
        <pt x="1213" y="905" on="1"/>
        <pt x="1160" y="642" on="0"/>
        <pt x="876" y="360" on="0"/>
        <pt x="674" y="339" on="1"/>
        <pt x="606" y="0" on="1"/>
        <pt x="407" y="0" on="1"/>
        <pt x="475" y="339" on="1"/>
        <pt x="296" y="364" on="0"/>
        <pt x="116" y="663" on="0"/>
        <pt x="165" y="905" on="1"/>
        <pt x="275" y="1456" on="1"/>
        <pt x="475" y="1456" on="1"/>
        <pt x="365" y="905" on="1"/>
        <pt x="328" y="723" on="0"/>
        <pt x="404" y="523" on="0"/>
        <pt x="502" y="508" on="1"/>
        <pt x="508" y="508" on="1"/>
        <pt x="698" y="1456" on="1"/>
        <pt x="897" y="1456" on="1"/>
      </contour>
    </TTGlyph>
    <TTGlyph name="Q" xMin="80" yMin="-221" xMax="1195" yMax="1477">
      <contour>
        <pt x="1093" y="596" on="1"/>
        <pt x="1060" y="435" on="0"/>
        <pt x="936" y="189" on="0"/>
        <pt x="849" y="110" on="1"/>
        <pt x="1003" y="-110" on="1"/>
        <pt x="851" y="-221" on="1"/>
        <pt x="691" y="12" on="1"/>
        <pt x="648" y="-4" on="0"/>
        <pt x="556" y="-21" on="0"/>
        <pt x="508" y="-21" on="1"/>
        <pt x="307" y="-21" on="0"/>
        <pt x="80" y="342" on="0"/>
        <pt x="133" y="607" on="1"/>
        <pt x="184" y="859" on="1"/>
        <pt x="242" y="1152" on="0"/>
        <pt x="540" y="1477" on="0"/>
        <pt x="754" y="1477" on="1"/>
        <pt x="959" y="1477" on="0"/>
        <pt x="1195" y="1111" on="0"/>
        <pt x="1143" y="847" on="1"/>
      </contour>
      <contour>
        <pt x="944" y="849" on="1"/>
        <pt x="986" y="1063" on="0"/>
        <pt x="861" y="1317" on="0"/>
        <pt x="722" y="1317" on="1"/>
        <pt x="605" y="1317" on="0"/>
        <pt x="425" y="1066" on="0"/>
        <pt x="384" y="861" on="1"/>
        <pt x="333" y="607" on="1"/>
        <pt x="290" y="390" on="0"/>
        <pt x="406" y="137" on="0"/>
        <pt x="539" y="137" on="1"/>
        <pt x="661" y="137" on="0"/>
        <pt x="851" y="389" on="0"/>
        <pt x="893" y="596" on="1"/>
      </contour>
    </TTGlyph>
    <TTGlyph name="Q.smcp" xMin="60" yMin="-121" xMax="1017" yMax="1181">
      <contour>
        <pt x="927" y="461" on="1"/>
        <pt x="906" y="357" on="0"/>
        <pt x="825" y="190" on="0"/>
        <pt x="769" y="131" on="1"/>
        <pt x="868" y="-15" on="1"/>
        <pt x="716" y="-121" on="1"/>
        <pt x="617" y="23" on="1"/>
        <pt x="571" y="3" on="0"/>
        <pt x="472" y="-17" on="0"/>
        <pt x="421" y="-17" on="1"/>
        <pt x="249" y="-17" on="0"/>
        <pt x="60" y="250" on="0"/>
        <pt x="102" y="461" on="1"/>
        <pt x="151" y="704" on="1"/>
        <pt x="196" y="931" on="0"/>
        <pt x="471" y="1181" on="0"/>
        <pt x="659" y="1181" on="1"/>
        <pt x="830" y="1181" on="0"/>
        <pt x="1017" y="913" on="0"/>
        <pt x="976" y="704" on="1"/>
      </contour>
      <contour>
        <pt x="777" y="705" on="1"/>
        <pt x="808" y="864" on="0"/>
        <pt x="729" y="1027" on="0"/>
        <pt x="628" y="1027" on="1"/>
        <pt x="534" y="1027" on="0"/>
        <pt x="380" y="852" on="0"/>
        <pt x="351" y="705" on="1"/>
        <pt x="302" y="461" on="1"/>
        <pt x="269" y="298" on="0"/>
        <pt x="348" y="135" on="0"/>
        <pt x="451" y="135" on="1"/>
        <pt x="544" y="135" on="0"/>
        <pt x="698" y="311" on="0"/>
        <pt x="728" y="461" on="1"/>
      </contour>
    </TTGlyph>
    <TTGlyph name="R" xMin="53" yMin="0" xMax="1149" yMax="1455">
      <contour>
        <pt x="379" y="627" on="1"/>
        <pt x="254" y="0" on="1"/>
        <pt x="53" y="0" on="1"/>
        <pt x="344" y="1455" on="1"/>
        <pt x="779" y="1455" on="1"/>
        <pt x="964" y="1455" on="0"/>
        <pt x="1149" y="1237" on="0"/>
        <pt x="1110" y="1041" on="1"/>
        <pt x="1085" y="918" on="0"/>
        <pt x="952" y="751" on="0"/>
        <pt x="846" y="706" on="1"/>
        <pt x="939" y="667" on="0"/>
        <pt x="1001" y="490" on="0"/>
        <pt x="977" y="365" on="1"/>
        <pt x="952" y="238" on="1"/>
        <pt x="937" y="168" on="0"/>
        <pt x="940" y="56" on="0"/>
        <pt x="966" y="23" on="1"/>
        <pt x="961" y="0" on="1"/>
        <pt x="754" y="0" on="1"/>
        <pt x="728" y="33" on="0"/>
        <pt x="736" y="165" on="0"/>
        <pt x="752" y="240" on="1"/>
        <pt x="777" y="363" on="1"/>
        <pt x="802" y="492" on="0"/>
        <pt x="727" y="627" on="0"/>
        <pt x="636" y="627" on="1"/>
      </contour>
      <contour>
        <pt x="410" y="782" on="1"/>
        <pt x="634" y="782" on="1"/>
        <pt x="741" y="782" on="0"/>
        <pt x="884" y="918" on="0"/>
        <pt x="908" y="1037" on="1"/>
        <pt x="935" y="1169" on="0"/>
        <pt x="857" y="1300" on="0"/>
        <pt x="748" y="1300" on="1"/>
        <pt x="514" y="1300" on="1"/>
      </contour>
    </TTGlyph>
    <TTGlyph name="R.smcp" xMin="41" yMin="0" xMax="972" yMax="1165">
      <contour>
        <pt x="335" y="472" on="1"/>
        <pt x="241" y="0" on="1"/>
        <pt x="41" y="0" on="1"/>
        <pt x="274" y="1165" on="1"/>
        <pt x="646" y="1165" on="1"/>
        <pt x="805" y="1165" on="0"/>
        <pt x="972" y="982" on="0"/>
        <pt x="941" y="824" on="1"/>
        <pt x="920" y="724" on="0"/>
        <pt x="810" y="592" on="0"/>
        <pt x="720" y="554" on="1"/>
        <pt x="800" y="523" on="0"/>
        <pt x="858" y="379" on="0"/>
        <pt x="838" y="279" on="1"/>
        <pt x="816" y="172" on="1"/>
        <pt x="807" y="125" on="0"/>
        <pt x="799" y="38" on="0"/>
        <pt x="806" y="17" on="1"/>
        <pt x="803" y="0" on="1"/>
        <pt x="597" y="0" on="1"/>
        <pt x="592" y="21" on="0"/>
        <pt x="608" y="127" on="0"/>
        <pt x="618" y="173" on="1"/>
        <pt x="639" y="278" on="1"/>
        <pt x="658" y="376" on="0"/>
        <pt x="598" y="472" on="0"/>
        <pt x="522" y="472" on="1"/>
      </contour>
      <contour>
        <pt x="366" y="626" on="1"/>
        <pt x="538" y="626" on="1"/>
        <pt x="614" y="626" on="0"/>
        <pt x="720" y="726" on="0"/>
        <pt x="738" y="815" on="1"/>
        <pt x="757" y="911" on="0"/>
        <pt x="697" y="1011" on="0"/>
        <pt x="615" y="1011" on="1"/>
        <pt x="443" y="1011" on="1"/>
      </contour>
    </TTGlyph>
    <TTGlyph name="Racute" xMin="53" yMin="0" xMax="1149" yMax="1824">
      <component glyphName="R" x="0" y="0" flags="0x204"/>
      <component glyphName="acute" x="409" y="346" flags="0x4"/>
    </TTGlyph>
    <TTGlyph name="Racute.smcp" xMin="41" yMin="0" xMax="972" yMax="1501">
      <component glyphName="R.smcp" x="0" y="0" flags="0x204"/>
      <component glyphName="acute" x="267" y="23" flags="0x4"/>
    </TTGlyph>
    <TTGlyph name="Rcaron" xMin="53" yMin="0" xMax="1149" yMax="1859">
      <component glyphName="R" x="0" y="0" flags="0x204"/>
      <component glyphName="caron" x="197" y="350" flags="0x4"/>
    </TTGlyph>
    <TTGlyph name="Rcaron.smcp" xMin="41" yMin="0" xMax="972" yMax="1532">
      <component glyphName="R.smcp" x="0" y="0" flags="0x204"/>
      <component glyphName="caron" x="55" y="23" flags="0x4"/>
    </TTGlyph>
    <TTGlyph name="Rcommaaccent" xMin="53" yMin="-472" xMax="1149" yMax="1455">
      <component glyphName="R" x="0" y="0" flags="0x204"/>
      <component glyphName="commaaccent" x="248" y="-333" flags="0x4"/>
    </TTGlyph>
    <TTGlyph name="Rcommaaccent.smcp" xMin="41" yMin="-472" xMax="972" yMax="1165">
      <component glyphName="R.smcp" x="0" y="0" flags="0x204"/>
      <component glyphName="commaaccent" x="170" y="-333" flags="0x4"/>
    </TTGlyph>
    <TTGlyph name="Rho" xMin="53" yMin="0" xMax="1171" yMax="1456">
      <component glyphName="P" x="0" y="0" flags="0x204"/>
    </TTGlyph>
    <TTGlyph name="S" xMin="57" yMin="-21" xMax="1090" yMax="1477">
      <contour>
        <pt x="756" y="333" on="1"/>
        <pt x="779" y="450" on="0"/>
        <pt x="691" y="580" on="0"/>
        <pt x="557" y="647" on="1"/>
        <pt x="367" y="723" on="0"/>
        <pt x="203" y="932" on="0"/>
        <pt x="241" y="1120" on="1"/>
        <pt x="275" y="1293" on="0"/>
        <pt x="523" y="1477" on="0"/>
        <pt x="696" y="1477" on="1"/>
        <pt x="885" y="1477" on="0"/>
        <pt x="1090" y="1237" on="0"/>
        <pt x="1049" y="1029" on="1"/>
        <pt x="848" y="1029" on="1"/>
        <pt x="874" y="1163" on="0"/>
        <pt x="774" y="1321" on="0"/>
        <pt x="665" y="1321" on="1"/>
        <pt x="588" y="1321" on="0"/>
        <pt x="459" y="1204" on="0"/>
        <pt x="443" y="1122" on="1"/>
        <pt x="419" y="1002" on="0"/>
        <pt x="504" y="880" on="0"/>
        <pt x="653" y="809" on="1"/>
        <pt x="838" y="732" on="0"/>
        <pt x="993" y="522" on="0"/>
        <pt x="956" y="335" on="1"/>
        <pt x="920" y="157" on="0"/>
        <pt x="671" y="-21" on="0"/>
        <pt x="492" y="-21" on="1"/>
        <pt x="305" y="-21" on="0"/>
        <pt x="57" y="194" on="0"/>
        <pt x="107" y="420" on="1"/>
        <pt x="109" y="425" on="1"/>
        <pt x="302" y="425" on="1"/>
        <pt x="269" y="261" on="0"/>
        <pt x="408" y="133" on="0"/>
        <pt x="523" y="133" on="1"/>
        <pt x="600" y="133" on="0"/>
        <pt x="739" y="248" on="0"/>
      </contour>
    </TTGlyph>
    <TTGlyph name="S.smcp" xMin="22" yMin="-17" xMax="957" yMax="1181">
      <contour>
        <pt x="635" y="304" on="1"/>
        <pt x="650" y="380" on="0"/>
        <pt x="582" y="464" on="0"/>
        <pt x="473" y="506" on="1"/>
        <pt x="301" y="559" on="0"/>
        <pt x="166" y="709" on="0"/>
        <pt x="197" y="858" on="1"/>
        <pt x="227" y="1012" on="0"/>
        <pt x="455" y="1181" on="0"/>
        <pt x="628" y="1181" on="1"/>
        <pt x="790" y="1181" on="0"/>
        <pt x="957" y="989" on="0"/>
        <pt x="921" y="825" on="1"/>
        <pt x="918" y="820" on="1"/>
        <pt x="725" y="820" on="1"/>
        <pt x="744" y="920" on="0"/>
        <pt x="683" y="1028" on="0"/>
        <pt x="598" y="1028" on="1"/>
        <pt x="518" y="1028" on="0"/>
        <pt x="411" y="931" on="0"/>
        <pt x="397" y="860" on="1"/>
        <pt x="381" y="780" on="0"/>
        <pt x="443" y="701" on="0"/>
        <pt x="565" y="658" on="1"/>
        <pt x="729" y="605" on="0"/>
        <pt x="863" y="452" on="0"/>
        <pt x="834" y="305" on="1"/>
        <pt x="801" y="145" on="0"/>
        <pt x="564" y="-17" on="0"/>
        <pt x="384" y="-17" on="1"/>
        <pt x="216" y="-17" on="0"/>
        <pt x="22" y="162" on="0"/>
        <pt x="63" y="339" on="1"/>
        <pt x="65" y="344" on="1"/>
        <pt x="259" y="344" on="1"/>
        <pt x="237" y="233" on="0"/>
        <pt x="327" y="135" on="0"/>
        <pt x="414" y="135" on="1"/>
        <pt x="500" y="135" on="0"/>
        <pt x="620" y="231" on="0"/>
      </contour>
    </TTGlyph>
    <TTGlyph name="Sacute" xMin="57" yMin="-21" xMax="1090" yMax="1845">
      <component glyphName="S" x="0" y="0" flags="0x4"/>
      <component glyphName="acute" x="414" y="367" flags="0x4"/>
    </TTGlyph>
    <TTGlyph name="Sacute.smcp" xMin="22" yMin="-17" xMax="957" yMax="1501">
      <component glyphName="S.smcp" x="0" y="0" flags="0x204"/>
      <component glyphName="acute" x="291" y="23" flags="0x4"/>
    </TTGlyph>
    <TTGlyph name="Scaron" xMin="57" yMin="-21" xMax="1092" yMax="1880">
      <component glyphName="S" x="0" y="0" flags="0x4"/>
      <component glyphName="caron" x="202" y="371" flags="0x4"/>
    </TTGlyph>
    <TTGlyph name="Scaron.smcp" xMin="22" yMin="-17" xMax="969" yMax="1532">
      <component glyphName="S.smcp" x="0" y="0" flags="0x204"/>
      <component glyphName="caron" x="79" y="23" flags="0x4"/>
    </TTGlyph>
    <TTGlyph name="Scedilla" xMin="57" yMin="-448" xMax="1090" yMax="1477">
      <component glyphName="S" x="0" y="0" flags="0x4"/>
      <component glyphName="cedilla" x="328" y="-8" flags="0x4"/>
    </TTGlyph>
    <TTGlyph name="Scedilla.smcp" xMin="22" yMin="-445" xMax="957" yMax="1181">
      <component glyphName="S.smcp" x="0" y="0" flags="0x204"/>
      <component glyphName="cedilla" x="265" y="-5" flags="0x4"/>
    </TTGlyph>
    <TTGlyph name="Scircumflex" xMin="57" yMin="-21" xMax="1090" yMax="1875">
      <component glyphName="S" x="0" y="0" flags="0x4"/>
      <component glyphName="circumflex" x="182" y="368" flags="0x4"/>
    </TTGlyph>
    <TTGlyph name="Scircumflex.smcp" xMin="22" yMin="-17" xMax="957" yMax="1530">
      <component glyphName="S.smcp" x="0" y="0" flags="0x204"/>
      <component glyphName="circumflex" x="59" y="23" flags="0x4"/>
    </TTGlyph>
    <TTGlyph name="Sigma" xMin="-15" yMin="0" xMax="1076" yMax="1456">
      <contour>
        <pt x="714" y="729" on="1"/>
        <pt x="253" y="159" on="1"/>
        <pt x="256" y="154" on="1"/>
        <pt x="846" y="154" on="1"/>
        <pt x="815" y="0" on="1"/>
        <pt x="-15" y="0" on="1"/>
        <pt x="10" y="126" on="1"/>
        <pt x="503" y="741" on="1"/>
        <pt x="251" y="1329" on="1"/>
        <pt x="276" y="1456" on="1"/>
        <pt x="1076" y="1456" on="1"/>
        <pt x="1045" y="1301" on="1"/>
        <pt x="483" y="1301" on="1"/>
        <pt x="719" y="756" on="1"/>
      </contour>
    </TTGlyph>
    <TTGlyph name="T" xMin="213" yMin="0" xMax="1148" yMax="1456">
      <contour>
        <pt x="1117" y="1300" on="1"/>
        <pt x="764" y="1300" on="1"/>
        <pt x="504" y="0" on="1"/>
        <pt x="304" y="0" on="1"/>
        <pt x="564" y="1300" on="1"/>
        <pt x="213" y="1300" on="1"/>
        <pt x="244" y="1456" on="1"/>
        <pt x="1148" y="1456" on="1"/>
      </contour>
    </TTGlyph>
    <TTGlyph name="T.smcp" xMin="177" yMin="0" xMax="971" yMax="1165">
      <contour>
        <pt x="940" y="1011" on="1"/>
        <pt x="656" y="1011" on="1"/>
        <pt x="454" y="0" on="1"/>
        <pt x="254" y="0" on="1"/>
        <pt x="456" y="1011" on="1"/>
        <pt x="177" y="1011" on="1"/>
        <pt x="208" y="1165" on="1"/>
        <pt x="971" y="1165" on="1"/>
      </contour>
    </TTGlyph>
    <TTGlyph name="Tau" xMin="213" yMin="0" xMax="1148" yMax="1456">
      <component glyphName="T" x="0" y="0" flags="0x204"/>
    </TTGlyph>
    <TTGlyph name="Tbar" xMin="213" yMin="0" xMax="1148" yMax="1456">
      <contour>
        <pt x="833" y="805" on="1"/>
        <pt x="665" y="805" on="1"/>
        <pt x="504" y="0" on="1"/>
        <pt x="304" y="0" on="1"/>
        <pt x="465" y="805" on="1"/>
        <pt x="302" y="805" on="1"/>
        <pt x="330" y="946" on="1"/>
        <pt x="493" y="946" on="1"/>
        <pt x="564" y="1300" on="1"/>
        <pt x="213" y="1300" on="1"/>
        <pt x="244" y="1456" on="1"/>
        <pt x="1148" y="1456" on="1"/>
        <pt x="1117" y="1300" on="1"/>
        <pt x="764" y="1300" on="1"/>
        <pt x="693" y="946" on="1"/>
        <pt x="861" y="946" on="1"/>
      </contour>
    </TTGlyph>
    <TTGlyph name="Tbar.smcp" xMin="177" yMin="0" xMax="971" yMax="1165">
      <component glyphName="T.smcp" x="0" y="0" flags="0x204"/>
      <component glyphName="crossbar" x="30" y="-31" flags="0x4"/>
    </TTGlyph>
    <TTGlyph name="Tcaron" xMin="213" yMin="0" xMax="1148" yMax="1856">
      <component glyphName="T" x="0" y="0" flags="0x204"/>
      <component glyphName="caron" x="172" y="347" flags="0x4"/>
    </TTGlyph>
    <TTGlyph name="Tcaron.smcp" xMin="177" yMin="0" xMax="971" yMax="1532">
      <component glyphName="T.smcp" x="0" y="0" flags="0x204"/>
      <component glyphName="caron" x="50" y="23" flags="0x4"/>
    </TTGlyph>
    <TTGlyph name="Tcommaaccent.smcp" xMin="129" yMin="-472" xMax="971" yMax="1165">
      <component glyphName="T.smcp" x="0" y="0" flags="0x204"/>
      <component glyphName="commaaccent" x="166" y="-333" flags="0x4"/>
    </TTGlyph>
    <TTGlyph name="Theta" xMin="77" yMin="-21" xMax="1192" yMax="1477">
      <contour>
        <pt x="805" y="652" on="1"/>
        <pt x="452" y="652" on="1"/>
        <pt x="483" y="806" on="1"/>
        <pt x="836" y="806" on="1"/>
      </contour>
      <contour>
        <pt x="1090" y="596" on="1"/>
        <pt x="1031" y="303" on="0"/>
        <pt x="723" y="-21" on="0"/>
        <pt x="505" y="-21" on="1"/>
        <pt x="304" y="-21" on="0"/>
        <pt x="77" y="342" on="0"/>
        <pt x="130" y="607" on="1"/>
        <pt x="181" y="859" on="1"/>
        <pt x="239" y="1152" on="0"/>
        <pt x="537" y="1477" on="0"/>
        <pt x="751" y="1477" on="1"/>
        <pt x="956" y="1477" on="0"/>
        <pt x="1192" y="1111" on="0"/>
        <pt x="1140" y="847" on="1"/>
      </contour>
      <contour>
        <pt x="941" y="849" on="1"/>
        <pt x="983" y="1063" on="0"/>
        <pt x="858" y="1317" on="0"/>
        <pt x="719" y="1317" on="1"/>
        <pt x="602" y="1317" on="0"/>
        <pt x="422" y="1066" on="0"/>
        <pt x="381" y="861" on="1"/>
        <pt x="330" y="607" on="1"/>
        <pt x="287" y="390" on="0"/>
        <pt x="403" y="137" on="0"/>
        <pt x="536" y="137" on="1"/>
        <pt x="658" y="137" on="0"/>
        <pt x="848" y="389" on="0"/>
        <pt x="890" y="596" on="1"/>
      </contour>
    </TTGlyph>
    <TTGlyph name="Thorn" xMin="45" yMin="0" xMax="1042" yMax="1456">
      <contour>
        <pt x="537" y="1456" on="1"/>
        <pt x="479" y="1166" on="1"/>
        <pt x="675" y="1166" on="1"/>
        <pt x="858" y="1166" on="0"/>
        <pt x="1042" y="923" on="0"/>
        <pt x="1006" y="738" on="1"/>
        <pt x="965" y="534" on="0"/>
        <pt x="704" y="309" on="0"/>
        <pt x="504" y="309" on="1"/>
        <pt x="308" y="309" on="1"/>
        <pt x="246" y="0" on="1"/>
        <pt x="45" y="0" on="1"/>
        <pt x="336" y="1456" on="1"/>
      </contour>
      <contour>
        <pt x="448" y="1011" on="1"/>
        <pt x="339" y="464" on="1"/>
        <pt x="535" y="464" on="1"/>
        <pt x="635" y="464" on="0"/>
        <pt x="782" y="625" on="0"/>
        <pt x="804" y="736" on="1"/>
        <pt x="828" y="857" on="0"/>
        <pt x="753" y="1011" on="0"/>
        <pt x="644" y="1011" on="1"/>
      </contour>
    </TTGlyph>
    <TTGlyph name="U" xMin="74" yMin="-21" xMax="1209" yMax="1456">
      <contour>
        <pt x="1209" y="1456" on="1"/>
        <pt x="1007" y="447" on="1"/>
        <pt x="959" y="206" on="0"/>
        <pt x="671" y="-21" on="0"/>
        <pt x="466" y="-21" on="1"/>
        <pt x="281" y="-21" on="0"/>
        <pt x="74" y="224" on="0"/>
        <pt x="119" y="447" on="1"/>
        <pt x="321" y="1456" on="1"/>
        <pt x="519" y="1456" on="1"/>
        <pt x="317" y="447" on="1"/>
        <pt x="284" y="281" on="0"/>
        <pt x="383" y="133" on="0"/>
        <pt x="497" y="133" on="1"/>
        <pt x="606" y="133" on="0"/>
        <pt x="775" y="288" on="0"/>
        <pt x="807" y="447" on="1"/>
        <pt x="1009" y="1456" on="1"/>
      </contour>
    </TTGlyph>
    <TTGlyph name="U.smcp" xMin="69" yMin="-17" xMax="1086" yMax="1165">
      <contour>
        <pt x="1086" y="1165" on="1"/>
        <pt x="933" y="401" on="1"/>
        <pt x="891" y="191" on="0"/>
        <pt x="627" y="-17" on="0"/>
        <pt x="438" y="-17" on="1"/>
        <pt x="264" y="-17" on="0"/>
        <pt x="69" y="208" on="0"/>
        <pt x="108" y="401" on="1"/>
        <pt x="261" y="1165" on="1"/>
        <pt x="461" y="1165" on="1"/>
        <pt x="308" y="401" on="1"/>
        <pt x="281" y="267" on="0"/>
        <pt x="367" y="135" on="0"/>
        <pt x="468" y="135" on="1"/>
        <pt x="560" y="135" on="0"/>
        <pt x="708" y="277" on="0"/>
        <pt x="733" y="401" on="1"/>
        <pt x="886" y="1165" on="1"/>
      </contour>
    </TTGlyph>
    <TTGlyph name="Uacute" xMin="74" yMin="-21" xMax="1209" yMax="1824">
      <component glyphName="U" x="0" y="0" flags="0x204"/>
      <component glyphName="acute" x="450" y="346" flags="0x4"/>
    </TTGlyph>
    <TTGlyph name="Uacute.smcp" xMin="69" yMin="-17" xMax="1086" yMax="1501">
      <component glyphName="U.smcp" x="0" y="0" flags="0x204"/>
      <component glyphName="acute" x="344" y="23" flags="0x4"/>
    </TTGlyph>
    <TTGlyph name="Ubreve" xMin="74" yMin="-21" xMax="1209" yMax="1872">
      <component glyphName="U" x="0" y="0" flags="0x204"/>
      <component glyphName="breve" x="289" y="416" flags="0x4"/>
    </TTGlyph>
    <TTGlyph name="Ubreve.smcp" xMin="69" yMin="-17" xMax="1086" yMax="1549">
      <component glyphName="U.smcp" x="0" y="0" flags="0x204"/>
      <component glyphName="breve" x="183" y="93" flags="0x4"/>
    </TTGlyph>
    <TTGlyph name="Ucircumflex" xMin="74" yMin="-21" xMax="1209" yMax="1854">
      <component glyphName="U" x="0" y="0" flags="0x204"/>
      <component glyphName="circumflex" x="218" y="347" flags="0x4"/>
    </TTGlyph>
    <TTGlyph name="Ucircumflex.smcp" xMin="69" yMin="-17" xMax="1086" yMax="1530">
      <component glyphName="U.smcp" x="0" y="0" flags="0x204"/>
      <component glyphName="circumflex" x="112" y="23" flags="0x4"/>
    </TTGlyph>
    <TTGlyph name="Udieresis" xMin="74" yMin="-21" xMax="1209" yMax="1802">
      <component glyphName="U" x="0" y="0" flags="0x204"/>
      <component glyphName="dieresis" x="207" y="346" flags="0x4"/>
    </TTGlyph>
    <TTGlyph name="Udieresis.smcp" xMin="69" yMin="-17" xMax="1086" yMax="1479">
      <component glyphName="U.smcp" x="0" y="0" flags="0x204"/>
      <component glyphName="dieresis" x="101" y="23" flags="0x4"/>
    </TTGlyph>
    <TTGlyph name="Ugrave" xMin="74" yMin="-21" xMax="1209" yMax="1827">
      <component glyphName="U" x="0" y="0" flags="0x204"/>
      <component glyphName="grave" x="295" y="350" flags="0x4"/>
    </TTGlyph>
    <TTGlyph name="Ugrave.smcp" xMin="69" yMin="-17" xMax="1086" yMax="1500">
      <component glyphName="U.smcp" x="0" y="0" flags="0x204"/>
      <component glyphName="grave" x="189" y="23" flags="0x4"/>
    </TTGlyph>
    <TTGlyph name="Uhorn" xMin="74" yMin="-21" xMax="1569" yMax="1595">
      <contour>
        <pt x="1209" y="1456" on="1"/>
        <pt x="1170" y="1264" on="1"/>
        <pt x="1175" y="1261" on="1"/>
        <pt x="1258" y="1277" on="0"/>
        <pt x="1378" y="1451" on="0"/>
        <pt x="1407" y="1595" on="1"/>
        <pt x="1567" y="1595" on="1"/>
        <pt x="1569" y="1590" on="1"/>
        <pt x="1527" y="1364" on="0"/>
        <pt x="1315" y="1130" on="0"/>
        <pt x="1140" y="1112" on="1"/>
        <pt x="1007" y="447" on="1"/>
        <pt x="959" y="206" on="0"/>
        <pt x="671" y="-21" on="0"/>
        <pt x="466" y="-21" on="1"/>
        <pt x="281" y="-21" on="0"/>
        <pt x="74" y="224" on="0"/>
        <pt x="119" y="447" on="1"/>
        <pt x="321" y="1456" on="1"/>
        <pt x="519" y="1456" on="1"/>
        <pt x="317" y="447" on="1"/>
        <pt x="284" y="281" on="0"/>
        <pt x="383" y="133" on="0"/>
        <pt x="497" y="133" on="1"/>
        <pt x="606" y="133" on="0"/>
        <pt x="775" y="288" on="0"/>
        <pt x="807" y="447" on="1"/>
        <pt x="1009" y="1456" on="1"/>
      </contour>
    </TTGlyph>
    <TTGlyph name="Uhungarumlaut" xMin="74" yMin="-21" xMax="1275" yMax="1867">
      <component glyphName="U" x="0" y="0" flags="0x204"/>
      <component glyphName="hungarumlaut" x="293" y="349" flags="0x4"/>
    </TTGlyph>
    <TTGlyph name="Uhungarumlaut.smcp" xMin="69" yMin="-17" xMax="1169" yMax="1541">
      <component glyphName="U.smcp" x="0" y="0" flags="0x204"/>
      <component glyphName="hungarumlaut" x="187" y="23" flags="0x4"/>
    </TTGlyph>
    <TTGlyph name="Umacron" xMin="74" yMin="-21" xMax="1209" yMax="1784">
      <component glyphName="U" x="0" y="0" flags="0x204"/>
      <component glyphName="macron" x="232" y="328" flags="0x4"/>
    </TTGlyph>
    <TTGlyph name="Umacron.smcp" xMin="69" yMin="-17" xMax="1086" yMax="1461">
      <component glyphName="U.smcp" x="0" y="0" flags="0x204"/>
      <component glyphName="macron" x="126" y="5" flags="0x4"/>
    </TTGlyph>
    <TTGlyph name="Uogonek" xMin="74" yMin="-413" xMax="1209" yMax="1456">
      <component glyphName="U" x="0" y="0" flags="0x204"/>
      <component glyphName="ogonek" x="471" y="0" flags="0x4"/>
    </TTGlyph>
    <TTGlyph name="Uogonek.smcp" xMin="69" yMin="-413" xMax="1086" yMax="1165">
      <component glyphName="U.smcp" x="0" y="0" flags="0x204"/>
      <component glyphName="ogonek" x="442" y="0" flags="0x4"/>
    </TTGlyph>
    <TTGlyph name="Upsilon" xMin="233" yMin="0" xMax="1240" yMax="1456">
      <component glyphName="Y" x="0" y="0" flags="0x204"/>
    </TTGlyph>
    <TTGlyph name="Upsilondieresis" xMin="233" yMin="0" xMax="1240" yMax="1798">
      <component glyphName="Y" x="0" y="0" flags="0x204"/>
      <component glyphName="dieresis" x="182" y="342" flags="0x4"/>
    </TTGlyph>
    <TTGlyph name="Upsilontonos" xMin="77" yMin="0" xMax="1340" yMax="1633">
      <component glyphName="Y" x="100" y="0" flags="0x4"/>
      <component glyphName="tonos" x="-281" y="0" flags="0x4"/>
    </TTGlyph>
    <TTGlyph name="Uring" xMin="74" yMin="-21" xMax="1209" yMax="1918">
      <component glyphName="U" x="0" y="0" flags="0x204"/>
      <component glyphName="ring" x="342" y="423" flags="0x4"/>
    </TTGlyph>
    <TTGlyph name="Uring.smcp" xMin="69" yMin="-17" xMax="1086" yMax="1595">
      <component glyphName="U.smcp" x="0" y="0" flags="0x204"/>
      <component glyphName="ring" x="236" y="100" flags="0x4"/>
    </TTGlyph>
    <TTGlyph name="Utilde" xMin="74" yMin="-21" xMax="1209" yMax="1869">
      <component glyphName="U" x="0" y="0" flags="0x204"/>
      <component glyphName="tilde" x="258" y="354" flags="0x4"/>
    </TTGlyph>
    <TTGlyph name="Utilde.smcp" xMin="69" yMin="-17" xMax="1086" yMax="1545">
      <component glyphName="U.smcp" x="0" y="0" flags="0x204"/>
      <component glyphName="tilde" x="152" y="30" flags="0x4"/>
    </TTGlyph>
    <TTGlyph name="V" xMin="191" yMin="0" xMax="1215" yMax="1456">
      <contour>
        <pt x="500" y="322" on="1"/>
        <pt x="506" y="243" on="1"/>
        <pt x="512" y="242" on="1"/>
        <pt x="543" y="321" on="1"/>
        <pt x="1003" y="1456" on="1"/>
        <pt x="1215" y="1456" on="1"/>
        <pt x="566" y="0" on="1"/>
        <pt x="373" y="0" on="1"/>
        <pt x="191" y="1456" on="1"/>
        <pt x="404" y="1456" on="1"/>
      </contour>
    </TTGlyph>
    <TTGlyph name="V.smcp" xMin="182" yMin="0" xMax="1099" yMax="1165">
      <contour>
        <pt x="446" y="264" on="1"/>
        <pt x="447" y="215" on="1"/>
        <pt x="453" y="214" on="1"/>
        <pt x="473" y="262" on="1"/>
        <pt x="887" y="1165" on="1"/>
        <pt x="1099" y="1165" on="1"/>
        <pt x="511" y="0" on="1"/>
        <pt x="304" y="0" on="1"/>
        <pt x="182" y="1165" on="1"/>
        <pt x="395" y="1165" on="1"/>
      </contour>
    </TTGlyph>
    <TTGlyph name="W" xMin="207" yMin="0" xMax="1600" yMax="1456">
      <contour>
        <pt x="1052" y="432" on="1"/>
        <pt x="1058" y="432" on="1"/>
        <pt x="1404" y="1456" on="1"/>
        <pt x="1600" y="1456" on="1"/>
        <pt x="1089" y="0" on="1"/>
        <pt x="904" y="0" on="1"/>
        <pt x="837" y="1020" on="1"/>
        <pt x="831" y="1021" on="1"/>
        <pt x="435" y="0" on="1"/>
        <pt x="251" y="0" on="1"/>
        <pt x="207" y="1456" on="1"/>
        <pt x="403" y="1456" on="1"/>
        <pt x="423" y="433" on="1"/>
        <pt x="429" y="432" on="1"/>
        <pt x="823" y="1456" on="1"/>
        <pt x="982" y="1456" on="1"/>
      </contour>
    </TTGlyph>
    <TTGlyph name="W.smcp" xMin="196" yMin="0" xMax="1368" yMax="1165">
      <contour>
        <pt x="877" y="399" on="1"/>
        <pt x="883" y="398" on="1"/>
        <pt x="1157" y="1165" on="1"/>
        <pt x="1368" y="1165" on="1"/>
        <pt x="907" y="0" on="1"/>
        <pt x="716" y="0" on="1"/>
        <pt x="703" y="743" on="1"/>
        <pt x="697" y="744" on="1"/>
        <pt x="389" y="0" on="1"/>
        <pt x="196" y="0" on="1"/>
        <pt x="201" y="1165" on="1"/>
        <pt x="413" y="1165" on="1"/>
        <pt x="381" y="397" on="1"/>
        <pt x="387" y="395" on="1"/>
        <pt x="699" y="1165" on="1"/>
        <pt x="872" y="1165" on="1"/>
      </contour>
    </TTGlyph>
    <TTGlyph name="Wacute" xMin="207" yMin="0" xMax="1600" yMax="1824">
      <component glyphName="W" x="0" y="0" flags="0x204"/>
      <component glyphName="acute" x="583" y="346" flags="0x4"/>
    </TTGlyph>
    <TTGlyph name="Wcircumflex" xMin="207" yMin="0" xMax="1600" yMax="1854">
      <component glyphName="W" x="0" y="0" flags="0x204"/>
      <component glyphName="circumflex" x="351" y="347" flags="0x4"/>
    </TTGlyph>
    <TTGlyph name="Wcircumflex.smcp" xMin="196" yMin="0" xMax="1368" yMax="1530">
      <component glyphName="W.smcp" x="0" y="0" flags="0x204"/>
      <component glyphName="circumflex" x="228" y="23" flags="0x4"/>
    </TTGlyph>
    <TTGlyph name="Wdieresis" xMin="207" yMin="0" xMax="1600" yMax="1802">
      <component glyphName="W" x="0" y="0" flags="0x204"/>
      <component glyphName="dieresis" x="340" y="346" flags="0x4"/>
    </TTGlyph>
    <TTGlyph name="Wgrave" xMin="207" yMin="0" xMax="1600" yMax="1827">
      <component glyphName="W" x="0" y="0" flags="0x204"/>
      <component glyphName="grave" x="428" y="350" flags="0x4"/>
    </TTGlyph>
    <TTGlyph name="X" xMin="-19" yMin="0" xMax="1180" yMax="1456">
      <contour>
        <pt x="606" y="889" on="1"/>
        <pt x="612" y="888" on="1"/>
        <pt x="944" y="1456" on="1"/>
        <pt x="1180" y="1456" on="1"/>
        <pt x="706" y="735" on="1"/>
        <pt x="962" y="0" on="1"/>
        <pt x="722" y="0" on="1"/>
        <pt x="566" y="581" on="1"/>
        <pt x="560" y="581" on="1"/>
        <pt x="218" y="0" on="1"/>
        <pt x="-19" y="0" on="1"/>
        <pt x="466" y="735" on="1"/>
        <pt x="223" y="1456" on="1"/>
        <pt x="457" y="1456" on="1"/>
      </contour>
    </TTGlyph>
    <TTGlyph name="X.smcp" xMin="-39" yMin="0" xMax="1046" yMax="1165">
      <contour>
        <pt x="532" y="735" on="1"/>
        <pt x="538" y="734" on="1"/>
        <pt x="813" y="1165" on="1"/>
        <pt x="1046" y="1165" on="1"/>
        <pt x="632" y="588" on="1"/>
        <pt x="820" y="0" on="1"/>
        <pt x="589" y="0" on="1"/>
        <pt x="483" y="441" on="1"/>
        <pt x="477" y="442" on="1"/>
        <pt x="196" y="0" on="1"/>
        <pt x="-39" y="0" on="1"/>
        <pt x="387" y="588" on="1"/>
        <pt x="202" y="1165" on="1"/>
        <pt x="434" y="1165" on="1"/>
      </contour>
    </TTGlyph>
    <TTGlyph name="Xi" xMin="16" yMin="0" xMax="1059" yMax="1456">
      <contour>
        <pt x="47" y="154" on="1"/>
        <pt x="821" y="154" on="1"/>
        <pt x="790" y="0" on="1"/>
        <pt x="16" y="0" on="1"/>
      </contour>
      <contour>
        <pt x="259" y="817" on="1"/>
        <pt x="870" y="817" on="1"/>
        <pt x="840" y="665" on="1"/>
        <pt x="229" y="665" on="1"/>
      </contour>
      <contour>
        <pt x="317" y="1456" on="1"/>
        <pt x="1059" y="1456" on="1"/>
        <pt x="1028" y="1301" on="1"/>
        <pt x="286" y="1301" on="1"/>
      </contour>
    </TTGlyph>
    <TTGlyph name="Y" xMin="233" yMin="0" xMax="1240" yMax="1456">
      <contour>
        <pt x="594" y="762" on="1"/>
        <pt x="600" y="761" on="1"/>
        <pt x="1017" y="1456" on="1"/>
        <pt x="1240" y="1456" on="1"/>
        <pt x="646" y="522" on="1"/>
        <pt x="542" y="0" on="1"/>
        <pt x="343" y="0" on="1"/>
        <pt x="451" y="539" on="1"/>
        <pt x="233" y="1456" on="1"/>
        <pt x="457" y="1456" on="1"/>
      </contour>
    </TTGlyph>
    <TTGlyph name="Y.smcp" xMin="175" yMin="0" xMax="1036" yMax="1165">
      <contour>
        <pt x="496" y="634" on="1"/>
        <pt x="502" y="633" on="1"/>
        <pt x="815" y="1165" on="1"/>
        <pt x="1036" y="1165" on="1"/>
        <pt x="554" y="420" on="1"/>
        <pt x="470" y="0" on="1"/>
        <pt x="269" y="0" on="1"/>
        <pt x="355" y="430" on="1"/>
        <pt x="175" y="1165" on="1"/>
        <pt x="394" y="1165" on="1"/>
      </contour>
    </TTGlyph>
    <TTGlyph name="Yacute" xMin="233" yMin="0" xMax="1240" yMax="1820">
      <component glyphName="Y" x="0" y="0" flags="0x204"/>
      <component glyphName="acute" x="425" y="342" flags="0x4"/>
    </TTGlyph>
    <TTGlyph name="Yacute.smcp" xMin="175" yMin="0" xMax="1036" yMax="1501">
      <component glyphName="Y.smcp" x="0" y="0" flags="0x204"/>
      <component glyphName="acute" x="283" y="23" flags="0x4"/>
    </TTGlyph>
    <TTGlyph name="Ycircumflex" xMin="233" yMin="0" xMax="1240" yMax="1850">
      <component glyphName="Y" x="0" y="0" flags="0x204"/>
      <component glyphName="circumflex" x="193" y="343" flags="0x4"/>
    </TTGlyph>
    <TTGlyph name="Ycircumflex.smcp" xMin="175" yMin="0" xMax="1036" yMax="1530">
      <component glyphName="Y.smcp" x="0" y="0" flags="0x204"/>
      <component glyphName="circumflex" x="51" y="23" flags="0x4"/>
    </TTGlyph>
    <TTGlyph name="Ydieresis" xMin="233" yMin="0" xMax="1240" yMax="1798">
      <component glyphName="Y" x="0" y="0" flags="0x204"/>
      <component glyphName="dieresis" x="182" y="342" flags="0x4"/>
    </TTGlyph>
    <TTGlyph name="Ydieresis.smcp" xMin="175" yMin="0" xMax="1036" yMax="1479">
      <component glyphName="Y.smcp" x="0" y="0" flags="0x204"/>
      <component glyphName="dieresis" x="40" y="23" flags="0x4"/>
    </TTGlyph>
    <TTGlyph name="Ygrave" xMin="233" yMin="0" xMax="1240" yMax="1823">
      <component glyphName="Y" x="0" y="0" flags="0x204"/>
      <component glyphName="grave" x="270" y="346" flags="0x4"/>
    </TTGlyph>
    <TTGlyph name="Z" xMin="18" yMin="0" xMax="1024" yMax="1456">
      <contour>
        <pt x="250" y="154" on="1"/>
        <pt x="833" y="154" on="1"/>
        <pt x="802" y="0" on="1"/>
        <pt x="18" y="0" on="1"/>
        <pt x="20" y="125" on="1"/>
        <pt x="765" y="1301" on="1"/>
        <pt x="250" y="1301" on="1"/>
        <pt x="281" y="1456" on="1"/>
        <pt x="1024" y="1456" on="1"/>
        <pt x="1000" y="1335" on="1"/>
      </contour>
    </TTGlyph>
    <TTGlyph name="Z.smcp" xMin="-13" yMin="0" xMax="961" yMax="1165">
      <contour>
        <pt x="247" y="152" on="1"/>
        <pt x="769" y="152" on="1"/>
        <pt x="739" y="0" on="1"/>
        <pt x="-13" y="0" on="1"/>
        <pt x="8" y="103" on="1"/>
        <pt x="697" y="1011" on="1"/>
        <pt x="215" y="1011" on="1"/>
        <pt x="246" y="1165" on="1"/>
        <pt x="961" y="1165" on="1"/>
        <pt x="941" y="1065" on="1"/>
      </contour>
    </TTGlyph>
    <TTGlyph name="Zacute" xMin="18" yMin="0" xMax="1040" yMax="1824">
      <component glyphName="Z" x="0" y="0" flags="0x4"/>
      <component glyphName="acute" x="375" y="346" flags="0x4"/>
    </TTGlyph>
    <TTGlyph name="Zacute.smcp" xMin="-13" yMin="0" xMax="961" yMax="1501">
      <component glyphName="Z.smcp" x="0" y="0" flags="0x204"/>
      <component glyphName="acute" x="273" y="23" flags="0x4"/>
    </TTGlyph>
    <TTGlyph name="Zcaron" xMin="18" yMin="0" xMax="1053" yMax="1859">
      <component glyphName="Z" x="0" y="0" flags="0x4"/>
      <component glyphName="caron" x="163" y="350" flags="0x4"/>
    </TTGlyph>
    <TTGlyph name="Zcaron.smcp" xMin="-13" yMin="0" xMax="961" yMax="1532">
      <component glyphName="Z.smcp" x="0" y="0" flags="0x204"/>
      <component glyphName="caron" x="61" y="23" flags="0x4"/>
    </TTGlyph>
    <TTGlyph name="Zdotaccent" xMin="18" yMin="0" xMax="1024" yMax="1816">
      <component glyphName="Z" x="0" y="0" flags="0x4"/>
      <component glyphName="dotaccent" x="310" y="357" flags="0x4"/>
    </TTGlyph>
    <TTGlyph name="Zdotaccent.smcp" xMin="-13" yMin="0" xMax="961" yMax="1493">
      <component glyphName="Z.smcp" x="0" y="0" flags="0x204"/>
      <component glyphName="dotaccent" x="208" y="34" flags="0x4"/>
    </TTGlyph>
    <TTGlyph name="Zeta" xMin="18" yMin="0" xMax="1024" yMax="1456">
      <component glyphName="Z" x="0" y="0" flags="0x4"/>
    </TTGlyph>
    <TTGlyph name="a" xMin="30" yMin="-21" xMax="906" yMax="1102">
      <contour>
        <pt x="552" y="0" on="1"/>
        <pt x="550" y="40" on="0"/>
        <pt x="550" y="108" on="0"/>
        <pt x="554" y="141" on="1"/>
        <pt x="497" y="69" on="0"/>
        <pt x="352" y="-21" on="0"/>
        <pt x="275" y="-21" on="1"/>
        <pt x="153" y="-21" on="0"/>
        <pt x="30" y="155" on="0"/>
        <pt x="59" y="297" on="1"/>
        <pt x="92" y="462" on="0"/>
        <pt x="323" y="629" on="0"/>
        <pt x="509" y="629" on="1"/>
        <pt x="649" y="629" on="1"/>
        <pt x="671" y="740" on="1"/>
        <pt x="691" y="845" on="0"/>
        <pt x="634" y="950" on="0"/>
        <pt x="557" y="950" on="1"/>
        <pt x="494" y="950" on="0"/>
        <pt x="388" y="849" on="0"/>
        <pt x="374" y="775" on="1"/>
        <pt x="183" y="776" on="1"/>
        <pt x="181" y="782" on="1"/>
        <pt x="203" y="915" on="0"/>
        <pt x="438" y="1102" on="0"/>
        <pt x="600" y="1102" on="1"/>
        <pt x="744" y="1102" on="0"/>
        <pt x="906" y="910" on="0"/>
        <pt x="872" y="738" on="1"/>
        <pt x="771" y="236" on="1"/>
        <pt x="758" y="170" on="0"/>
        <pt x="750" y="58" on="0"/>
        <pt x="755" y="0" on="1"/>
      </contour>
      <contour>
        <pt x="352" y="135" on="1"/>
        <pt x="413" y="135" on="0"/>
        <pt x="540" y="219" on="0"/>
        <pt x="579" y="281" on="1"/>
        <pt x="623" y="503" on="1"/>
        <pt x="481" y="503" on="1"/>
        <pt x="401" y="503" on="0"/>
        <pt x="277" y="381" on="0"/>
        <pt x="261" y="298" on="1"/>
        <pt x="245" y="220" on="0"/>
        <pt x="291" y="135" on="0"/>
      </contour>
    </TTGlyph>
    <TTGlyph name="aacute" xMin="30" yMin="-21" xMax="948" yMax="1502">
      <component glyphName="a" x="0" y="0" flags="0x204"/>
      <component glyphName="acute" x="283" y="24" flags="0x4"/>
    </TTGlyph>
    <TTGlyph name="abreve" xMin="30" yMin="-21" xMax="938" yMax="1550">
      <component glyphName="a" x="0" y="0" flags="0x204"/>
      <component glyphName="breve" x="122" y="94" flags="0x4"/>
    </TTGlyph>
    <TTGlyph name="acircumflex" xMin="30" yMin="-21" xMax="907" yMax="1532">
      <component glyphName="a" x="0" y="0" flags="0x204"/>
      <component glyphName="circumflex" x="51" y="25" flags="0x4"/>
    </TTGlyph>
    <TTGlyph name="acute" xMin="237" yMin="1212" xMax="665" yMax="1478">
      <contour>
        <pt x="442" y="1478" on="1"/>
        <pt x="663" y="1478" on="1"/>
        <pt x="665" y="1472" on="1"/>
        <pt x="396" y="1212" on="1"/>
        <pt x="237" y="1212" on="1"/>
      </contour>
    </TTGlyph>
    <TTGlyph name="acutecomb" xMin="-411" yMin="1210" xMax="-72" yMax="1535">
      <contour>
        <pt x="-240" y="1535" on="1"/>
        <pt x="-72" y="1535" on="1"/>
        <pt x="-291" y="1210" on="1"/>
        <pt x="-411" y="1210" on="1"/>
      </contour>
    </TTGlyph>
    <TTGlyph name="adieresis" xMin="30" yMin="-21" xMax="965" yMax="1480">
      <component glyphName="a" x="0" y="0" flags="0x204"/>
      <component glyphName="dieresis" x="40" y="24" flags="0x4"/>
    </TTGlyph>
    <TTGlyph name="ae" xMin="0" yMin="-21" xMax="1440" yMax="1102">
      <contour>
        <pt x="933" y="-21" on="1"/>
        <pt x="833" y="-21" on="0"/>
        <pt x="686" y="72" on="0"/>
        <pt x="647" y="157" on="1"/>
        <pt x="585" y="81" on="0"/>
        <pt x="392" y="-21" on="0"/>
        <pt x="271" y="-21" on="1"/>
        <pt x="134" y="-21" on="0"/>
        <pt x="0" y="157" on="0"/>
        <pt x="30" y="304" on="1"/>
        <pt x="63" y="472" on="0"/>
        <pt x="290" y="638" on="0"/>
        <pt x="480" y="638" on="1"/>
        <pt x="643" y="638" on="1"/>
        <pt x="659" y="716" on="1"/>
        <pt x="682" y="832" on="0"/>
        <pt x="633" y="946" on="0"/>
        <pt x="563" y="946" on="1"/>
        <pt x="494" y="946" on="0"/>
        <pt x="381" y="835" on="0"/>
        <pt x="366" y="757" on="1"/>
        <pt x="178" y="773" on="1"/>
        <pt x="177" y="779" on="1"/>
        <pt x="202" y="928" on="0"/>
        <pt x="429" y="1102" on="0"/>
        <pt x="595" y="1102" on="1"/>
        <pt x="675" y="1102" on="0"/>
        <pt x="799" y="1038" on="0"/>
        <pt x="834" y="977" on="1"/>
        <pt x="897" y="1038" on="0"/>
        <pt x="1047" y="1102" on="0"/>
        <pt x="1131" y="1102" on="1"/>
        <pt x="1291" y="1102" on="0"/>
        <pt x="1440" y="840" on="0"/>
        <pt x="1398" y="623" on="1"/>
        <pt x="1373" y="499" on="1"/>
        <pt x="821" y="499" on="1"/>
        <pt x="786" y="325" on="0"/>
        <pt x="858" y="133" on="0"/>
        <pt x="978" y="133" on="1"/>
        <pt x="1052" y="133" on="0"/>
        <pt x="1176" y="188" on="0"/>
        <pt x="1243" y="236" on="1"/>
        <pt x="1275" y="104" on="1"/>
        <pt x="1222" y="57" on="0"/>
        <pt x="1041" y="-21" on="0"/>
      </contour>
      <contour>
        <pt x="340" y="127" on="1"/>
        <pt x="390" y="127" on="0"/>
        <pt x="525" y="207" on="0"/>
        <pt x="568" y="258" on="1"/>
        <pt x="616" y="501" on="1"/>
        <pt x="454" y="501" on="1"/>
        <pt x="372" y="501" on="0"/>
        <pt x="246" y="382" on="0"/>
        <pt x="230" y="300" on="1"/>
        <pt x="213" y="215" on="0"/>
        <pt x="266" y="127" on="0"/>
      </contour>
      <contour>
        <pt x="1100" y="946" on="1"/>
        <pt x="1021" y="946" on="0"/>
        <pt x="891" y="777" on="0"/>
        <pt x="856" y="644" on="1"/>
        <pt x="859" y="639" on="1"/>
        <pt x="1203" y="639" on="1"/>
        <pt x="1209" y="669" on="1"/>
        <pt x="1235" y="800" on="0"/>
        <pt x="1185" y="946" on="0"/>
      </contour>
    </TTGlyph>
    <TTGlyph name="aeacute" xMin="0" yMin="-21" xMax="1440" yMax="1503">
      <component glyphName="ae" x="0" y="0" flags="0x204"/>
      <component glyphName="acute" x="535" y="25" flags="0x4"/>
    </TTGlyph>
    <TTGlyph name="agrave" xMin="30" yMin="-21" xMax="906" yMax="1505">
      <component glyphName="a" x="0" y="0" flags="0x204"/>
      <component glyphName="grave" x="128" y="28" flags="0x4"/>
    </TTGlyph>
    <TTGlyph name="alpha" xMin="49" yMin="-21" xMax="968" yMax="1102">
      <contour>
        <pt x="968" y="1081" on="1"/>
        <pt x="812" y="302" on="1"/>
        <pt x="793" y="206" on="0"/>
        <pt x="809" y="142" on="0"/>
        <pt x="839" y="142" on="1"/>
        <pt x="843" y="142" on="0"/>
        <pt x="855" y="145" on="0"/>
        <pt x="862" y="148" on="1"/>
        <pt x="852" y="6" on="1"/>
        <pt x="824" y="-9" on="0"/>
        <pt x="775" y="-21" on="0"/>
        <pt x="745" y="-21" on="1"/>
        <pt x="682" y="-21" on="0"/>
        <pt x="605" y="54" on="0"/>
        <pt x="598" y="132" on="1"/>
        <pt x="543" y="57" on="0"/>
        <pt x="410" y="-21" on="0"/>
        <pt x="332" y="-21" on="1"/>
        <pt x="181" y="-21" on="0"/>
        <pt x="49" y="273" on="0"/>
        <pt x="96" y="507" on="1"/>
        <pt x="101" y="528" on="1"/>
        <pt x="155" y="804" on="0"/>
        <pt x="391" y="1102" on="0"/>
        <pt x="557" y="1102" on="1"/>
        <pt x="627" y="1102" on="0"/>
        <pt x="726" y="1022" on="0"/>
        <pt x="753" y="948" on="1"/>
        <pt x="796" y="1081" on="1"/>
      </contour>
      <contour>
        <pt x="298" y="507" on="1"/>
        <pt x="261" y="325" on="0"/>
        <pt x="312" y="133" on="0"/>
        <pt x="413" y="133" on="1"/>
        <pt x="467" y="133" on="0"/>
        <pt x="566" y="211" on="0"/>
        <pt x="607" y="281" on="1"/>
        <pt x="608" y="288" on="0"/>
        <pt x="609" y="297" on="0"/>
        <pt x="611" y="302" on="1"/>
        <pt x="709" y="792" on="1"/>
        <pt x="696" y="864" on="0"/>
        <pt x="633" y="946" on="0"/>
        <pt x="577" y="946" on="1"/>
        <pt x="485" y="946" on="0"/>
        <pt x="339" y="709" on="0"/>
        <pt x="303" y="528" on="1"/>
      </contour>
    </TTGlyph>
    <TTGlyph name="alpha.alt" xMin="49" yMin="-21" xMax="1040" yMax="1102">
      <contour>
        <pt x="661" y="188" on="1"/>
        <pt x="598" y="87" on="0"/>
        <pt x="437" y="-21" on="0"/>
        <pt x="338" y="-21" on="1"/>
        <pt x="184" y="-21" on="0"/>
        <pt x="49" y="273" on="0"/>
        <pt x="96" y="507" on="1"/>
        <pt x="101" y="528" on="1"/>
        <pt x="155" y="804" on="0"/>
        <pt x="395" y="1102" on="0"/>
        <pt x="563" y="1102" on="1"/>
        <pt x="654" y="1102" on="0"/>
        <pt x="771" y="989" on="0"/>
        <pt x="796" y="886" on="1"/>
        <pt x="858" y="1082" on="1"/>
        <pt x="1040" y="1082" on="1"/>
        <pt x="844" y="540" on="1"/>
        <pt x="829" y="0" on="1"/>
        <pt x="648" y="0" on="1"/>
      </contour>
      <contour>
        <pt x="298" y="507" on="1"/>
        <pt x="261" y="325" on="0"/>
        <pt x="312" y="133" on="0"/>
        <pt x="413" y="133" on="1"/>
        <pt x="492" y="133" on="0"/>
        <pt x="632" y="341" on="0"/>
        <pt x="679" y="502" on="1"/>
        <pt x="687" y="540" on="1"/>
        <pt x="692" y="564" on="1"/>
        <pt x="711" y="722" on="0"/>
        <pt x="662" y="943" on="0"/>
        <pt x="579" y="939" on="1"/>
        <pt x="573" y="940" on="1"/>
        <pt x="484" y="944" on="0"/>
        <pt x="339" y="709" on="0"/>
        <pt x="303" y="528" on="1"/>
      </contour>
    </TTGlyph>
    <TTGlyph name="alphatonos" xMin="49" yMin="-21" xMax="968" yMax="1606">
      <component glyphName="alpha" x="0" y="0" flags="0x204"/>
      <component glyphName="tonos" x="248" y="-27" flags="0x4"/>
    </TTGlyph>
    <TTGlyph name="amacron" xMin="30" yMin="-21" xMax="964" yMax="1462">
      <component glyphName="a" x="0" y="0" flags="0x204"/>
      <component glyphName="macron" x="65" y="6" flags="0x4"/>
    </TTGlyph>
    <TTGlyph name="ampersand" xMin="29" yMin="-21" xMax="1078" yMax="1477">
      <contour>
        <pt x="58" y="383" on="1"/>
        <pt x="78" y="509" on="0"/>
        <pt x="224" y="686" on="0"/>
        <pt x="360" y="784" on="1"/>
        <pt x="310" y="883" on="0"/>
        <pt x="272" y="1042" on="0"/>
        <pt x="286" y="1125" on="1"/>
        <pt x="313" y="1297" on="0"/>
        <pt x="512" y="1477" on="0"/>
        <pt x="661" y="1477" on="1"/>
        <pt x="789" y="1477" on="0"/>
        <pt x="932" y="1296" on="0"/>
        <pt x="912" y="1169" on="1"/>
        <pt x="895" y="1069" on="0"/>
        <pt x="791" y="930" on="0"/>
        <pt x="700" y="864" on="1"/>
        <pt x="590" y="780" on="1"/>
        <pt x="803" y="392" on="1"/>
        <pt x="809" y="393" on="1"/>
        <pt x="847" y="450" on="0"/>
        <pt x="902" y="594" on="0"/>
        <pt x="916" y="675" on="1"/>
        <pt x="1078" y="675" on="1"/>
        <pt x="1056" y="539" on="0"/>
        <pt x="961" y="325" on="0"/>
        <pt x="885" y="241" on="1"/>
        <pt x="1018" y="0" on="1"/>
        <pt x="784" y="0" on="1"/>
        <pt x="729" y="101" on="1"/>
        <pt x="648" y="41" on="0"/>
        <pt x="481" y="-21" on="0"/>
        <pt x="394" y="-21" on="1"/>
        <pt x="218" y="-21" on="0"/>
        <pt x="29" y="204" on="0"/>
      </contour>
      <contour>
        <pt x="424" y="133" on="1"/>
        <pt x="480" y="133" on="0"/>
        <pt x="603" y="180" on="0"/>
        <pt x="661" y="226" on="1"/>
        <pt x="427" y="656" on="1"/>
        <pt x="405" y="639" on="1"/>
        <pt x="332" y="567" on="0"/>
        <pt x="270" y="442" on="0"/>
        <pt x="262" y="388" on="1"/>
        <pt x="244" y="274" on="0"/>
        <pt x="328" y="133" on="0"/>
      </contour>
      <contour>
        <pt x="475" y="1127" on="1"/>
        <pt x="467" y="1075" on="0"/>
        <pt x="492" y="968" on="0"/>
        <pt x="523" y="904" on="1"/>
        <pt x="631" y="983" on="1"/>
        <pt x="686" y="1023" on="0"/>
        <pt x="735" y="1111" on="0"/>
        <pt x="743" y="1164" on="1"/>
        <pt x="753" y="1230" on="0"/>
        <pt x="696" y="1321" on="0"/>
        <pt x="636" y="1321" on="1"/>
        <pt x="576" y="1321" on="0"/>
        <pt x="488" y="1208" on="0"/>
      </contour>
    </TTGlyph>
    <TTGlyph name="anoteleia" xMin="177" yMin="606" xMax="420" yMax="820">
      <component glyphName="periodcentered" x="0" y="0" flags="0x4"/>
    </TTGlyph>
    <TTGlyph name="aogonek" xMin="30" yMin="-413" xMax="906" yMax="1102">
      <component glyphName="a" x="0" y="0" flags="0x204"/>
      <component glyphName="ogonek" x="462" y="0" flags="0x4"/>
    </TTGlyph>
    <TTGlyph name="approxequal" xMin="75" yMin="288" xMax="977" yMax="1013">
      <contour>
        <pt x="191" y="866" on="1"/>
        <pt x="242" y="934" on="0"/>
        <pt x="357" y="1012" on="0"/>
        <pt x="410" y="1012" on="1"/>
        <pt x="466" y="1013" on="0"/>
        <pt x="526" y="984" on="0"/>
        <pt x="590" y="939" on="1"/>
        <pt x="647" y="897" on="0"/>
        <pt x="705" y="869" on="0"/>
        <pt x="758" y="869" on="1"/>
        <pt x="806" y="869" on="0"/>
        <pt x="925" y="947" on="0"/>
        <pt x="972" y="1012" on="1"/>
        <pt x="977" y="1009" on="1"/>
        <pt x="954" y="854" on="1"/>
        <pt x="902" y="785" on="0"/>
        <pt x="787" y="708" on="0"/>
        <pt x="735" y="708" on="1"/>
        <pt x="685" y="708" on="0"/>
        <pt x="615" y="740" on="0"/>
        <pt x="565" y="777" on="1"/>
        <pt x="498" y="824" on="0"/>
        <pt x="442" y="852" on="0"/>
        <pt x="385" y="851" on="1"/>
        <pt x="335" y="851" on="0"/>
        <pt x="218" y="772" on="0"/>
        <pt x="172" y="708" on="1"/>
        <pt x="167" y="711" on="1"/>
      </contour>
      <contour>
        <pt x="99" y="447" on="1"/>
        <pt x="151" y="515" on="0"/>
        <pt x="266" y="593" on="0"/>
        <pt x="319" y="593" on="1"/>
        <pt x="375" y="594" on="0"/>
        <pt x="434" y="565" on="0"/>
        <pt x="498" y="520" on="1"/>
        <pt x="557" y="477" on="0"/>
        <pt x="613" y="449" on="0"/>
        <pt x="666" y="449" on="1"/>
        <pt x="714" y="449" on="0"/>
        <pt x="834" y="528" on="0"/>
        <pt x="880" y="593" on="1"/>
        <pt x="885" y="590" on="1"/>
        <pt x="862" y="434" on="1"/>
        <pt x="809" y="365" on="0"/>
        <pt x="694" y="288" on="0"/>
        <pt x="642" y="288" on="1"/>
        <pt x="593" y="288" on="0"/>
        <pt x="524" y="319" on="0"/>
        <pt x="473" y="357" on="1"/>
        <pt x="407" y="403" on="0"/>
        <pt x="349" y="432" on="0"/>
        <pt x="292" y="431" on="1"/>
        <pt x="244" y="431" on="0"/>
        <pt x="126" y="352" on="0"/>
        <pt x="80" y="288" on="1"/>
        <pt x="75" y="291" on="1"/>
      </contour>
    </TTGlyph>
    <TTGlyph name="aring" xMin="30" yMin="-21" xMax="906" yMax="1596">
      <component glyphName="a" x="0" y="0" flags="0x204"/>
      <component glyphName="ring" x="175" y="101" flags="0x4"/>
    </TTGlyph>
    <TTGlyph name="aringacute" xMin="30" yMin="-21" xMax="993" yMax="1778">
      <component glyphName="a" x="0" y="0" flags="0x204"/>
      <component glyphName="ringacute" x="188" y="86" flags="0x4"/>
    </TTGlyph>
    <TTGlyph name="asciicircum" xMin="115" yMin="729" xMax="739" yMax="1456">
      <contour>
        <pt x="284" y="729" on="1"/>
        <pt x="115" y="729" on="1"/>
        <pt x="501" y="1456" on="1"/>
        <pt x="644" y="1456" on="1"/>
        <pt x="739" y="729" on="1"/>
        <pt x="572" y="729" on="1"/>
        <pt x="527" y="1173" on="1"/>
        <pt x="527" y="1215" on="1"/>
        <pt x="521" y="1216" on="1"/>
        <pt x="504" y="1173" on="1"/>
      </contour>
    </TTGlyph>
    <TTGlyph name="asciitilde" xMin="112" yMin="402" xMax="1061" yMax="803">
      <contour>
        <pt x="1061" y="745" on="1"/>
        <pt x="1037" y="598" on="0"/>
        <pt x="865" y="402" on="0"/>
        <pt x="758" y="402" on="1"/>
        <pt x="690" y="402" on="0"/>
        <pt x="581" y="471" on="0"/>
        <pt x="527" y="544" on="1"/>
        <pt x="492" y="594" on="0"/>
        <pt x="430" y="642" on="0"/>
        <pt x="392" y="642" on="1"/>
        <pt x="347" y="642" on="0"/>
        <pt x="260" y="529" on="0"/>
        <pt x="247" y="446" on="1"/>
        <pt x="112" y="466" on="1"/>
        <pt x="135" y="613" on="0"/>
        <pt x="302" y="803" on="0"/>
        <pt x="411" y="803" on="1"/>
        <pt x="476" y="803" on="0"/>
        <pt x="591" y="730" on="0"/>
        <pt x="644" y="662" on="1"/>
        <pt x="677" y="610" on="0"/>
        <pt x="738" y="564" on="0"/>
        <pt x="777" y="564" on="1"/>
        <pt x="822" y="564" on="0"/>
        <pt x="909" y="681" on="0"/>
        <pt x="923" y="765" on="1"/>
      </contour>
    </TTGlyph>
    <TTGlyph name="asterisk" xMin="167" yMin="610" xMax="874" yMax="1456">
      <contour>
        <pt x="402" y="984" on="1"/>
        <pt x="167" y="1080" on="1"/>
        <pt x="238" y="1220" on="1"/>
        <pt x="468" y="1101" on="1"/>
        <pt x="528" y="1456" on="1"/>
        <pt x="670" y="1456" on="1"/>
        <pt x="587" y="1095" on="1"/>
        <pt x="859" y="1216" on="1"/>
        <pt x="874" y="1075" on="1"/>
        <pt x="594" y="975" on="1"/>
        <pt x="707" y="697" on="1"/>
        <pt x="574" y="610" on="1"/>
        <pt x="481" y="905" on="1"/>
        <pt x="273" y="616" on="1"/>
        <pt x="174" y="700" on="1"/>
      </contour>
    </TTGlyph>
    <TTGlyph name="at" xMin="1" yMin="-453" xMax="1589" yMax="1422">
      <contour>
        <pt x="1493" y="509" on="1"/>
        <pt x="1442" y="293" on="0"/>
        <pt x="1186" y="-21" on="0"/>
        <pt x="993" y="-21" on="1"/>
        <pt x="931" y="-21" on="0"/>
        <pt x="853" y="71" on="0"/>
        <pt x="850" y="154" on="1"/>
        <pt x="792" y="67" on="0"/>
        <pt x="658" y="-20" on="0"/>
        <pt x="582" y="-20" on="1"/>
        <pt x="476" y="-20" on="0"/>
        <pt x="396" y="223" on="0"/>
        <pt x="449" y="416" on="1"/>
        <pt x="521" y="671" on="0"/>
        <pt x="780" y="980" on="0"/>
        <pt x="921" y="980" on="1"/>
        <pt x="1007" y="980" on="0"/>
        <pt x="1119" y="924" on="0"/>
        <pt x="1173" y="873" on="1"/>
        <pt x="1170" y="870" on="1"/>
        <pt x="1174" y="870" on="1"/>
        <pt x="1015" y="293" on="1"/>
        <pt x="985" y="177" on="0"/>
        <pt x="1013" y="93" on="0"/>
        <pt x="1049" y="100" on="1"/>
        <pt x="1055" y="99" on="1"/>
        <pt x="1146" y="94" on="0"/>
        <pt x="1320" y="331" on="0"/>
        <pt x="1364" y="509" on="1"/>
        <pt x="1454" y="885" on="0"/>
        <pt x="1272" y="1305" on="0"/>
        <pt x="993" y="1305" on="1"/>
        <pt x="751" y="1305" on="0"/>
        <pt x="328" y="843" on="0"/>
        <pt x="244" y="478" on="1"/>
        <pt x="154" y="108" on="0"/>
        <pt x="347" y="-333" on="0"/>
        <pt x="610" y="-333" on="1"/>
        <pt x="679" y="-333" on="0"/>
        <pt x="846" y="-290" on="0"/>
        <pt x="905" y="-257" on="1"/>
        <pt x="914" y="-364" on="1"/>
        <pt x="849" y="-406" on="0"/>
        <pt x="665" y="-453" on="0"/>
        <pt x="582" y="-453" on="1"/>
        <pt x="275" y="-453" on="0"/>
        <pt x="1" y="54" on="0"/>
        <pt x="100" y="478" on="1"/>
        <pt x="200" y="903" on="0"/>
        <pt x="698" y="1422" on="0"/>
        <pt x="1020" y="1422" on="1"/>
        <pt x="1323" y="1422" on="0"/>
        <pt x="1589" y="923" on="0"/>
      </contour>
      <contour>
        <pt x="615" y="416" on="1"/>
        <pt x="577" y="273" on="0"/>
        <pt x="598" y="115" on="0"/>
        <pt x="658" y="115" on="1"/>
        <pt x="707" y="115" on="0"/>
        <pt x="808" y="178" on="0"/>
        <pt x="860" y="258" on="1"/>
        <pt x="861" y="265" on="0"/>
        <pt x="865" y="281" on="0"/>
        <pt x="868" y="293" on="1"/>
        <pt x="1015" y="830" on="1"/>
        <pt x="996" y="841" on="0"/>
        <pt x="953" y="853" on="0"/>
        <pt x="928" y="853" on="1"/>
        <pt x="834" y="853" on="0"/>
        <pt x="673" y="631" on="0"/>
      </contour>
    </TTGlyph>
    <TTGlyph name="atilde" xMin="30" yMin="-21" xMax="956" yMax="1547">
      <component glyphName="a" x="0" y="0" flags="0x204"/>
      <component glyphName="tilde" x="91" y="32" flags="0x4"/>
    </TTGlyph>
    <TTGlyph name="b" xMin="29" yMin="-21" xMax="950" yMax="1560">
      <contour>
        <pt x="895" y="490" on="1"/>
        <pt x="843" y="233" on="0"/>
        <pt x="634" y="-21" on="0"/>
        <pt x="469" y="-21" on="1"/>
        <pt x="396" y="-21" on="0"/>
        <pt x="280" y="60" on="0"/>
        <pt x="245" y="132" on="1"/>
        <pt x="203" y="0" on="1"/>
        <pt x="29" y="0" on="1"/>
        <pt x="341" y="1560" on="1"/>
        <pt x="542" y="1560" on="1"/>
        <pt x="429" y="1000" on="1"/>
        <pt x="478" y="1050" on="0"/>
        <pt x="594" y="1102" on="0"/>
        <pt x="660" y="1102" on="1"/>
        <pt x="814" y="1102" on="0"/>
        <pt x="950" y="765" on="0"/>
        <pt x="899" y="511" on="1"/>
      </contour>
      <contour>
        <pt x="699" y="511" on="1"/>
        <pt x="738" y="710" on="0"/>
        <pt x="688" y="944" on="0"/>
        <pt x="585" y="944" on="1"/>
        <pt x="527" y="944" on="0"/>
        <pt x="426" y="855" on="0"/>
        <pt x="386" y="782" on="1"/>
        <pt x="282" y="261" on="1"/>
        <pt x="297" y="201" on="0"/>
        <pt x="377" y="136" on="0"/>
        <pt x="443" y="136" on="1"/>
        <pt x="537" y="136" on="0"/>
        <pt x="660" y="321" on="0"/>
        <pt x="695" y="490" on="1"/>
      </contour>
    </TTGlyph>
    <TTGlyph name="backslash" xMin="234" yMin="-125" xMax="603" yMax="1456">
      <contour>
        <pt x="234" y="1456" on="1"/>
        <pt x="428" y="1456" on="1"/>
        <pt x="603" y="-125" on="1"/>
        <pt x="408" y="-125" on="1"/>
      </contour>
    </TTGlyph>
    <TTGlyph name="bar" xMin="40" yMin="-270" xMax="451" yMax="1456">
      <contour>
        <pt x="175" y="-270" on="1"/>
        <pt x="40" y="-270" on="1"/>
        <pt x="316" y="1456" on="1"/>
        <pt x="451" y="1456" on="1"/>
      </contour>
    </TTGlyph>
    <TTGlyph name="beta" xMin="-32" yMin="-395" xMax="1041" yMax="1477">
      <contour>
        <pt x="721" y="1477" on="1"/>
        <pt x="875" y="1477" on="0"/>
        <pt x="1041" y="1259" on="0"/>
        <pt x="1007" y="1086" on="1"/>
        <pt x="986" y="981" on="0"/>
        <pt x="869" y="821" on="0"/>
        <pt x="785" y="778" on="1"/>
        <pt x="873" y="733" on="0"/>
        <pt x="951" y="538" on="0"/>
        <pt x="926" y="413" on="1"/>
        <pt x="881" y="194" on="0"/>
        <pt x="644" y="-21" on="0"/>
        <pt x="476" y="-21" on="1"/>
        <pt x="416" y="-21" on="0"/>
        <pt x="302" y="21" on="0"/>
        <pt x="260" y="63" on="1"/>
        <pt x="169" y="-395" on="1"/>
        <pt x="-32" y="-395" on="1"/>
        <pt x="258" y="1057" on="1"/>
        <pt x="296" y="1247" on="0"/>
        <pt x="560" y="1477" on="0"/>
      </contour>
      <contour>
        <pt x="533" y="845" on="1"/>
        <pt x="592" y="845" on="1"/>
        <pt x="672" y="845" on="0"/>
        <pt x="784" y="972" on="0"/>
        <pt x="807" y="1083" on="1"/>
        <pt x="827" y="1185" on="0"/>
        <pt x="768" y="1321" on="0"/>
        <pt x="690" y="1321" on="1"/>
        <pt x="618" y="1321" on="0"/>
        <pt x="481" y="1169" on="0"/>
        <pt x="459" y="1057" on="1"/>
        <pt x="291" y="217" on="1"/>
        <pt x="316" y="176" on="0"/>
        <pt x="407" y="133" on="0"/>
        <pt x="470" y="133" on="1"/>
        <pt x="555" y="133" on="0"/>
        <pt x="699" y="289" on="0"/>
        <pt x="723" y="411" on="1"/>
        <pt x="749" y="541" on="0"/>
        <pt x="685" y="695" on="0"/>
        <pt x="598" y="695" on="1"/>
        <pt x="503" y="695" on="1"/>
        <pt x="510" y="731" on="1"/>
        <pt x="526" y="810" on="1"/>
      </contour>
    </TTGlyph>
    <TTGlyph name="braceleft" xMin="73" yMin="-373" xMax="707" yMax="1597">
      <contour>
        <pt x="370" y="-373" on="1"/>
        <pt x="222" y="-318" on="0"/>
        <pt x="127" y="-78" on="0"/>
        <pt x="155" y="91" on="1"/>
        <pt x="189" y="303" on="1"/>
        <pt x="207" y="419" on="0"/>
        <pt x="152" y="541" on="0"/>
        <pt x="73" y="541" on="1"/>
        <pt x="91" y="657" on="1"/>
        <pt x="96" y="687" on="1"/>
        <pt x="171" y="687" on="0"/>
        <pt x="270" y="812" on="0"/>
        <pt x="288" y="923" on="1"/>
        <pt x="322" y="1138" on="1"/>
        <pt x="350" y="1315" on="0"/>
        <pt x="518" y="1546" on="0"/>
        <pt x="682" y="1597" on="1"/>
        <pt x="688" y="1596" on="1"/>
        <pt x="707" y="1489" on="1"/>
        <pt x="624" y="1453" on="0"/>
        <pt x="531" y="1272" on="0"/>
        <pt x="510" y="1138" on="1"/>
        <pt x="476" y="923" on="1"/>
        <pt x="458" y="812" on="0"/>
        <pt x="355" y="652" on="0"/>
        <pt x="270" y="611" on="1"/>
        <pt x="339" y="567" on="0"/>
        <pt x="393" y="405" on="0"/>
        <pt x="377" y="303" on="1"/>
        <pt x="343" y="91" on="1"/>
        <pt x="320" y="-48" on="0"/>
        <pt x="355" y="-221" on="0"/>
        <pt x="429" y="-258" on="1"/>
      </contour>
    </TTGlyph>
    <TTGlyph name="braceright" xMin="-77" yMin="-373" xMax="558" yMax="1597">
      <contour>
        <pt x="-77" y="-264" on="1"/>
        <pt x="6" y="-227" on="0"/>
        <pt x="100" y="-48" on="0"/>
        <pt x="123" y="85" on="1"/>
        <pt x="157" y="297" on="1"/>
        <pt x="174" y="410" on="0"/>
        <pt x="279" y="570" on="0"/>
        <pt x="368" y="609" on="1"/>
        <pt x="294" y="650" on="0"/>
        <pt x="239" y="811" on="0"/>
        <pt x="256" y="917" on="1"/>
        <pt x="290" y="1132" on="1"/>
        <pt x="312" y="1270" on="0"/>
        <pt x="275" y="1446" on="0"/>
        <pt x="203" y="1483" on="1"/>
        <pt x="261" y="1597" on="1"/>
        <pt x="408" y="1542" on="0"/>
        <pt x="503" y="1303" on="0"/>
        <pt x="476" y="1132" on="1"/>
        <pt x="442" y="917" on="1"/>
        <pt x="423" y="800" on="0"/>
        <pt x="478" y="681" on="0"/>
        <pt x="558" y="681" on="1"/>
        <pt x="552" y="644" on="1"/>
        <pt x="535" y="535" on="1"/>
        <pt x="459" y="535" on="0"/>
        <pt x="360" y="407" on="0"/>
        <pt x="343" y="297" on="1"/>
        <pt x="309" y="85" on="1"/>
        <pt x="280" y="-90" on="0"/>
        <pt x="112" y="-322" on="0"/>
        <pt x="-51" y="-373" on="1"/>
        <pt x="-57" y="-372" on="1"/>
      </contour>
    </TTGlyph>
    <TTGlyph name="bracketleft" xMin="4" yMin="-319" xMax="664" yMax="1672">
      <contour>
        <pt x="639" y="1519" on="1"/>
        <pt x="501" y="1519" on="1"/>
        <pt x="231" y="-167" on="1"/>
        <pt x="369" y="-167" on="1"/>
        <pt x="345" y="-319" on="1"/>
        <pt x="4" y="-319" on="1"/>
        <pt x="323" y="1672" on="1"/>
        <pt x="664" y="1672" on="1"/>
      </contour>
    </TTGlyph>
    <TTGlyph name="bracketright" xMin="-99" yMin="-319" xMax="564" yMax="1672">
      <contour>
        <pt x="220" y="1672" on="1"/>
        <pt x="564" y="1672" on="1"/>
        <pt x="245" y="-319" on="1"/>
        <pt x="-99" y="-319" on="1"/>
        <pt x="-75" y="-167" on="1"/>
        <pt x="66" y="-167" on="1"/>
        <pt x="336" y="1519" on="1"/>
        <pt x="195" y="1519" on="1"/>
      </contour>
    </TTGlyph>
    <TTGlyph name="breve" xMin="256" yMin="1184" xMax="816" yMax="1456">
      <contour>
        <pt x="814" y="1456" on="1"/>
        <pt x="816" y="1450" on="1"/>
        <pt x="801" y="1328" on="0"/>
        <pt x="631" y="1184" on="0"/>
        <pt x="505" y="1184" on="1"/>
        <pt x="383" y="1184" on="0"/>
        <pt x="256" y="1334" on="0"/>
        <pt x="280" y="1451" on="1"/>
        <pt x="282" y="1456" on="1"/>
        <pt x="432" y="1456" on="1"/>
        <pt x="421" y="1387" on="0"/>
        <pt x="464" y="1306" on="0"/>
        <pt x="525" y="1306" on="1"/>
        <pt x="581" y="1306" on="0"/>
        <pt x="652" y="1391" on="0"/>
        <pt x="663" y="1456" on="1"/>
      </contour>
    </TTGlyph>
    <TTGlyph name="breveacutecomb" xMin="294" yMin="1236" xMax="834" yMax="1669">
      <contour>
        <pt x="832" y="1456" on="1"/>
        <pt x="834" y="1450" on="1"/>
        <pt x="819" y="1349" on="0"/>
        <pt x="655" y="1236" on="0"/>
        <pt x="533" y="1236" on="1"/>
        <pt x="419" y="1236" on="0"/>
        <pt x="294" y="1358" on="0"/>
        <pt x="318" y="1450" on="1"/>
        <pt x="320" y="1456" on="1"/>
        <pt x="469" y="1456" on="1"/>
        <pt x="457" y="1400" on="0"/>
        <pt x="496" y="1336" on="0"/>
        <pt x="553" y="1336" on="1"/>
        <pt x="603" y="1336" on="0"/>
        <pt x="673" y="1405" on="0"/>
        <pt x="684" y="1456" on="1"/>
      </contour>
      <contour>
        <pt x="657" y="1669" on="1"/>
        <pt x="802" y="1669" on="1"/>
        <pt x="804" y="1664" on="1"/>
        <pt x="633" y="1470" on="1"/>
        <pt x="524" y="1470" on="1"/>
      </contour>
    </TTGlyph>
    <TTGlyph name="brevegravecomb" xMin="280" yMin="1188" xMax="841" yMax="1704">
      <contour>
        <pt x="839" y="1456" on="1"/>
        <pt x="841" y="1450" on="1"/>
        <pt x="820" y="1327" on="0"/>
        <pt x="649" y="1188" on="0"/>
        <pt x="522" y="1188" on="1"/>
        <pt x="405" y="1188" on="0"/>
        <pt x="280" y="1337" on="0"/>
        <pt x="306" y="1451" on="1"/>
        <pt x="309" y="1456" on="1"/>
        <pt x="451" y="1456" on="1"/>
        <pt x="437" y="1388" on="0"/>
        <pt x="481" y="1312" on="0"/>
        <pt x="546" y="1312" on="1"/>
        <pt x="604" y="1312" on="0"/>
        <pt x="686" y="1394" on="0"/>
        <pt x="698" y="1456" on="1"/>
      </contour>
      <contour>
        <pt x="672" y="1491" on="1"/>
        <pt x="515" y="1491" on="1"/>
        <pt x="389" y="1704" on="1"/>
        <pt x="594" y="1704" on="1"/>
      </contour>
    </TTGlyph>
    <TTGlyph name="brevehookcomb" xMin="294" yMin="1241" xMax="827" yMax="1815">
      <contour>
        <pt x="825" y="1456" on="1"/>
        <pt x="827" y="1450" on="1"/>
        <pt x="812" y="1351" on="0"/>
        <pt x="652" y="1241" on="0"/>
        <pt x="530" y="1241" on="1"/>
        <pt x="418" y="1241" on="0"/>
        <pt x="294" y="1360" on="0"/>
        <pt x="318" y="1450" on="1"/>
        <pt x="320" y="1456" on="1"/>
        <pt x="467" y="1456" on="1"/>
        <pt x="455" y="1401" on="0"/>
        <pt x="495" y="1338" on="0"/>
        <pt x="550" y="1338" on="1"/>
        <pt x="600" y="1338" on="0"/>
        <pt x="669" y="1406" on="0"/>
        <pt x="679" y="1456" on="1"/>
      </contour>
      <contour>
        <pt x="516" y="1493" on="1"/>
        <pt x="531" y="1607" on="1"/>
        <pt x="591" y="1610" on="0"/>
        <pt x="646" y="1636" on="0"/>
        <pt x="653" y="1670" on="1"/>
        <pt x="659" y="1703" on="0"/>
        <pt x="599" y="1735" on="0"/>
        <pt x="549" y="1735" on="1"/>
        <pt x="570" y="1815" on="1"/>
        <pt x="704" y="1815" on="0"/>
        <pt x="827" y="1743" on="0"/>
        <pt x="813" y="1671" on="1"/>
        <pt x="801" y="1615" on="0"/>
        <pt x="723" y="1557" on="0"/>
        <pt x="671" y="1550" on="1"/>
        <pt x="659" y="1493" on="1"/>
      </contour>
    </TTGlyph>
    <TTGlyph name="brevetildecomb" xMin="293" yMin="1236" xMax="861" yMax="1745">
      <contour>
        <pt x="826" y="1456" on="1"/>
        <pt x="828" y="1450" on="1"/>
        <pt x="813" y="1350" on="0"/>
        <pt x="651" y="1236" on="0"/>
        <pt x="530" y="1236" on="1"/>
        <pt x="418" y="1236" on="0"/>
        <pt x="293" y="1358" on="0"/>
        <pt x="317" y="1450" on="1"/>
        <pt x="320" y="1456" on="1"/>
        <pt x="467" y="1456" on="1"/>
        <pt x="455" y="1399" on="0"/>
        <pt x="493" y="1335" on="0"/>
        <pt x="550" y="1335" on="1"/>
        <pt x="600" y="1335" on="0"/>
        <pt x="669" y="1404" on="0"/>
        <pt x="680" y="1456" on="1"/>
      </contour>
      <contour>
        <pt x="861" y="1721" on="1"/>
        <pt x="845" y="1641" on="0"/>
        <pt x="751" y="1543" on="0"/>
        <pt x="693" y="1543" on="1"/>
        <pt x="652" y="1543" on="0"/>
        <pt x="557" y="1624" on="0"/>
        <pt x="524" y="1624" on="1"/>
        <pt x="500" y="1624" on="0"/>
        <pt x="454" y="1570" on="0"/>
        <pt x="446" y="1530" on="1"/>
        <pt x="366" y="1552" on="1"/>
        <pt x="381" y="1629" on="0"/>
        <pt x="475" y="1730" on="0"/>
        <pt x="534" y="1730" on="1"/>
        <pt x="566" y="1730" on="0"/>
        <pt x="668" y="1649" on="0"/>
        <pt x="703" y="1649" on="1"/>
        <pt x="724" y="1649" on="0"/>
        <pt x="772" y="1705" on="0"/>
        <pt x="780" y="1745" on="1"/>
      </contour>
    </TTGlyph>
    <TTGlyph name="brokenbar" xMin="-18" yMin="-270" xMax="515" yMax="1456">
      <contour>
        <pt x="-18" y="-270" on="1"/>
        <pt x="139" y="514" on="1"/>
        <pt x="327" y="514" on="1"/>
        <pt x="170" y="-270" on="1"/>
      </contour>
      <contour>
        <pt x="364" y="698" on="1"/>
        <pt x="176" y="698" on="1"/>
        <pt x="327" y="1456" on="1"/>
        <pt x="515" y="1456" on="1"/>
      </contour>
    </TTGlyph>
    <TTGlyph name="bullet" xMin="169" yMin="523" xMax="593" yMax="992">
      <contour>
        <pt x="202" y="793" on="1"/>
        <pt x="220" y="886" on="0"/>
        <pt x="341" y="992" on="0"/>
        <pt x="427" y="992" on="1"/>
        <pt x="508" y="992" on="0"/>
        <pt x="593" y="879" on="0"/>
        <pt x="576" y="793" on="1"/>
        <pt x="561" y="721" on="1"/>
        <pt x="542" y="626" on="0"/>
        <pt x="423" y="523" on="0"/>
        <pt x="336" y="523" on="1"/>
        <pt x="255" y="523" on="0"/>
        <pt x="169" y="634" on="0"/>
        <pt x="187" y="721" on="1"/>
      </contour>
    </TTGlyph>
    <TTGlyph name="c" xMin="47" yMin="-21" xMax="899" yMax="1102">
      <contour>
        <pt x="426" y="133" on="1"/>
        <pt x="494" y="133" on="0"/>
        <pt x="612" y="250" on="0"/>
        <pt x="628" y="348" on="1"/>
        <pt x="807" y="348" on="1"/>
        <pt x="809" y="342" on="1"/>
        <pt x="786" y="183" on="0"/>
        <pt x="551" y="-21" on="0"/>
        <pt x="402" y="-21" on="1"/>
        <pt x="216" y="-21" on="0"/>
        <pt x="47" y="256" on="0"/>
        <pt x="80" y="465" on="1"/>
        <pt x="104" y="614" on="1"/>
        <pt x="139" y="833" on="0"/>
        <pt x="386" y="1102" on="0"/>
        <pt x="581" y="1102" on="1"/>
        <pt x="733" y="1102" on="0"/>
        <pt x="899" y="880" on="0"/>
        <pt x="871" y="703" on="1"/>
        <pt x="684" y="703" on="1"/>
        <pt x="702" y="815" on="0"/>
        <pt x="632" y="946" on="0"/>
        <pt x="556" y="946" on="1"/>
        <pt x="452" y="946" on="0"/>
        <pt x="327" y="756" on="0"/>
        <pt x="305" y="614" on="1"/>
        <pt x="281" y="465" on="1"/>
        <pt x="257" y="313" on="0"/>
        <pt x="316" y="133" on="0"/>
      </contour>
    </TTGlyph>
    <TTGlyph name="cacute" xMin="47" yMin="-21" xMax="899" yMax="1502">
      <component glyphName="c" x="0" y="0" flags="0x204"/>
      <component glyphName="acute" x="233" y="24" flags="0x4"/>
    </TTGlyph>
    <TTGlyph name="caron" xMin="321" yMin="1252" xMax="890" yMax="1509">
      <contour>
        <pt x="577" y="1359" on="1"/>
        <pt x="711" y="1509" on="1"/>
        <pt x="890" y="1509" on="1"/>
        <pt x="886" y="1492" on="1"/>
        <pt x="620" y="1252" on="1"/>
        <pt x="489" y="1252" on="1"/>
        <pt x="321" y="1491" on="1"/>
        <pt x="325" y="1509" on="1"/>
        <pt x="501" y="1509" on="1"/>
      </contour>
    </TTGlyph>
    <TTGlyph name="ccaron" xMin="47" yMin="-21" xMax="911" yMax="1537">
      <component glyphName="c" x="0" y="0" flags="0x204"/>
      <component glyphName="caron" x="21" y="28" flags="0x4"/>
    </TTGlyph>
    <TTGlyph name="ccedilla" xMin="47" yMin="-445" xMax="899" yMax="1102">
      <component glyphName="c" x="0" y="0" flags="0x204"/>
      <component glyphName="cedilla" x="271" y="-5" flags="0x4"/>
    </TTGlyph>
    <TTGlyph name="ccircumflex" xMin="47" yMin="-21" xMax="899" yMax="1532">
      <component glyphName="c" x="0" y="0" flags="0x204"/>
      <component glyphName="circumflex" x="1" y="25" flags="0x4"/>
    </TTGlyph>
    <TTGlyph name="cedilla" xMin="-54" yMin="-440" xMax="269" yMax="2">
      <contour>
        <pt x="188" y="2" on="1"/>
        <pt x="167" y="-56" on="1"/>
        <pt x="217" y="-66" on="0"/>
        <pt x="269" y="-148" on="0"/>
        <pt x="253" y="-228" on="1"/>
        <pt x="232" y="-332" on="0"/>
        <pt x="76" y="-440" on="0"/>
        <pt x="-49" y="-438" on="1"/>
        <pt x="-54" y="-435" on="1"/>
        <pt x="-38" y="-329" on="1"/>
        <pt x="7" y="-329" on="0"/>
        <pt x="79" y="-278" on="0"/>
        <pt x="89" y="-228" on="1"/>
        <pt x="99" y="-175" on="0"/>
        <pt x="55" y="-139" on="0"/>
        <pt x="-11" y="-132" on="1"/>
        <pt x="40" y="2" on="1"/>
      </contour>
    </TTGlyph>
    <TTGlyph name="cent" xMin="73" yMin="-245" xMax="915" yMax="1318">
      <contour>
        <pt x="447" y="133" on="1"/>
        <pt x="515" y="133" on="0"/>
        <pt x="633" y="250" on="0"/>
        <pt x="649" y="348" on="1"/>
        <pt x="828" y="348" on="1"/>
        <pt x="831" y="342" on="1"/>
        <pt x="810" y="199" on="0"/>
        <pt x="612" y="3" on="0"/>
        <pt x="480" y="-16" on="1"/>
        <pt x="435" y="-245" on="1"/>
        <pt x="274" y="-245" on="1"/>
        <pt x="321" y="-8" on="1"/>
        <pt x="187" y="29" on="0"/>
        <pt x="73" y="288" on="0"/>
        <pt x="101" y="465" on="1"/>
        <pt x="125" y="614" on="1"/>
        <pt x="156" y="815" on="0"/>
        <pt x="372" y="1077" on="0"/>
        <pt x="542" y="1098" on="1"/>
        <pt x="587" y="1318" on="1"/>
        <pt x="748" y="1318" on="1"/>
        <pt x="701" y="1087" on="1"/>
        <pt x="809" y="1053" on="0"/>
        <pt x="915" y="847" on="0"/>
        <pt x="892" y="703" on="1"/>
        <pt x="705" y="703" on="1"/>
        <pt x="723" y="815" on="0"/>
        <pt x="653" y="946" on="0"/>
        <pt x="577" y="946" on="1"/>
        <pt x="473" y="946" on="0"/>
        <pt x="348" y="756" on="0"/>
        <pt x="326" y="614" on="1"/>
        <pt x="302" y="465" on="1"/>
        <pt x="278" y="313" on="0"/>
        <pt x="337" y="133" on="0"/>
      </contour>
    </TTGlyph>
    <TTGlyph name="chi" xMin="-83" yMin="-431" xMax="1008" yMax="1095">
      <contour>
        <pt x="300" y="1095" on="1"/>
        <pt x="405" y="1095" on="0"/>
        <pt x="507" y="932" on="0"/>
        <pt x="518" y="831" on="1"/>
        <pt x="542" y="651" on="1"/>
        <pt x="548" y="650" on="1"/>
        <pt x="804" y="1082" on="1"/>
        <pt x="1008" y="1082" on="1"/>
        <pt x="581" y="362" on="1"/>
        <pt x="645" y="-107" on="1"/>
        <pt x="650" y="-179" on="0"/>
        <pt x="682" y="-262" on="0"/>
        <pt x="715" y="-265" on="1"/>
        <pt x="727" y="-265" on="0"/>
        <pt x="742" y="-265" on="0"/>
        <pt x="754" y="-263" on="1"/>
        <pt x="718" y="-419" on="1"/>
        <pt x="699" y="-425" on="0"/>
        <pt x="652" y="-431" on="0"/>
        <pt x="632" y="-431" on="1"/>
        <pt x="539" y="-427" on="0"/>
        <pt x="456" y="-279" on="0"/>
        <pt x="447" y="-146" on="1"/>
        <pt x="417" y="74" on="1"/>
        <pt x="411" y="75" on="1"/>
        <pt x="121" y="-415" on="1"/>
        <pt x="-83" y="-415" on="1"/>
        <pt x="379" y="364" on="1"/>
        <pt x="325" y="769" on="1"/>
        <pt x="318" y="843" on="0"/>
        <pt x="263" y="937" on="0"/>
        <pt x="216" y="937" on="1"/>
        <pt x="208" y="937" on="0"/>
        <pt x="177" y="933" on="0"/>
        <pt x="161" y="931" on="1"/>
        <pt x="188" y="1080" on="1"/>
        <pt x="218" y="1086" on="0"/>
        <pt x="273" y="1095" on="0"/>
      </contour>
    </TTGlyph>
    <TTGlyph name="circumflex" xMin="301" yMin="1252" xMax="856" yMax="1507">
      <contour>
        <pt x="856" y="1274" on="1"/>
        <pt x="851" y="1252" on="1"/>
        <pt x="690" y="1252" on="1"/>
        <pt x="605" y="1403" on="1"/>
        <pt x="459" y="1252" on="1"/>
        <pt x="301" y="1252" on="1"/>
        <pt x="306" y="1275" on="1"/>
        <pt x="566" y="1507" on="1"/>
        <pt x="684" y="1507" on="1"/>
      </contour>
    </TTGlyph>
    <TTGlyph name="circumflexacutecomb" xMin="263" yMin="1252" xMax="1223" yMax="1667">
      <contour>
        <pt x="549" y="1505" on="1"/>
        <pt x="712" y="1505" on="1"/>
        <pt x="902" y="1252" on="1"/>
        <pt x="706" y="1252" on="1"/>
        <pt x="610" y="1411" on="1"/>
        <pt x="452" y="1252" on="1"/>
        <pt x="265" y="1252" on="1"/>
        <pt x="263" y="1258" on="1"/>
      </contour>
      <contour>
        <pt x="1032" y="1667" on="1"/>
        <pt x="1221" y="1667" on="1"/>
        <pt x="1223" y="1662" on="1"/>
        <pt x="1009" y="1416" on="1"/>
        <pt x="865" y="1416" on="1"/>
      </contour>
    </TTGlyph>
    <TTGlyph name="circumflexgravecomb" xMin="93" yMin="1252" xMax="897" yMax="1667">
      <contour>
        <pt x="897" y="1252" on="1"/>
        <pt x="702" y="1252" on="1"/>
        <pt x="606" y="1411" on="1"/>
        <pt x="446" y="1252" on="1"/>
        <pt x="259" y="1252" on="1"/>
        <pt x="257" y="1258" on="1"/>
        <pt x="544" y="1505" on="1"/>
        <pt x="707" y="1505" on="1"/>
      </contour>
      <contour>
        <pt x="354" y="1416" on="1"/>
        <pt x="211" y="1416" on="1"/>
        <pt x="93" y="1667" on="1"/>
        <pt x="288" y="1667" on="1"/>
      </contour>
    </TTGlyph>
    <TTGlyph name="circumflexhookcomb" xMin="256" yMin="1252" xMax="1159" yMax="1727">
      <contour>
        <pt x="897" y="1252" on="1"/>
        <pt x="716" y="1252" on="1"/>
        <pt x="609" y="1427" on="1"/>
        <pt x="432" y="1252" on="1"/>
        <pt x="258" y="1252" on="1"/>
        <pt x="256" y="1258" on="1"/>
        <pt x="534" y="1505" on="1"/>
        <pt x="716" y="1505" on="1"/>
      </contour>
      <contour>
        <pt x="878" y="1384" on="1"/>
        <pt x="895" y="1503" on="1"/>
        <pt x="949" y="1507" on="0"/>
        <pt x="997" y="1532" on="0"/>
        <pt x="1004" y="1567" on="1"/>
        <pt x="1011" y="1603" on="0"/>
        <pt x="959" y="1636" on="0"/>
        <pt x="914" y="1636" on="1"/>
        <pt x="937" y="1727" on="1"/>
        <pt x="1054" y="1727" on="0"/>
        <pt x="1159" y="1647" on="0"/>
        <pt x="1144" y="1570" on="1"/>
        <pt x="1132" y="1510" on="0"/>
        <pt x="1060" y="1447" on="0"/>
        <pt x="1015" y="1440" on="1"/>
        <pt x="1003" y="1384" on="1"/>
      </contour>
    </TTGlyph>
    <TTGlyph name="circumflextildecomb" xMin="258" yMin="1254" xMax="894" yMax="1760">
      <contour>
        <pt x="894" y="1254" on="1"/>
        <pt x="715" y="1254" on="1"/>
        <pt x="606" y="1420" on="1"/>
        <pt x="431" y="1254" on="1"/>
        <pt x="260" y="1254" on="1"/>
        <pt x="258" y="1260" on="1"/>
        <pt x="541" y="1500" on="1"/>
        <pt x="703" y="1500" on="1"/>
      </contour>
      <contour>
        <pt x="890" y="1735" on="1"/>
        <pt x="875" y="1663" on="0"/>
        <pt x="784" y="1567" on="0"/>
        <pt x="731" y="1567" on="1"/>
        <pt x="693" y="1567" on="0"/>
        <pt x="601" y="1645" on="0"/>
        <pt x="569" y="1645" on="1"/>
        <pt x="548" y="1645" on="0"/>
        <pt x="502" y="1586" on="0"/>
        <pt x="495" y="1550" on="1"/>
        <pt x="421" y="1571" on="1"/>
        <pt x="435" y="1643" on="0"/>
        <pt x="526" y="1744" on="0"/>
        <pt x="579" y="1744" on="1"/>
        <pt x="608" y="1744" on="0"/>
        <pt x="710" y="1668" on="0"/>
        <pt x="742" y="1668" on="1"/>
        <pt x="762" y="1668" on="0"/>
        <pt x="807" y="1723" on="0"/>
        <pt x="815" y="1760" on="1"/>
      </contour>
    </TTGlyph>
    <TTGlyph name="colon" xMin="50" yMin="0" xMax="468" yMax="1081">
      <component glyphName="period" x="0" y="0" flags="0x4"/>
      <component glyphName="period" x="176" y="878" flags="0x4"/>
    </TTGlyph>
    <TTGlyph name="comma" xMin="-86" yMin="-271" xMax="255" yMax="214">
      <contour>
        <pt x="217" y="24" on="1"/>
        <pt x="33" y="-271" on="1"/>
        <pt x="-86" y="-271" on="1"/>
        <pt x="31" y="31" on="1"/>
        <pt x="68" y="214" on="1"/>
        <pt x="255" y="214" on="1"/>
      </contour>
    </TTGlyph>
    <TTGlyph name="commaaccent" xMin="-37" yMin="-139" xMax="227" yMax="224">
      <contour>
        <pt x="199" y="85" on="1"/>
        <pt x="52" y="-139" on="1"/>
        <pt x="-37" y="-139" on="1"/>
        <pt x="58" y="92" on="1"/>
        <pt x="85" y="224" on="1"/>
        <pt x="227" y="224" on="1"/>
      </contour>
    </TTGlyph>
    <TTGlyph name="commaaccentrotate" xMin="274" yMin="1162" xMax="552" yMax="1552">
      <contour>
        <pt x="305" y="1314" on="1"/>
        <pt x="447" y="1552" on="1"/>
        <pt x="552" y="1552" on="1"/>
        <pt x="481" y="1308" on="1"/>
        <pt x="451" y="1162" on="1"/>
        <pt x="274" y="1162" on="1"/>
      </contour>
    </TTGlyph>
    <TTGlyph name="copyright" xMin="84" yMin="-21" xMax="1382" yMax="1476">
      <contour>
        <pt x="974" y="596" on="1"/>
        <pt x="976" y="590" on="1"/>
        <pt x="954" y="434" on="0"/>
        <pt x="784" y="282" on="0"/>
        <pt x="651" y="282" on="1"/>
        <pt x="521" y="282" on="0"/>
        <pt x="391" y="497" on="0"/>
        <pt x="419" y="669" on="1"/>
        <pt x="438" y="788" on="1"/>
        <pt x="466" y="967" on="0"/>
        <pt x="657" y="1175" on="0"/>
        <pt x="794" y="1175" on="1"/>
        <pt x="920" y="1175" on="0"/>
        <pt x="1049" y="1012" on="0"/>
        <pt x="1026" y="861" on="1"/>
        <pt x="899" y="861" on="1"/>
        <pt x="915" y="967" on="0"/>
        <pt x="853" y="1059" on="0"/>
        <pt x="775" y="1059" on="1"/>
        <pt x="698" y="1059" on="0"/>
        <pt x="583" y="907" on="0"/>
        <pt x="564" y="789" on="1"/>
        <pt x="545" y="669" on="1"/>
        <pt x="524" y="541" on="0"/>
        <pt x="588" y="397" on="0"/>
        <pt x="670" y="397" on="1"/>
        <pt x="744" y="397" on="0"/>
        <pt x="839" y="492" on="0"/>
        <pt x="855" y="596" on="1"/>
      </contour>
      <contour>
        <pt x="235" y="729" on="1"/>
        <pt x="189" y="448" on="0"/>
        <pt x="421" y="86" on="0"/>
        <pt x="631" y="86" on="1"/>
        <pt x="830" y="86" on="0"/>
        <pt x="1190" y="461" on="0"/>
        <pt x="1233" y="729" on="1"/>
        <pt x="1277" y="1008" on="0"/>
        <pt x="1045" y="1367" on="0"/>
        <pt x="836" y="1367" on="1"/>
        <pt x="636" y="1367" on="0"/>
        <pt x="277" y="994" on="0"/>
      </contour>
      <contour>
        <pt x="135" y="729" on="1"/>
        <pt x="187" y="1056" on="0"/>
        <pt x="600" y="1476" on="0"/>
        <pt x="853" y="1476" on="1"/>
        <pt x="1092" y="1476" on="0"/>
        <pt x="1382" y="1041" on="0"/>
        <pt x="1333" y="729" on="1"/>
        <pt x="1280" y="401" on="0"/>
        <pt x="865" y="-21" on="0"/>
        <pt x="614" y="-21" on="1"/>
        <pt x="374" y="-21" on="0"/>
        <pt x="84" y="416" on="0"/>
      </contour>
    </TTGlyph>
    <TTGlyph name="crossbar" xMin="182" yMin="663" xMax="741" yMax="804">
      <contour>
        <pt x="713" y="663" on="1"/>
        <pt x="182" y="663" on="1"/>
        <pt x="210" y="804" on="1"/>
        <pt x="741" y="804" on="1"/>
      </contour>
    </TTGlyph>
    <TTGlyph name="currency" xMin="23" yMin="-27" xMax="1303" yMax="1265">
      <contour>
        <pt x="871" y="105" on="1"/>
        <pt x="794" y="44" on="0"/>
        <pt x="622" y="-20" on="0"/>
        <pt x="534" y="-20" on="1"/>
        <pt x="453" y="-20" on="0"/>
        <pt x="311" y="49" on="0"/>
        <pt x="258" y="113" on="1"/>
        <pt x="115" y="-26" on="1"/>
        <pt x="23" y="92" on="1"/>
        <pt x="181" y="244" on="1"/>
        <pt x="149" y="323" on="0"/>
        <pt x="135" y="508" on="0"/>
        <pt x="156" y="608" on="1"/>
        <pt x="177" y="720" on="0"/>
        <pt x="266" y="914" on="0"/>
        <pt x="329" y="993" on="1"/>
        <pt x="234" y="1144" on="1"/>
        <pt x="373" y="1264" on="1"/>
        <pt x="462" y="1122" on="1"/>
        <pt x="536" y="1176" on="0"/>
        <pt x="701" y="1234" on="0"/>
        <pt x="785" y="1234" on="1"/>
        <pt x="862" y="1234" on="0"/>
        <pt x="999" y="1168" on="0"/>
        <pt x="1053" y="1109" on="1"/>
        <pt x="1212" y="1265" on="1"/>
        <pt x="1303" y="1144" on="1"/>
        <pt x="1133" y="979" on="1"/>
        <pt x="1165" y="899" on="0"/>
        <pt x="1181" y="710" on="0"/>
        <pt x="1161" y="608" on="1"/>
        <pt x="1139" y="501" on="0"/>
        <pt x="1056" y="314" on="0"/>
        <pt x="999" y="237" on="1"/>
        <pt x="1092" y="92" on="1"/>
        <pt x="954" y="-27" on="1"/>
      </contour>
      <contour>
        <pt x="307" y="608" on="1"/>
        <pt x="264" y="397" on="0"/>
        <pt x="415" y="133" on="0"/>
        <pt x="565" y="133" on="1"/>
        <pt x="701" y="133" on="0"/>
        <pt x="972" y="413" on="0"/>
        <pt x="1011" y="608" on="1"/>
        <pt x="1052" y="817" on="0"/>
        <pt x="902" y="1080" on="0"/>
        <pt x="754" y="1080" on="1"/>
        <pt x="617" y="1080" on="0"/>
        <pt x="345" y="800" on="0"/>
      </contour>
    </TTGlyph>
    <TTGlyph name="cyrillicbreve" xMin="256" yMin="1184" xMax="816" yMax="1456">
      <component glyphName="breve" x="0" y="0" flags="0x204"/>
    </TTGlyph>
    <TTGlyph name="cyrillichook" xMin="-222" yMin="-437" xMax="285" yMax="174">
      <contour>
        <pt x="285" y="174" on="1"/>
        <pt x="235" y="-74" on="1"/>
        <pt x="197" y="-259" on="0"/>
        <pt x="15" y="-437" on="0"/>
        <pt x="-123" y="-437" on="1"/>
        <pt x="-149" y="-437" on="0"/>
        <pt x="-196" y="-428" on="0"/>
        <pt x="-222" y="-419" on="1"/>
        <pt x="-179" y="-262" on="1"/>
        <pt x="-165" y="-267" on="0"/>
        <pt x="-121" y="-276" on="0"/>
        <pt x="-104" y="-276" on="1"/>
        <pt x="-59" y="-276" on="0"/>
        <pt x="15" y="-170" on="0"/>
        <pt x="35" y="-74" on="1"/>
        <pt x="85" y="174" on="1"/>
      </contour>
    </TTGlyph>
    <TTGlyph name="cyrillichookleft" xMin="-121" yMin="-401" xMax="277" yMax="55">
      <contour>
        <pt x="160" y="55" on="1"/>
        <pt x="229" y="5" on="0"/>
        <pt x="277" y="-132" on="0"/>
        <pt x="263" y="-207" on="1"/>
        <pt x="243" y="-305" on="0"/>
        <pt x="115" y="-401" on="0"/>
        <pt x="28" y="-401" on="1"/>
        <pt x="-20" y="-401" on="0"/>
        <pt x="-96" y="-375" on="0"/>
        <pt x="-121" y="-357" on="1"/>
        <pt x="-71" y="-241" on="1"/>
        <pt x="-54" y="-252" on="0"/>
        <pt x="-15" y="-268" on="0"/>
        <pt x="11" y="-268" on="1"/>
        <pt x="51" y="-268" on="0"/>
        <pt x="101" y="-217" on="0"/>
        <pt x="108" y="-186" on="1"/>
        <pt x="118" y="-132" on="0"/>
        <pt x="89" y="-53" on="0"/>
        <pt x="55" y="0" on="1"/>
      </contour>
    </TTGlyph>
    <TTGlyph name="cyrillictic" xMin="-68" yMin="-356" xMax="235" yMax="157">
      <contour>
        <pt x="133" y="-356" on="1"/>
        <pt x="-68" y="-356" on="1"/>
        <pt x="34" y="157" on="1"/>
        <pt x="235" y="157" on="1"/>
      </contour>
    </TTGlyph>
    <TTGlyph name="d" xMin="51" yMin="-21" xMax="1069" yMax="1560">
      <contour>
        <pt x="103" y="548" on="1"/>
        <pt x="158" y="825" on="0"/>
        <pt x="374" y="1102" on="0"/>
        <pt x="539" y="1102" on="1"/>
        <pt x="606" y="1102" on="0"/>
        <pt x="716" y="1037" on="0"/>
        <pt x="752" y="977" on="1"/>
        <pt x="869" y="1560" on="1"/>
        <pt x="1069" y="1560" on="1"/>
        <pt x="757" y="0" on="1"/>
        <pt x="582" y="0" on="1"/>
        <pt x="590" y="96" on="1"/>
        <pt x="538" y="38" on="0"/>
        <pt x="414" y="-21" on="0"/>
        <pt x="344" y="-21" on="1"/>
        <pt x="194" y="-21" on="0"/>
        <pt x="51" y="293" on="0"/>
        <pt x="98" y="527" on="1"/>
      </contour>
      <contour>
        <pt x="299" y="527" on="1"/>
        <pt x="262" y="346" on="0"/>
        <pt x="320" y="136" on="0"/>
        <pt x="420" y="136" on="1"/>
        <pt x="475" y="136" on="0"/>
        <pt x="573" y="214" on="0"/>
        <pt x="613" y="282" on="1"/>
        <pt x="719" y="812" on="1"/>
        <pt x="702" y="873" on="0"/>
        <pt x="625" y="944" on="0"/>
        <pt x="565" y="944" on="1"/>
        <pt x="473" y="944" on="0"/>
        <pt x="340" y="729" on="0"/>
        <pt x="304" y="548" on="1"/>
      </contour>
    </TTGlyph>
    <TTGlyph name="dagger" xMin="141" yMin="0" xMax="965" yMax="1456">
      <contour>
        <pt x="940" y="923" on="1"/>
        <pt x="637" y="923" on="1"/>
        <pt x="490" y="0" on="1"/>
        <pt x="290" y="0" on="1"/>
        <pt x="437" y="923" on="1"/>
        <pt x="141" y="923" on="1"/>
        <pt x="166" y="1082" on="1"/>
        <pt x="463" y="1082" on="1"/>
        <pt x="523" y="1456" on="1"/>
        <pt x="723" y="1456" on="1"/>
        <pt x="663" y="1082" on="1"/>
        <pt x="965" y="1082" on="1"/>
      </contour>
    </TTGlyph>
    <TTGlyph name="daggerdbl" xMin="18" yMin="-416" xMax="988" yMax="1456">
      <contour>
        <pt x="815" y="0" on="1"/>
        <pt x="512" y="0" on="1"/>
        <pt x="446" y="-416" on="1"/>
        <pt x="246" y="-416" on="1"/>
        <pt x="312" y="0" on="1"/>
        <pt x="18" y="0" on="1"/>
        <pt x="43" y="154" on="1"/>
        <pt x="337" y="154" on="1"/>
        <pt x="461" y="925" on="1"/>
        <pt x="166" y="925" on="1"/>
        <pt x="191" y="1082" on="1"/>
        <pt x="486" y="1082" on="1"/>
        <pt x="546" y="1456" on="1"/>
        <pt x="746" y="1456" on="1"/>
        <pt x="686" y="1082" on="1"/>
        <pt x="988" y="1082" on="1"/>
        <pt x="963" y="925" on="1"/>
        <pt x="661" y="925" on="1"/>
        <pt x="537" y="154" on="1"/>
        <pt x="840" y="154" on="1"/>
      </contour>
    </TTGlyph>
    <TTGlyph name="dasiaoxia" xMin="243" yMin="1135" xMax="799" yMax="1477">
      <contour>
        <pt x="485" y="1164" on="1"/>
        <pt x="630" y="1477" on="1"/>
        <pt x="799" y="1477" on="1"/>
        <pt x="795" y="1456" on="1"/>
        <pt x="545" y="1137" on="1"/>
        <pt x="479" y="1137" on="1"/>
      </contour>
      <contour>
        <pt x="272" y="1282" on="1"/>
        <pt x="436" y="1476" on="1"/>
        <pt x="522" y="1476" on="1"/>
        <pt x="416" y="1272" on="1"/>
        <pt x="389" y="1135" on="1"/>
        <pt x="243" y="1135" on="1"/>
      </contour>
    </TTGlyph>
    <TTGlyph name="dcaron" xMin="51" yMin="-21" xMax="1320" yMax="1560">
      <component glyphName="d" x="0" y="0" flags="0x4"/>
      <component glyphName="commaaccent" x="1093" y="1335" flags="0x4"/>
    </TTGlyph>
    <TTGlyph name="dcroat" xMin="51" yMin="-21" xMax="1167" yMax="1560">
      <contour>
        <pt x="1139" y="1238" on="1"/>
        <pt x="1005" y="1238" on="1"/>
        <pt x="757" y="0" on="1"/>
        <pt x="582" y="0" on="1"/>
        <pt x="590" y="96" on="1"/>
        <pt x="538" y="38" on="0"/>
        <pt x="414" y="-21" on="0"/>
        <pt x="344" y="-21" on="1"/>
        <pt x="194" y="-21" on="0"/>
        <pt x="51" y="293" on="0"/>
        <pt x="98" y="527" on="1"/>
        <pt x="103" y="548" on="1"/>
        <pt x="158" y="825" on="0"/>
        <pt x="374" y="1102" on="0"/>
        <pt x="539" y="1102" on="1"/>
        <pt x="606" y="1102" on="0"/>
        <pt x="716" y="1037" on="0"/>
        <pt x="752" y="977" on="1"/>
        <pt x="804" y="1238" on="1"/>
        <pt x="608" y="1238" on="1"/>
        <pt x="636" y="1379" on="1"/>
        <pt x="832" y="1379" on="1"/>
        <pt x="869" y="1560" on="1"/>
        <pt x="1069" y="1560" on="1"/>
        <pt x="1033" y="1379" on="1"/>
        <pt x="1167" y="1379" on="1"/>
      </contour>
      <contour>
        <pt x="299" y="527" on="1"/>
        <pt x="262" y="346" on="0"/>
        <pt x="320" y="136" on="0"/>
        <pt x="420" y="136" on="1"/>
        <pt x="475" y="136" on="0"/>
        <pt x="573" y="214" on="0"/>
        <pt x="613" y="282" on="1"/>
        <pt x="719" y="812" on="1"/>
        <pt x="702" y="873" on="0"/>
        <pt x="625" y="944" on="0"/>
        <pt x="565" y="944" on="1"/>
        <pt x="473" y="944" on="0"/>
        <pt x="340" y="729" on="0"/>
        <pt x="304" y="548" on="1"/>
      </contour>
    </TTGlyph>
    <TTGlyph name="degree" xMin="257" yMin="959" xMax="743" yMax="1477">
      <contour>
        <pt x="279" y="1216" on="1"/>
        <pt x="301" y="1329" on="0"/>
        <pt x="461" y="1477" on="0"/>
        <pt x="554" y="1477" on="1"/>
        <pt x="638" y="1477" on="0"/>
        <pt x="743" y="1320" on="0"/>
        <pt x="722" y="1216" on="1"/>
        <pt x="699" y="1101" on="0"/>
        <pt x="543" y="959" on="0"/>
        <pt x="451" y="959" on="1"/>
        <pt x="365" y="959" on="0"/>
        <pt x="257" y="1110" on="0"/>
      </contour>
      <contour>
        <pt x="394" y="1216" on="1"/>
        <pt x="381" y="1153" on="0"/>
        <pt x="428" y="1078" on="0"/>
        <pt x="475" y="1078" on="1"/>
        <pt x="516" y="1078" on="0"/>
        <pt x="595" y="1157" on="0"/>
        <pt x="607" y="1216" on="1"/>
        <pt x="620" y="1280" on="0"/>
        <pt x="575" y="1357" on="0"/>
        <pt x="530" y="1357" on="1"/>
        <pt x="487" y="1357" on="0"/>
        <pt x="405" y="1275" on="0"/>
      </contour>
    </TTGlyph>
    <TTGlyph name="delta" xMin="50" yMin="-21" xMax="997" yMax="1456">
      <contour>
        <pt x="997" y="1456" on="1"/>
        <pt x="967" y="1303" on="1"/>
        <pt x="623" y="1303" on="1"/>
        <pt x="775" y="1130" on="0"/>
        <pt x="948" y="757" on="0"/>
        <pt x="908" y="553" on="1"/>
        <pt x="902" y="526" on="1"/>
        <pt x="850" y="268" on="0"/>
        <pt x="582" y="-21" on="0"/>
        <pt x="392" y="-21" on="1"/>
        <pt x="216" y="-21" on="0"/>
        <pt x="50" y="284" on="0"/>
        <pt x="97" y="518" on="1"/>
        <pt x="102" y="545" on="1"/>
        <pt x="146" y="766" on="0"/>
        <pt x="381" y="1039" on="0"/>
        <pt x="538" y="1061" on="1"/>
        <pt x="541" y="1061" on="0"/>
        <pt x="546" y="1059" on="0"/>
        <pt x="549" y="1057" on="1"/>
        <pt x="509" y="1125" on="0"/>
        <pt x="408" y="1262" on="0"/>
        <pt x="353" y="1322" on="1"/>
        <pt x="380" y="1456" on="1"/>
      </contour>
      <contour>
        <pt x="298" y="526" on="1"/>
        <pt x="261" y="343" on="0"/>
        <pt x="318" y="133" on="0"/>
        <pt x="423" y="133" on="1"/>
        <pt x="516" y="133" on="0"/>
        <pt x="667" y="358" on="0"/>
        <pt x="701" y="526" on="1"/>
        <pt x="707" y="553" on="1"/>
        <pt x="734" y="692" on="0"/>
        <pt x="686" y="882" on="0"/>
        <pt x="631" y="934" on="1"/>
        <pt x="619" y="939" on="0"/>
        <pt x="595" y="946" on="0"/>
        <pt x="584" y="946" on="1"/>
        <pt x="488" y="946" on="0"/>
        <pt x="336" y="718" on="0"/>
        <pt x="304" y="553" on="1"/>
      </contour>
    </TTGlyph>
    <TTGlyph name="dieresis" xMin="283" yMin="1271" xMax="925" yMax="1456">
      <contour>
        <pt x="895" y="1271" on="1"/>
        <pt x="693" y="1271" on="1"/>
        <pt x="723" y="1456" on="1"/>
        <pt x="925" y="1456" on="1"/>
      </contour>
      <contour>
        <pt x="485" y="1271" on="1"/>
        <pt x="283" y="1271" on="1"/>
        <pt x="313" y="1456" on="1"/>
        <pt x="515" y="1456" on="1"/>
      </contour>
    </TTGlyph>
    <TTGlyph name="dieresistonos" xMin="309" yMin="1274" xMax="956" yMax="1722">
      <contour>
        <pt x="920" y="1274" on="1"/>
        <pt x="737" y="1274" on="1"/>
        <pt x="773" y="1456" on="1"/>
        <pt x="956" y="1456" on="1"/>
      </contour>
      <contour>
        <pt x="493" y="1274" on="1"/>
        <pt x="309" y="1274" on="1"/>
        <pt x="345" y="1456" on="1"/>
        <pt x="529" y="1456" on="1"/>
      </contour>
      <contour>
        <pt x="682" y="1722" on="1"/>
        <pt x="886" y="1722" on="1"/>
        <pt x="713" y="1472" on="1"/>
        <pt x="596" y="1472" on="1"/>
      </contour>
    </TTGlyph>
    <TTGlyph name="divide" xMin="103" yMin="193" xMax="955" yMax="1194">
      <contour>
        <pt x="921" y="608" on="1"/>
        <pt x="103" y="608" on="1"/>
        <pt x="137" y="779" on="1"/>
        <pt x="955" y="779" on="1"/>
      </contour>
      <contour>
        <pt x="691" y="999" on="1"/>
        <pt x="490" y="999" on="1"/>
        <pt x="529" y="1194" on="1"/>
        <pt x="730" y="1194" on="1"/>
      </contour>
      <contour>
        <pt x="530" y="193" on="1"/>
        <pt x="329" y="193" on="1"/>
        <pt x="368" y="388" on="1"/>
        <pt x="569" y="388" on="1"/>
      </contour>
    </TTGlyph>
    <TTGlyph name="dollar" xMin="58" yMin="-210" xMax="988" yMax="1685">
      <contour>
        <pt x="659" y="370" on="1"/>
        <pt x="675" y="469" on="0"/>
        <pt x="609" y="590" on="0"/>
        <pt x="512" y="645" on="1"/>
        <pt x="352" y="715" on="0"/>
        <pt x="213" y="910" on="0"/>
        <pt x="241" y="1082" on="1"/>
        <pt x="268" y="1251" on="0"/>
        <pt x="464" y="1455" on="0"/>
        <pt x="608" y="1473" on="1"/>
        <pt x="642" y="1685" on="1"/>
        <pt x="771" y="1685" on="1"/>
        <pt x="736" y="1470" on="1"/>
        <pt x="866" y="1444" on="0"/>
        <pt x="988" y="1206" on="0"/>
        <pt x="958" y="1014" on="1"/>
        <pt x="757" y="1014" on="1"/>
        <pt x="779" y="1155" on="0"/>
        <pt x="718" y="1317" on="0"/>
        <pt x="641" y="1317" on="1"/>
        <pt x="564" y="1317" on="0"/>
        <pt x="457" y="1185" on="0"/>
        <pt x="441" y="1084" on="1"/>
        <pt x="425" y="984" on="0"/>
        <pt x="489" y="867" on="0"/>
        <pt x="591" y="809" on="1"/>
        <pt x="751" y="736" on="0"/>
        <pt x="887" y="543" on="0"/>
        <pt x="860" y="372" on="1"/>
        <pt x="831" y="197" on="0"/>
        <pt x="632" y="0" on="0"/>
        <pt x="481" y="-17" on="1"/>
        <pt x="450" y="-210" on="1"/>
        <pt x="322" y="-210" on="1"/>
        <pt x="353" y="-16" on="1"/>
        <pt x="215" y="3" on="0"/>
        <pt x="58" y="222" on="0"/>
        <pt x="92" y="432" on="1"/>
        <pt x="292" y="432" on="1"/>
        <pt x="266" y="268" on="0"/>
        <pt x="354" y="138" on="0"/>
        <pt x="439" y="138" on="1"/>
        <pt x="521" y="138" on="0"/>
        <pt x="643" y="268" on="0"/>
      </contour>
    </TTGlyph>
    <TTGlyph name="dotaccent" xMin="303" yMin="1259" xMax="556" yMax="1459">
      <contour>
        <pt x="516" y="1259" on="1"/>
        <pt x="303" y="1259" on="1"/>
        <pt x="343" y="1459" on="1"/>
        <pt x="556" y="1459" on="1"/>
      </contour>
    </TTGlyph>
    <TTGlyph name="dotbelow" xMin="-732" yMin="-333" xMax="-469" yMax="-133">
      <contour>
        <pt x="-509" y="-333" on="1"/>
        <pt x="-732" y="-333" on="1"/>
        <pt x="-692" y="-133" on="1"/>
        <pt x="-469" y="-133" on="1"/>
      </contour>
    </TTGlyph>
    <TTGlyph name="dotlessi" xMin="42" yMin="0" xMax="459" yMax="1082">
      <contour>
        <pt x="243" y="0" on="1"/>
        <pt x="42" y="0" on="1"/>
        <pt x="258" y="1082" on="1"/>
        <pt x="459" y="1082" on="1"/>
      </contour>
    </TTGlyph>
    <TTGlyph name="e" xMin="53" yMin="-21" xMax="898" yMax="1102">
      <contour>
        <pt x="417" y="-21" on="1"/>
        <pt x="239" y="-21" on="0"/>
        <pt x="53" y="249" on="0"/>
        <pt x="87" y="456" on="1"/>
        <pt x="112" y="614" on="1"/>
        <pt x="147" y="834" on="0"/>
        <pt x="404" y="1102" on="0"/>
        <pt x="573" y="1102" on="1"/>
        <pt x="743" y="1102" on="0"/>
        <pt x="898" y="848" on="0"/>
        <pt x="865" y="639" on="1"/>
        <pt x="843" y="499" on="1"/>
        <pt x="293" y="499" on="1"/>
        <pt x="286" y="456" on="1"/>
        <pt x="262" y="310" on="0"/>
        <pt x="346" y="133" on="0"/>
        <pt x="454" y="133" on="1"/>
        <pt x="531" y="133" on="0"/>
        <pt x="657" y="187" on="0"/>
        <pt x="716" y="237" on="1"/>
        <pt x="759" y="111" on="1"/>
        <pt x="701" y="53" on="0"/>
        <pt x="525" y="-21" on="0"/>
      </contour>
      <contour>
        <pt x="548" y="946" on="1"/>
        <pt x="470" y="946" on="0"/>
        <pt x="343" y="774" on="0"/>
        <pt x="316" y="644" on="1"/>
        <pt x="667" y="644" on="1"/>
        <pt x="674" y="685" on="1"/>
        <pt x="693" y="804" on="0"/>
        <pt x="632" y="946" on="0"/>
      </contour>
    </TTGlyph>
    <TTGlyph name="eacute" xMin="53" yMin="-21" xMax="913" yMax="1503">
      <component glyphName="e" x="0" y="0" flags="0x204"/>
      <component glyphName="acute" x="248" y="25" flags="0x4"/>
    </TTGlyph>
    <TTGlyph name="ebreve" xMin="53" yMin="-21" xMax="903" yMax="1551">
      <component glyphName="e" x="0" y="0" flags="0x204"/>
      <component glyphName="breve" x="87" y="95" flags="0x4"/>
    </TTGlyph>
    <TTGlyph name="ecaron" xMin="53" yMin="-21" xMax="926" yMax="1538">
      <component glyphName="e" x="0" y="0" flags="0x204"/>
      <component glyphName="caron" x="36" y="29" flags="0x4"/>
    </TTGlyph>
    <TTGlyph name="ecircumflex" xMin="53" yMin="-21" xMax="898" yMax="1533">
      <component glyphName="e" x="0" y="0" flags="0x204"/>
      <component glyphName="circumflex" x="16" y="26" flags="0x4"/>
    </TTGlyph>
    <TTGlyph name="edieresis" xMin="53" yMin="-21" xMax="930" yMax="1481">
      <component glyphName="e" x="0" y="0" flags="0x204"/>
      <component glyphName="dieresis" x="5" y="25" flags="0x4"/>
    </TTGlyph>
    <TTGlyph name="edotaccent" xMin="53" yMin="-21" xMax="898" yMax="1495">
      <component glyphName="e" x="0" y="0" flags="0x204"/>
      <component glyphName="dotaccent" x="183" y="36" flags="0x4"/>
    </TTGlyph>
    <TTGlyph name="egrave" xMin="53" yMin="-21" xMax="898" yMax="1506">
      <component glyphName="e" x="0" y="0" flags="0x204"/>
      <component glyphName="grave" x="93" y="29" flags="0x4"/>
    </TTGlyph>
    <TTGlyph name="eight" xMin="43" yMin="-21" xMax="1013" yMax="1477">
      <contour>
        <pt x="976" y="1076" on="1"/>
        <pt x="951" y="953" on="0"/>
        <pt x="813" y="782" on="0"/>
        <pt x="714" y="742" on="1"/>
        <pt x="804" y="695" on="0"/>
        <pt x="890" y="511" on="0"/>
        <pt x="867" y="392" on="1"/>
        <pt x="824" y="179" on="0"/>
        <pt x="573" y="-21" on="0"/>
        <pt x="394" y="-21" on="1"/>
        <pt x="228" y="-21" on="0"/>
        <pt x="43" y="195" on="0"/>
        <pt x="83" y="392" on="1"/>
        <pt x="110" y="525" on="0"/>
        <pt x="266" y="709" on="0"/>
        <pt x="379" y="750" on="1"/>
        <pt x="299" y="795" on="0"/>
        <pt x="227" y="966" on="0"/>
        <pt x="250" y="1076" on="1"/>
        <pt x="290" y="1280" on="0"/>
        <pt x="525" y="1477" on="0"/>
        <pt x="692" y="1477" on="1"/>
        <pt x="843" y="1477" on="0"/>
        <pt x="1013" y="1264" on="0"/>
      </contour>
      <contour>
        <pt x="669" y="399" on="1"/>
        <pt x="694" y="527" on="0"/>
        <pt x="616" y="670" on="0"/>
        <pt x="531" y="670" on="1"/>
        <pt x="451" y="670" on="0"/>
        <pt x="309" y="517" on="0"/>
        <pt x="286" y="399" on="1"/>
        <pt x="259" y="266" on="0"/>
        <pt x="335" y="133" on="0"/>
        <pt x="425" y="133" on="1"/>
        <pt x="504" y="133" on="0"/>
        <pt x="644" y="277" on="0"/>
      </contour>
      <contour>
        <pt x="773" y="1071" on="1"/>
        <pt x="796" y="1187" on="0"/>
        <pt x="734" y="1321" on="0"/>
        <pt x="661" y="1321" on="1"/>
        <pt x="591" y="1321" on="0"/>
        <pt x="472" y="1184" on="0"/>
        <pt x="450" y="1071" on="1"/>
        <pt x="426" y="951" on="0"/>
        <pt x="487" y="824" on="0"/>
        <pt x="563" y="824" on="1"/>
        <pt x="631" y="824" on="0"/>
        <pt x="750" y="960" on="0"/>
      </contour>
    </TTGlyph>
    <TTGlyph name="eight.lnum" xMin="52" yMin="-21" xMax="1051" yMax="1477">
      <contour>
        <pt x="1014" y="1076" on="1"/>
        <pt x="989" y="953" on="0"/>
        <pt x="847" y="782" on="0"/>
        <pt x="745" y="742" on="1"/>
        <pt x="839" y="696" on="0"/>
        <pt x="929" y="511" on="0"/>
        <pt x="906" y="392" on="1"/>
        <pt x="863" y="179" on="0"/>
        <pt x="604" y="-21" on="0"/>
        <pt x="419" y="-21" on="1"/>
        <pt x="246" y="-21" on="0"/>
        <pt x="52" y="195" on="0"/>
        <pt x="92" y="392" on="1"/>
        <pt x="119" y="525" on="0"/>
        <pt x="279" y="708" on="0"/>
        <pt x="396" y="750" on="1"/>
        <pt x="312" y="795" on="0"/>
        <pt x="235" y="966" on="0"/>
        <pt x="258" y="1076" on="1"/>
        <pt x="298" y="1280" on="0"/>
        <pt x="542" y="1477" on="0"/>
        <pt x="716" y="1477" on="1"/>
        <pt x="874" y="1477" on="0"/>
        <pt x="1051" y="1264" on="0"/>
      </contour>
      <contour>
        <pt x="709" y="399" on="1"/>
        <pt x="734" y="527" on="0"/>
        <pt x="647" y="670" on="0"/>
        <pt x="555" y="670" on="1"/>
        <pt x="468" y="670" on="0"/>
        <pt x="317" y="518" on="0"/>
        <pt x="294" y="399" on="1"/>
        <pt x="267" y="266" on="0"/>
        <pt x="352" y="133" on="0"/>
        <pt x="450" y="133" on="1"/>
        <pt x="536" y="133" on="0"/>
        <pt x="684" y="277" on="0"/>
      </contour>
      <contour>
        <pt x="813" y="1071" on="1"/>
        <pt x="836" y="1188" on="0"/>
        <pt x="766" y="1321" on="0"/>
        <pt x="685" y="1321" on="1"/>
        <pt x="608" y="1321" on="0"/>
        <pt x="479" y="1184" on="0"/>
        <pt x="457" y="1071" on="1"/>
        <pt x="433" y="950" on="0"/>
        <pt x="503" y="824" on="0"/>
        <pt x="588" y="824" on="1"/>
        <pt x="663" y="824" on="0"/>
        <pt x="790" y="960" on="0"/>
      </contour>
    </TTGlyph>
    <TTGlyph name="eight.smcp" xMin="27" yMin="-17" xMax="910" yMax="1181">
      <contour>
        <pt x="881" y="863" on="1"/>
        <pt x="861" y="768" on="0"/>
        <pt x="746" y="634" on="0"/>
        <pt x="663" y="600" on="1"/>
        <pt x="742" y="560" on="0"/>
        <pt x="820" y="416" on="0"/>
        <pt x="802" y="324" on="1"/>
        <pt x="767" y="153" on="0"/>
        <pt x="530" y="-17" on="0"/>
        <pt x="370" y="-17" on="1"/>
        <pt x="217" y="-17" on="0"/>
        <pt x="27" y="166" on="0"/>
        <pt x="59" y="324" on="1"/>
        <pt x="79" y="426" on="0"/>
        <pt x="215" y="571" on="0"/>
        <pt x="315" y="607" on="1"/>
        <pt x="244" y="645" on="0"/>
        <pt x="176" y="777" on="0"/>
        <pt x="194" y="863" on="1"/>
        <pt x="225" y="1024" on="0"/>
        <pt x="451" y="1181" on="0"/>
        <pt x="607" y="1181" on="1"/>
        <pt x="744" y="1181" on="0"/>
        <pt x="910" y="1012" on="0"/>
      </contour>
      <contour>
        <pt x="602" y="331" on="1"/>
        <pt x="620" y="421" on="0"/>
        <pt x="546" y="525" on="0"/>
        <pt x="476" y="525" on="1"/>
        <pt x="406" y="525" on="0"/>
        <pt x="277" y="414" on="0"/>
        <pt x="261" y="331" on="1"/>
        <pt x="242" y="237" on="0"/>
        <pt x="322" y="136" on="0"/>
        <pt x="400" y="136" on="1"/>
        <pt x="464" y="136" on="0"/>
        <pt x="584" y="244" on="0"/>
      </contour>
      <contour>
        <pt x="680" y="855" on="1"/>
        <pt x="696" y="936" on="0"/>
        <pt x="634" y="1027" on="0"/>
        <pt x="576" y="1027" on="1"/>
        <pt x="517" y="1027" on="0"/>
        <pt x="408" y="932" on="0"/>
        <pt x="393" y="855" on="1"/>
        <pt x="376" y="772" on="0"/>
        <pt x="444" y="680" on="0"/>
        <pt x="509" y="680" on="1"/>
        <pt x="561" y="680" on="0"/>
        <pt x="664" y="779" on="0"/>
      </contour>
    </TTGlyph>
    <TTGlyph name="eight.sup" xMin="32" yMin="-11" xMax="678" yMax="812">
      <contour>
        <pt x="657" y="592" on="1"/>
        <pt x="643" y="528" on="0"/>
        <pt x="563" y="437" on="0"/>
        <pt x="504" y="412" on="1"/>
        <pt x="559" y="383" on="0"/>
        <pt x="615" y="285" on="0"/>
        <pt x="603" y="223" on="1"/>
        <pt x="579" y="105" on="0"/>
        <pt x="406" y="-11" on="0"/>
        <pt x="288" y="-11" on="1"/>
        <pt x="175" y="-11" on="0"/>
        <pt x="32" y="114" on="0"/>
        <pt x="55" y="223" on="1"/>
        <pt x="68" y="292" on="0"/>
        <pt x="165" y="392" on="0"/>
        <pt x="236" y="417" on="1"/>
        <pt x="185" y="444" on="0"/>
        <pt x="137" y="535" on="0"/>
        <pt x="148" y="592" on="1"/>
        <pt x="170" y="703" on="0"/>
        <pt x="337" y="812" on="0"/>
        <pt x="451" y="812" on="1"/>
        <pt x="553" y="812" on="0"/>
        <pt x="678" y="695" on="0"/>
      </contour>
      <contour>
        <pt x="450" y="229" on="1"/>
        <pt x="461" y="288" on="0"/>
        <pt x="408" y="354" on="0"/>
        <pt x="360" y="354" on="1"/>
        <pt x="311" y="354" on="0"/>
        <pt x="221" y="283" on="0"/>
        <pt x="211" y="229" on="1"/>
        <pt x="199" y="171" on="0"/>
        <pt x="258" y="110" on="0"/>
        <pt x="312" y="110" on="1"/>
        <pt x="356" y="110" on="0"/>
        <pt x="439" y="176" on="0"/>
      </contour>
      <contour>
        <pt x="500" y="585" on="1"/>
        <pt x="509" y="636" on="0"/>
        <pt x="467" y="689" on="0"/>
        <pt x="427" y="689" on="1"/>
        <pt x="385" y="689" on="0"/>
        <pt x="312" y="633" on="0"/>
        <pt x="303" y="585" on="1"/>
        <pt x="292" y="532" on="0"/>
        <pt x="339" y="475" on="0"/>
        <pt x="385" y="475" on="1"/>
        <pt x="422" y="475" on="0"/>
        <pt x="490" y="536" on="0"/>
      </contour>
    </TTGlyph>
    <TTGlyph name="ellipsis" xMin="53" yMin="0" xMax="1023" yMax="203">
      <component glyphName="period" x="3" y="0" flags="0x4"/>
      <component glyphName="period" x="374" y="0" flags="0x4"/>
      <component glyphName="period" x="731" y="0" flags="0x4"/>
    </TTGlyph>
    <TTGlyph name="emacron" xMin="53" yMin="-21" xMax="929" yMax="1463">
      <component glyphName="e" x="0" y="0" flags="0x204"/>
      <component glyphName="macron" x="30" y="7" flags="0x4"/>
    </TTGlyph>
    <TTGlyph name="emdash" xMin="236" yMin="649" xMax="1362" yMax="804">
      <component glyphName="minus" x="-57" y="0" scalex="1.59997558594" scaley="1.0" flags="0x4"/>
    </TTGlyph>
    <TTGlyph name="endash" xMin="215" yMin="649" xMax="1130" yMax="804">
      <component glyphName="minus" x="-23" y="0" scalex="1.29998779297" scaley="1.0" flags="0x4"/>
    </TTGlyph>
    <TTGlyph name="eng" xMin="27" yMin="-437" xMax="937" yMax="1102">
      <contour>
        <pt x="409" y="938" on="1"/>
        <pt x="467" y="1017" on="0"/>
        <pt x="612" y="1102" on="0"/>
        <pt x="693" y="1102" on="1"/>
        <pt x="820" y="1102" on="0"/>
        <pt x="937" y="886" on="0"/>
        <pt x="893" y="666" on="1"/>
        <pt x="745" y="-74" on="1"/>
        <pt x="707" y="-259" on="0"/>
        <pt x="523" y="-437" on="0"/>
        <pt x="385" y="-437" on="1"/>
        <pt x="358" y="-437" on="0"/>
        <pt x="308" y="-428" on="0"/>
        <pt x="284" y="-419" on="1"/>
        <pt x="327" y="-262" on="1"/>
        <pt x="340" y="-267" on="0"/>
        <pt x="386" y="-276" on="0"/>
        <pt x="403" y="-276" on="1"/>
        <pt x="447" y="-276" on="0"/>
        <pt x="525" y="-169" on="0"/>
        <pt x="544" y="-74" on="1"/>
        <pt x="692" y="665" on="1"/>
        <pt x="724" y="828" on="0"/>
        <pt x="673" y="944" on="0"/>
        <pt x="592" y="944" on="1"/>
        <pt x="535" y="944" on="0"/>
        <pt x="432" y="874" on="0"/>
        <pt x="390" y="812" on="1"/>
        <pt x="228" y="0" on="1"/>
        <pt x="27" y="0" on="1"/>
        <pt x="243" y="1082" on="1"/>
        <pt x="427" y="1082" on="1"/>
      </contour>
    </TTGlyph>
    <TTGlyph name="eogonek" xMin="53" yMin="-358" xMax="898" yMax="1102">
      <component glyphName="e" x="0" y="0" flags="0x204"/>
      <component glyphName="ogonek" x="413" y="55" flags="0x4"/>
    </TTGlyph>
    <TTGlyph name="epsilon" xMin="36" yMin="-19" xMax="937" yMax="1100">
      <contour>
        <pt x="643" y="519" on="1"/>
        <pt x="636" y="481" on="1"/>
        <pt x="478" y="481" on="1"/>
        <pt x="397" y="481" on="0"/>
        <pt x="285" y="394" on="0"/>
        <pt x="267" y="307" on="1"/>
        <pt x="250" y="225" on="0"/>
        <pt x="325" y="129" on="0"/>
        <pt x="412" y="129" on="1"/>
        <pt x="488" y="129" on="0"/>
        <pt x="614" y="239" on="0"/>
        <pt x="630" y="316" on="1"/>
        <pt x="822" y="316" on="1"/>
        <pt x="823" y="310" on="1"/>
        <pt x="793" y="139" on="0"/>
        <pt x="546" y="-19" on="0"/>
        <pt x="389" y="-19" on="1"/>
        <pt x="228" y="-19" on="0"/>
        <pt x="36" y="155" on="0"/>
        <pt x="65" y="302" on="1"/>
        <pt x="85" y="402" on="0"/>
        <pt x="199" y="529" on="0"/>
        <pt x="290" y="559" on="1"/>
        <pt x="225" y="595" on="0"/>
        <pt x="164" y="717" on="0"/>
        <pt x="179" y="789" on="1"/>
        <pt x="210" y="947" on="0"/>
        <pt x="438" y="1100" on="0"/>
        <pt x="613" y="1100" on="1"/>
        <pt x="755" y="1100" on="0"/>
        <pt x="937" y="924" on="0"/>
        <pt x="905" y="787" on="1"/>
        <pt x="902" y="781" on="1"/>
        <pt x="709" y="781" on="1"/>
        <pt x="725" y="860" on="0"/>
        <pt x="649" y="950" on="0"/>
        <pt x="576" y="950" on="1"/>
        <pt x="499" y="950" on="0"/>
        <pt x="391" y="852" on="0"/>
        <pt x="378" y="783" on="1"/>
        <pt x="361" y="703" on="0"/>
        <pt x="424" y="622" on="0"/>
        <pt x="506" y="622" on="1"/>
        <pt x="664" y="622" on="1"/>
        <pt x="656" y="584" on="1"/>
        <pt x="657" y="584" on="1"/>
        <pt x="651" y="556" on="1"/>
        <pt x="644" y="519" on="1"/>
      </contour>
    </TTGlyph>
    <TTGlyph name="epsilontonos" xMin="36" yMin="-19" xMax="937" yMax="1605">
      <component glyphName="epsilon" x="0" y="0" flags="0x204"/>
      <component glyphName="tonos" x="207" y="-28" flags="0x4"/>
    </TTGlyph>
    <TTGlyph name="equal" xMin="122" yMin="390" xMax="937" yMax="968">
      <contour>
        <pt x="905" y="808" on="1"/>
        <pt x="206" y="808" on="1"/>
        <pt x="238" y="968" on="1"/>
        <pt x="937" y="968" on="1"/>
      </contour>
      <contour>
        <pt x="821" y="390" on="1"/>
        <pt x="122" y="390" on="1"/>
        <pt x="154" y="550" on="1"/>
        <pt x="853" y="550" on="1"/>
      </contour>
    </TTGlyph>
    <TTGlyph name="estimated" xMin="112" yMin="-20" xMax="1026" yMax="1102">
      <contour>
        <pt x="788" y="94" on="1"/>
        <pt x="707" y="39" on="0"/>
        <pt x="544" y="-20" on="0"/>
        <pt x="467" y="-20" on="1"/>
        <pt x="303" y="-20" on="0"/>
        <pt x="112" y="313" on="0"/>
        <pt x="157" y="541" on="1"/>
        <pt x="205" y="782" on="0"/>
        <pt x="525" y="1102" on="0"/>
        <pt x="691" y="1102" on="1"/>
        <pt x="847" y="1102" on="0"/>
        <pt x="1026" y="788" on="0"/>
        <pt x="981" y="561" on="1"/>
        <pt x="972" y="514" on="1"/>
        <pt x="354" y="514" on="1"/>
        <pt x="288" y="186" on="1"/>
        <pt x="322" y="133" on="0"/>
        <pt x="424" y="76" on="0"/>
        <pt x="486" y="76" on="1"/>
        <pt x="558" y="76" on="0"/>
        <pt x="726" y="137" on="0"/>
        <pt x="807" y="198" on="1"/>
      </contour>
      <contour>
        <pt x="673" y="1008" on="1"/>
        <pt x="617" y="1008" on="0"/>
        <pt x="484" y="942" on="0"/>
        <pt x="428" y="886" on="1"/>
        <pt x="373" y="609" on="1"/>
        <pt x="808" y="609" on="1"/>
        <pt x="865" y="895" on="1"/>
        <pt x="831" y="948" on="0"/>
        <pt x="733" y="1008" on="0"/>
      </contour>
    </TTGlyph>
    <TTGlyph name="eta" xMin="27" yMin="-415" xMax="938" yMax="1102">
      <contour>
        <pt x="409" y="938" on="1"/>
        <pt x="467" y="1017" on="0"/>
        <pt x="612" y="1102" on="0"/>
        <pt x="693" y="1102" on="1"/>
        <pt x="821" y="1102" on="0"/>
        <pt x="938" y="892" on="0"/>
        <pt x="893" y="666" on="1"/>
        <pt x="677" y="-415" on="1"/>
        <pt x="476" y="-415" on="1"/>
        <pt x="692" y="665" on="1"/>
        <pt x="724" y="828" on="0"/>
        <pt x="672" y="946" on="0"/>
        <pt x="592" y="946" on="1"/>
        <pt x="536" y="946" on="0"/>
        <pt x="432" y="875" on="0"/>
        <pt x="390" y="813" on="1"/>
        <pt x="228" y="0" on="1"/>
        <pt x="27" y="0" on="1"/>
        <pt x="243" y="1082" on="1"/>
        <pt x="427" y="1082" on="1"/>
      </contour>
    </TTGlyph>
    <TTGlyph name="etatonos" xMin="27" yMin="-415" xMax="938" yMax="1606">
      <component glyphName="eta" x="0" y="0" flags="0x204"/>
      <component glyphName="tonos" x="212" y="-27" flags="0x4"/>
    </TTGlyph>
    <TTGlyph name="eth" xMin="26" yMin="-21" xMax="1077" yMax="1517">
      <contour>
        <pt x="883" y="1292" on="1"/>
        <pt x="952" y="1172" on="0"/>
        <pt x="988" y="841" on="0"/>
        <pt x="947" y="637" on="1"/>
        <pt x="930" y="550" on="1"/>
        <pt x="876" y="282" on="0"/>
        <pt x="576" y="-21" on="0"/>
        <pt x="390" y="-21" on="1"/>
        <pt x="218" y="-21" on="0"/>
        <pt x="26" y="260" on="0"/>
        <pt x="67" y="462" on="1"/>
        <pt x="116" y="707" on="0"/>
        <pt x="384" y="968" on="0"/>
        <pt x="568" y="968" on="1"/>
        <pt x="630" y="968" on="0"/>
        <pt x="738" y="909" on="0"/>
        <pt x="771" y="859" on="1"/>
        <pt x="776" y="863" on="1"/>
        <pt x="781" y="966" on="0"/>
        <pt x="750" y="1128" on="0"/>
        <pt x="716" y="1189" on="1"/>
        <pt x="476" y="1041" on="1"/>
        <pt x="432" y="1135" on="1"/>
        <pt x="655" y="1272" on="1"/>
        <pt x="628" y="1298" on="0"/>
        <pt x="566" y="1341" on="0"/>
        <pt x="531" y="1360" on="1"/>
        <pt x="624" y="1517" on="1"/>
        <pt x="682" y="1492" on="0"/>
        <pt x="782" y="1422" on="0"/>
        <pt x="824" y="1376" on="1"/>
        <pt x="1034" y="1505" on="1"/>
        <pt x="1077" y="1411" on="1"/>
      </contour>
      <contour>
        <pt x="748" y="639" on="1"/>
        <pt x="752" y="661" on="0"/>
        <pt x="754" y="675" on="0"/>
        <pt x="756" y="685" on="1"/>
        <pt x="740" y="742" on="0"/>
        <pt x="639" y="817" on="0"/>
        <pt x="557" y="817" on="1"/>
        <pt x="463" y="817" on="0"/>
        <pt x="298" y="611" on="0"/>
        <pt x="268" y="462" on="1"/>
        <pt x="240" y="322" on="0"/>
        <pt x="321" y="134" on="0"/>
        <pt x="424" y="134" on="1"/>
        <pt x="518" y="134" on="0"/>
        <pt x="694" y="372" on="0"/>
        <pt x="730" y="550" on="1"/>
      </contour>
    </TTGlyph>
    <TTGlyph name="exclam" xMin="50" yMin="0" xMax="541" yMax="1456">
      <contour>
        <pt x="347" y="485" on="1"/>
        <pt x="146" y="485" on="1"/>
        <pt x="340" y="1456" on="1"/>
        <pt x="541" y="1456" on="1"/>
      </contour>
      <contour>
        <pt x="250" y="0" on="1"/>
        <pt x="50" y="0" on="1"/>
        <pt x="91" y="204" on="1"/>
        <pt x="291" y="204" on="1"/>
      </contour>
    </TTGlyph>
    <TTGlyph name="exclamdbl" xMin="50" yMin="0" xMax="1009" yMax="1456">
      <component glyphName="exclam" x="0" y="0" flags="0x4"/>
      <component glyphName="exclam" x="468" y="0" flags="0x4"/>
    </TTGlyph>
    <TTGlyph name="exclamdown" xMin="-32" yMin="-374" xMax="460" yMax="1082">
      <contour>
        <pt x="169" y="-374" on="1"/>
        <pt x="-32" y="-374" on="1"/>
        <pt x="162" y="596" on="1"/>
        <pt x="363" y="596" on="1"/>
      </contour>
      <contour>
        <pt x="418" y="869" on="1"/>
        <pt x="217" y="869" on="1"/>
        <pt x="259" y="1082" on="1"/>
        <pt x="460" y="1082" on="1"/>
      </contour>
    </TTGlyph>
    <TTGlyph name="f" xMin="97" yMin="0" xMax="834" yMax="1581">
      <contour>
        <pt x="97" y="0" on="1"/>
        <pt x="284" y="937" on="1"/>
        <pt x="151" y="937" on="1"/>
        <pt x="180" y="1082" on="1"/>
        <pt x="313" y="1082" on="1"/>
        <pt x="341" y="1221" on="1"/>
        <pt x="378" y="1405" on="0"/>
        <pt x="569" y="1581" on="0"/>
        <pt x="716" y="1581" on="1"/>
        <pt x="742" y="1581" on="0"/>
        <pt x="800" y="1569" on="0"/>
        <pt x="834" y="1560" on="1"/>
        <pt x="785" y="1411" on="1"/>
        <pt x="770" y="1416" on="0"/>
        <pt x="731" y="1422" on="0"/>
        <pt x="708" y="1422" on="1"/>
        <pt x="649" y="1422" on="0"/>
        <pt x="561" y="1316" on="0"/>
        <pt x="542" y="1221" on="1"/>
        <pt x="514" y="1082" on="1"/>
        <pt x="691" y="1082" on="1"/>
        <pt x="662" y="937" on="1"/>
        <pt x="485" y="937" on="1"/>
        <pt x="298" y="0" on="1"/>
      </contour>
    </TTGlyph>
    <TTGlyph name="fi" xMin="80" yMin="0" xMax="996" yMax="1581">
      <contour>
        <pt x="80" y="0" on="1"/>
        <pt x="267" y="937" on="1"/>
        <pt x="133" y="937" on="1"/>
        <pt x="162" y="1082" on="1"/>
        <pt x="296" y="1082" on="1"/>
        <pt x="319" y="1193" on="1"/>
        <pt x="358" y="1391" on="0"/>
        <pt x="580" y="1581" on="0"/>
        <pt x="752" y="1581" on="1"/>
        <pt x="808" y="1581" on="0"/>
        <pt x="926" y="1549" on="0"/>
        <pt x="989" y="1521" on="1"/>
        <pt x="928" y="1363" on="1"/>
        <pt x="885" y="1385" on="0"/>
        <pt x="790" y="1412" on="0"/>
        <pt x="732" y="1412" on="1"/>
        <pt x="650" y="1412" on="0"/>
        <pt x="540" y="1299" on="0"/>
        <pt x="520" y="1193" on="1"/>
        <pt x="497" y="1082" on="1"/>
        <pt x="668" y="1082" on="1"/>
        <pt x="639" y="937" on="1"/>
        <pt x="468" y="937" on="1"/>
        <pt x="281" y="0" on="1"/>
      </contour>
      <contour>
        <pt x="780" y="0" on="1"/>
        <pt x="579" y="0" on="1"/>
        <pt x="795" y="1082" on="1"/>
        <pt x="996" y="1082" on="1"/>
      </contour>
    </TTGlyph>
    <TTGlyph name="five" xMin="74" yMin="-21" xMax="992" yMax="1456">
      <contour>
        <pt x="172" y="654" on="1"/>
        <pt x="367" y="1456" on="1"/>
        <pt x="992" y="1456" on="1"/>
        <pt x="965" y="1289" on="1"/>
        <pt x="507" y="1289" on="1"/>
        <pt x="402" y="857" on="1"/>
        <pt x="443" y="895" on="0"/>
        <pt x="542" y="944" on="0"/>
        <pt x="600" y="946" on="1"/>
        <pt x="766" y="948" on="0"/>
        <pt x="911" y="689" on="0"/>
        <pt x="875" y="465" on="1"/>
        <pt x="839" y="240" on="0"/>
        <pt x="603" y="-21" on="0"/>
        <pt x="413" y="-21" on="1"/>
        <pt x="262" y="-21" on="0"/>
        <pt x="74" y="190" on="0"/>
        <pt x="106" y="387" on="1"/>
        <pt x="303" y="391" on="1"/>
        <pt x="282" y="263" on="0"/>
        <pt x="357" y="133" on="0"/>
        <pt x="437" y="133" on="1"/>
        <pt x="525" y="133" on="0"/>
        <pt x="649" y="310" on="0"/>
        <pt x="674" y="463" on="1"/>
        <pt x="698" y="614" on="0"/>
        <pt x="630" y="786" on="0"/>
        <pt x="539" y="786" on="1"/>
        <pt x="463" y="786" on="0"/>
        <pt x="369" y="710" on="0"/>
        <pt x="342" y="637" on="1"/>
      </contour>
    </TTGlyph>
    <TTGlyph name="five.lnum" xMin="74" yMin="-21" xMax="1042" yMax="1456">
      <contour>
        <pt x="191" y="654" on="1"/>
        <pt x="418" y="1456" on="1"/>
        <pt x="1042" y="1456" on="1"/>
        <pt x="1009" y="1289" on="1"/>
        <pt x="551" y="1289" on="1"/>
        <pt x="431" y="864" on="1"/>
        <pt x="435" y="860" on="1"/>
        <pt x="473" y="895" on="0"/>
        <pt x="574" y="944" on="0"/>
        <pt x="631" y="946" on="1"/>
        <pt x="797" y="948" on="0"/>
        <pt x="931" y="689" on="0"/>
        <pt x="887" y="465" on="1"/>
        <pt x="841" y="236" on="0"/>
        <pt x="596" y="-21" on="0"/>
        <pt x="405" y="-21" on="1"/>
        <pt x="257" y="-21" on="0"/>
        <pt x="74" y="191" on="0"/>
        <pt x="114" y="387" on="1"/>
        <pt x="310" y="391" on="1"/>
        <pt x="284" y="259" on="0"/>
        <pt x="355" y="133" on="0"/>
        <pt x="436" y="133" on="1"/>
        <pt x="521" y="133" on="0"/>
        <pt x="655" y="311" on="0"/>
        <pt x="686" y="463" on="1"/>
        <pt x="716" y="618" on="0"/>
        <pt x="655" y="786" on="0"/>
        <pt x="563" y="786" on="1"/>
        <pt x="489" y="786" on="0"/>
        <pt x="390" y="709" on="0"/>
        <pt x="359" y="637" on="1"/>
      </contour>
    </TTGlyph>
    <TTGlyph name="five.smcp" xMin="20" yMin="-17" xMax="895" yMax="1165">
      <contour>
        <pt x="127" y="507" on="1"/>
        <pt x="315" y="1165" on="1"/>
        <pt x="895" y="1165" on="1"/>
        <pt x="863" y="1006" on="1"/>
        <pt x="461" y="1006" on="1"/>
        <pt x="372" y="681" on="1"/>
        <pt x="409" y="709" on="0"/>
        <pt x="503" y="748" on="0"/>
        <pt x="552" y="749" on="1"/>
        <pt x="698" y="752" on="0"/>
        <pt x="824" y="551" on="0"/>
        <pt x="788" y="371" on="1"/>
        <pt x="750" y="183" on="0"/>
        <pt x="535" y="-17" on="0"/>
        <pt x="348" y="-17" on="1"/>
        <pt x="203" y="-17" on="0"/>
        <pt x="20" y="148" on="0"/>
        <pt x="56" y="304" on="1"/>
        <pt x="58" y="309" on="1"/>
        <pt x="253" y="321" on="1"/>
        <pt x="234" y="229" on="0"/>
        <pt x="303" y="136" on="0"/>
        <pt x="378" y="136" on="1"/>
        <pt x="455" y="136" on="0"/>
        <pt x="566" y="263" on="0"/>
        <pt x="588" y="374" on="1"/>
        <pt x="610" y="487" on="0"/>
        <pt x="554" y="604" on="0"/>
        <pt x="480" y="604" on="1"/>
        <pt x="415" y="604" on="0"/>
        <pt x="326" y="543" on="0"/>
        <pt x="302" y="494" on="1"/>
      </contour>
    </TTGlyph>
</ttFont>
